<?xml version="1.0" encoding="utf-8"?>
<!-- Generator: Adobe Illustrator 25.0.0, SVG Export Plug-In . SVG Version: 6.00 Build 0)  -->
<svg version="1.1" id="Layer_1" xmlns="http://www.w3.org/2000/svg" xmlns:xlink="http://www.w3.org/1999/xlink" x="0px" y="0px"
	 viewBox="0 0 400 400" style="enable-background:new 0 0 400 400;" xml:space="preserve">
<style type="text/css">
	.st0{fill:#004B2F;}
	.st1{fill:#00B789;}
</style>
<g>
	<g>
		<polygon class="st0" points="200,0 200,32.32 367.68,32.32 367.68,367.68 200,367.68 200,400 400,400 400,0 		"/>
		<polygon class="st1" points="32.32,367.68 32.32,32.32 200,32.32 200,0 0,0 0,400 200,400 200,367.68 		"/>
	</g>
	<path class="st1" d="M191.92,86.5h37.11v171.81c-19.04,3.61-33.02,5.06-48.2,5.06c-45.32,0-68.93-20.49-68.93-59.78
		c0-37.84,25.06-62.43,63.87-62.43c6.02,0,10.6,0.48,16.15,1.93C191.92,143.1,191.92,86.5,191.92,86.5z M191.92,172.98
		c-4.03-1.36-8.27-2.02-12.53-1.93c-18.8,0-29.64,11.57-29.64,31.82c0,19.77,10.37,30.61,29.41,30.61c4.1,0,7.47-0.24,12.77-0.96
		L191.92,172.98L191.92,172.98z M288.1,143.82v86.04c0,29.64-2.17,43.87-8.67,56.15c-6.02,11.81-13.98,19.29-30.37,27.48
		l-34.47-16.39c16.39-7.71,24.35-14.46,29.41-24.83c5.31-10.6,6.99-22.9,6.99-55.19v-73.27L288.1,143.82L288.1,143.82z M250.98,86.7
		h37.11v38.08h-37.11V86.7z"/>
</g>
</svg>
