<?xml version="1.0" encoding="utf-8"?>
<!-- Generator: Adobe Illustrator 25.0.0, SVG Export Plug-In . SVG Version: 6.00 Build 0)  -->
<svg version="1.1" id="Layer_1" xmlns="http://www.w3.org/2000/svg" xmlns:xlink="http://www.w3.org/1999/xlink" x="0px" y="0px"
	 viewBox="0 0 400 400" style="enable-background:new 0 0 400 400;" xml:space="preserve">
<style type="text/css">
	.st0{fill:#FFFFFF;}
</style>
<g>
	<path class="st0" d="M200,0H0v400h200h200V0H200z M367.68,367.68H200H32.32V32.32H200h167.68V367.68z"/>
	<path class="st0" d="M249.05,313.5c16.39-8.19,24.35-15.66,30.37-27.48c6.51-12.29,8.67-26.51,8.67-56.15v-86.04v-0.01h-37.11
		v73.27c0,32.29-1.68,44.59-6.99,55.19c-5.06,10.37-13.01,17.12-29.41,24.83L249.05,313.5z"/>
	<rect x="250.98" y="86.7" class="st0" width="37.11" height="38.08"/>
	<path class="st0" d="M191.92,143.1c-5.54-1.45-10.12-1.93-16.15-1.93c-38.81,0-63.87,24.58-63.87,62.43
		c0,39.29,23.62,59.78,68.93,59.78c15.18,0,29.16-1.45,48.2-5.06V86.5h-37.11V143.1z M191.92,232.51c-5.3,0.73-8.67,0.96-12.77,0.96
		c-19.04,0-29.41-10.84-29.41-30.61c0-20.25,10.84-31.82,29.64-31.82c4.26-0.09,8.5,0.57,12.53,1.93v-0.01V232.51z"/>
</g>
</svg>
