<?xml version="1.0" encoding="utf-8"?>
<!-- Generator: Adobe Illustrator 25.0.0, SVG Export Plug-In . SVG Version: 6.00 Build 0)  -->
<svg version="1.1" id="Layer_1" xmlns="http://www.w3.org/2000/svg" xmlns:xlink="http://www.w3.org/1999/xlink" x="0px" y="0px"
	 viewBox="0 0 400 400" style="enable-background:new 0 0 400 400;" xml:space="preserve">
<style type="text/css">
	.st0{fill:#FFFFFF;}
	.st1{fill:#00005B;}
	.st2{fill:#9898FF;}
</style>
<g>
	<path class="st0" d="M200,0H0v400h200h200V0H200z M367.68,367.68H200H32.32V32.32H200h167.68V367.68z"/>
	<path class="st0" d="M281.89,292.92c13.67,0,24.67-2,33.5-6.33c1.17-0.83,1.67-1.67,1.67-3.33v-20.83c0-1.5-0.83-1.67-2-1.17
		c-8.83,3.83-17.33,5.17-27.17,5.17c-25.21,0-35.89-15.02-36.32-37.33h43.66c14.67,0,24.5-0.67,27.83-1.17
		c1.33-0.33,1.83-0.83,2.17-2.17c0.83-3.17,1.33-9.67,1.33-17.67c0-24.83-12.67-55.33-49-55.33c-35.83,0-56.17,32.17-56.17,71.5
		C221.39,260.42,237.89,292.92,281.89,292.92z M276.39,177.08c17.33,0,21.67,16.67,21.67,25.67c0,0.83-0.33,1.67-0.33,2.83
		c-0.83,0.33-3.83,0.33-12.33,0.33h-33.5C253.56,191.08,260.39,177.08,276.39,177.08z"/>
	<path class="st0" d="M158.89,107.08h-35c-0.83,0-1.33,0.5-1.33,1.67c-0.33,8.33-0.83,10.67-1.67,13.67l-47.33,165.5
		c-0.33,2,0,2.5,1.67,2.5h24.5c1.67,0,2.17-0.5,2.5-1.83l13.17-49.83l0,0h53.5l13.67,50c0.33,1.17,1.17,1.67,2.5,1.67h27.5
		c1.33,0,1.67-0.83,1.33-2.17l-53-179.5C160.56,107.42,160.06,107.08,158.89,107.08z M122.22,211.75c6.83-25.83,16-58.83,19.5-78.33
		h0.33c4.17,19.5,15.5,59.83,20.17,78.33H122.22z"/>
</g>
<g>
	<g>
		<polygon class="st1" points="200,0 200,32.32 367.68,32.32 367.68,367.68 200,367.68 200,400 400,400 400,0 		"/>
		<polygon class="st2" points="32.32,367.68 32.32,32.32 200,32.32 200,0 0,0 0,400 200,400 200,367.68 		"/>
	</g>
	<g>
		<path class="st2" d="M297.92,154.25c-27,0-50.83,7.33-61,11.5c-1.17,0.5-1.33,0.83-1.33,2.17c0.83,9.33,0.83,14.17,0.83,16.17h0
			v106c0,1.5,0.67,2,2,2h26.17c1.5,0,2-0.67,2-2v-105c5.83-2.5,21-3.83,31.5-3.33c1.33,0,1.83-0.33,1.83-1.67v-24.17
			C299.92,154.58,299.25,154.25,297.92,154.25z"/>
		<path class="st2" d="M144.75,107.92c-16.5,0-32.17,0.33-42.83,0.83c-1.33,0-1.67,0.83-1.67,2h0h-0.17v179.17c0,1.5,0.67,2,2,2
			h25.67c1.5,0,2-0.67,2-2v-64c4.5,0,6.67,0.33,13,0.33c37.67,0,68.33-18.17,68.33-60.5C211.08,133.25,190.92,107.92,144.75,107.92z
			 M143.25,199.58c-6.67,0-9.67,0-13.5-0.33v-64.33c3-0.17,9.33-0.5,16-0.5c22.33,0,35.33,10.67,35.33,31.83
			C181.08,192.75,162.75,199.58,143.25,199.58z"/>
	</g>
</g>
</svg>
