<?xml version="1.0" encoding="utf-8"?>
<!-- Generator: Adobe Illustrator 25.0.0, SVG Export Plug-In . SVG Version: 6.00 Build 0)  -->
<svg version="1.1" id="Layer_1" xmlns="http://www.w3.org/2000/svg" xmlns:xlink="http://www.w3.org/1999/xlink" x="0px" y="0px"
	 viewBox="0 0 400 400" style="enable-background:new 0 0 400 400;" xml:space="preserve">
<style type="text/css">
	.st0{fill:#280032;}
	.st1{fill:#E575FA;}
</style>
<g>
	<g>
		<polygon class="st0" points="200,0 200,32.3 367.7,32.3 367.7,367.7 200,367.7 200,400 400,400 400,0 		"/>
		<polygon class="st1" points="32.3,367.7 32.3,32.3 200,32.3 200,0 0,0 0,400 200,400 200,367.7 		"/>
	</g>
	<g>
		<path class="st1" d="M297.9,154.2c-27,0-50.8,7.3-61,11.5c-1.2,0.5-1.3,0.8-1.3,2.2c0.8,9.3,0.8,14.2,0.8,16.2l0,0v106
			c0,1.5,0.7,2,2,2h26.2c1.5,0,2-0.7,2-2v-105c5.8-2.5,21-3.8,31.5-3.3c1.3,0,1.8-0.3,1.8-1.7v-24.2
			C299.9,154.6,299.2,154.2,297.9,154.2z"/>
		<path class="st1" d="M144.8,107.9c-16.5,0-32.2,0.3-42.8,0.8c-1.3,0-1.7,0.8-1.7,2l0,0h-0.2v179.2c0,1.5,0.7,2,2,2h25.7
			c1.5,0,2-0.7,2-2v-64c4.5,0,6.7,0.3,13,0.3c37.7,0,68.3-18.2,68.3-60.5C211.1,133.2,190.9,107.9,144.8,107.9z M143.2,199.6
			c-6.7,0-9.7,0-13.5-0.3v-64.3c3-0.2,9.3-0.5,16-0.5c22.3,0,35.3,10.7,35.3,31.8C181.1,192.8,162.8,199.6,143.2,199.6z"/>
	</g>
</g>
</svg>
