<?xml version="1.0" encoding="utf-8"?>
<!-- Generator: Adobe Illustrator 25.0.0, SVG Export Plug-In . SVG Version: 6.00 Build 0)  -->
<svg version="1.1" id="Layer_1" xmlns="http://www.w3.org/2000/svg" xmlns:xlink="http://www.w3.org/1999/xlink" x="0px" y="0px"
	 viewBox="0 0 400 400" style="enable-background:new 0 0 400 400;" xml:space="preserve">
<style type="text/css">
	.st0{fill:#1B1B1B;}
</style>
<g>
	<path class="st0" d="M200,0H0v400h200h200V0H200z M367.68,367.68H200H32.32V32.32H200h167.68V367.68z"/>
	<path class="st0" d="M136.06,90.02c-13.26,7.68-17.19,30.47-11.61,59c0.56,2.82,1.18,5.63,1.88,8.43
		c-3.26,0.93-6.41,1.91-9.42,2.96c-26.94,9.39-44.14,24.11-44.14,39.38c0,15.77,18.47,31.59,46.53,41.18
		c2.28,0.77,4.57,1.49,6.88,2.15c-0.75,3.01-1.42,6.04-2,9.08c-5.32,28.03-1.17,50.28,12.06,57.91
		c13.66,7.88,36.59-0.22,58.91-19.73c1.76-1.54,3.54-3.18,5.31-4.89c2.23,2.16,4.53,4.25,6.88,6.28
		c21.63,18.61,42.98,26.12,56.2,18.47c13.65-7.9,18.08-31.81,12.32-60.9c-0.44-2.22-0.95-4.49-1.53-6.8
		c1.61-0.47,3.19-0.97,4.73-1.48c29.17-9.66,48.15-25.29,48.15-41.27c0-15.32-17.76-30.14-45.24-39.6
		c-2.71-0.93-5.44-1.79-8.19-2.58c0.46-1.85,0.88-3.72,1.27-5.59c6.2-30.1,2.15-54.35-11.7-62.33
		c-13.27-7.66-34.98,0.33-56.91,19.41c-2.16,1.88-4.27,3.82-6.34,5.81c-1.38-1.32-2.79-2.62-4.22-3.89
		C172.92,90.61,149.89,82.01,136.06,90.02z M141.51,99.43c8.51-4.93,27.34,2.1,47.18,19.71c1.27,1.13,2.54,2.31,3.82,3.52
		c-7.39,7.94-14.7,16.97-21.68,26.82c-11.97,1.11-23.42,2.89-33.95,5.28c-0.65-2.6-1.23-5.21-1.75-7.84v0
		C130.34,122.49,133.52,104.05,141.51,99.43z M252.2,187.27c-2.35-4.46-4.79-8.88-7.32-13.24c-2.49-4.3-5.07-8.54-7.74-12.72
		c8.12,1.02,15.9,2.39,23.2,4.06C258.15,172.39,255.42,179.74,252.2,187.27z M252.3,212.44c3.4,7.75,6.27,15.25,8.54,22.38
		c-7.38,1.68-15.34,3.04-23.74,4.05c2.69-4.26,5.29-8.58,7.81-12.95C247.48,221.48,249.94,216.98,252.3,212.44z M246.44,199.89
		c-3.4,6.99-7.05,13.86-10.93,20.6h0c-3.85,6.7-7.93,13.26-12.21,19.7c-7.55,0.54-15.35,0.82-23.3,0.82
		c-7.92,0-15.62-0.25-23.04-0.73c-4.39-6.42-8.54-13-12.44-19.73c-3.88-6.69-7.5-13.53-10.86-20.5c3.35-6.97,6.96-13.81,10.82-20.51
		v0c3.86-6.7,7.98-13.25,12.34-19.64c7.57-0.57,15.33-0.87,23.17-0.87c7.88,0,15.65,0.3,23.21,0.88c4.32,6.38,8.4,12.91,12.26,19.57
		C239.35,186.16,243.01,192.97,246.44,199.89z M147.91,212.83c2.3,4.44,4.71,8.83,7.21,13.17c2.56,4.42,5.22,8.78,7.99,13.07
		c-8.33-0.93-16.19-2.19-23.45-3.77C141.9,228.04,144.67,220.5,147.91,212.83z M147.89,187.26c-3.17-7.51-5.87-14.89-8.09-22.02
		c7.26-1.62,15-2.95,23.07-3.96c-2.7,4.21-5.3,8.49-7.8,12.82C152.58,178.43,150.18,182.82,147.89,187.26z M129.1,232.64
		c-2.11-0.6-4.2-1.26-6.28-1.97c-12.41-4.24-22.65-9.75-29.68-15.77c-6.31-5.41-9.5-10.77-9.5-15.13c0-9.26,13.81-21.08,36.85-29.12
		c2.89-1,5.81-1.92,8.76-2.76c3.18,10.36,7.36,21.19,12.4,32.14C136.55,211.16,132.32,222.16,129.1,232.64z M188.01,282.19
		c-9.87,8.63-19.77,14.75-28.48,17.83h0c-7.83,2.77-14.07,2.85-17.85,0.67c-8.03-4.63-11.36-22.5-6.81-46.47
		c0.54-2.83,1.16-5.65,1.86-8.45c10.42,2.31,21.96,3.96,34.29,4.96c7.04,9.91,14.41,19.01,21.84,26.99
		C191.28,279.25,189.66,280.74,188.01,282.19z M200.42,269.9c-5.15-5.56-10.29-11.71-15.31-18.32c4.87,0.19,9.84,0.29,14.89,0.29
		c5.19,0,10.31-0.12,15.36-0.34C210.41,258.26,205.4,264.42,200.42,269.9z M266.43,285.03c-1.52,8.17-4.56,13.61-8.33,15.8
		c-8.02,4.64-25.17-1.39-43.66-17.31c-2.12-1.82-4.26-3.77-6.4-5.83c7.17-7.84,14.34-16.96,21.33-27.08
		c12.3-1.09,23.92-2.88,34.46-5.31c0.52,2.09,0.98,4.15,1.38,6.16C267.75,264.31,268.12,275.94,266.43,285.03z M270.88,168.07
		c2.6,0.75,5.13,1.55,7.56,2.39c23.55,8.1,37.91,20.09,37.91,29.32c0,9.84-15.51,22.61-40.7,30.95h0c-1.39,0.46-2.82,0.91-4.27,1.34
		c-3.22-10.19-7.57-21.04-12.88-32.23C263.57,188.9,267.75,178.2,270.88,168.07z M213.59,117.29c18.79-16.35,36.34-22.8,44.34-18.19
		c8.52,4.91,11.83,24.73,6.48,50.72c-0.35,1.69-0.73,3.38-1.14,5.06c-10.56-2.44-22.02-4.25-34.02-5.38
		c-6.99-9.96-14.24-19.01-21.51-26.84C209.64,120.82,211.6,119.03,213.59,117.29z M200.12,130.43c5.01,5.43,10.03,11.5,14.97,18.08
		c-10.02-0.47-20.05-0.48-30.07-0.01C189.97,141.98,195.03,135.93,200.12,130.43z"/>
	<path class="st0" d="M200,177.06c-12.55,0-22.72,10.17-22.72,22.72c0,12.55,10.17,22.72,22.72,22.72
		c12.55,0,22.72-10.17,22.72-22.72C222.72,187.24,212.55,177.06,200,177.06z"/>
</g>
</svg>
