<?xml version="1.0" encoding="utf-8"?>
<!-- Generator: Adobe Illustrator 25.0.0, SVG Export Plug-In . SVG Version: 6.00 Build 0)  -->
<svg version="1.1" id="Layer_1" xmlns="http://www.w3.org/2000/svg" xmlns:xlink="http://www.w3.org/1999/xlink" x="0px" y="0px"
	 viewBox="0 0 400 400" style="enable-background:new 0 0 400 400;" xml:space="preserve">
<style type="text/css">
	.st0{fill:#1B1B1B;}
</style>
<g>
	<g>
		<path class="st0" d="M289.8,166.8c-3.7-0.7-7.4,1.4-10.8,6.5c-2.8,4-4.6,8.1-5.5,12.4c-0.5,2.4-0.7,5-0.7,7.6c0,3,0.6,6.2,1.9,9.5
			c1.6,4.1,3.6,6.2,6.1,6.8c2.6,0.5,5.4-0.6,8.4-3.3c3.9-3.4,6.5-8.5,7.9-15.4v0c0.5-2.4,0.7-5,0.7-7.7c0-3-0.6-6.2-1.9-9.5
			C294.4,169.5,292.3,167.3,289.8,166.8z"/>
		<path class="st0" d="M230.7,173.6c-1.6-4.1-3.6-6.2-6.1-6.8c-3.7-0.7-7.4,1.4-10.8,6.5c-2.8,4-4.6,8.1-5.5,12.4
			c-0.5,2.4-0.7,5-0.7,7.6c0,3,0.6,6.2,1.9,9.5c1.6,4.1,3.6,6.2,6.1,6.8c2.6,0.5,5.4-0.6,8.4-3.3c3.9-3.4,6.5-8.5,7.9-15.4v0
			c0.5-2.4,0.8-5,0.7-7.7C232.6,180,232,176.8,230.7,173.6z"/>
		<path class="st0" d="M304.1,123.8H95.8c-13.2,0-23.9,10.8-23.8,23.9v79.5c0,13.2,10.7,23.9,23.9,23.9h98.7l45.1,25.1l-10.3-25.1
			h74.7c13.2,0,23.9-10.7,23.9-23.9v-79.5C328,134.5,317.3,123.8,304.1,123.8z M178.1,228.2c0.2,2.6-0.2,4.9-1.2,6.9
			c-1.2,2.3-3.1,3.5-5.5,3.7c-2.7,0.2-5.5-1-8.2-3.8c-9.7-9.9-17.4-24.7-23-44.3c-6.8,13.3-11.8,23.3-15,30
			c-6.1,11.8-11.3,17.8-15.7,18.1c-2.8,0.2-5.2-2.2-7.3-7.2c-5.3-13.6-11-40-17.2-79c-0.4-2.7,0.2-5.1,1.7-7c1.5-2,3.6-3,6.6-3.2
			c5.3-0.4,8.3,2.1,9.1,7.5c3.2,21.8,6.8,40.2,10.5,55.3l22.8-43.4c2.1-4,4.7-6,7.8-6.2c4.6-0.3,7.4,2.6,8.5,8.7
			c2.6,13.8,5.9,25.6,9.9,35.6c2.7-26.4,7.3-45.5,13.7-57.2c1.6-2.9,3.9-4.4,6.9-4.6c2.4-0.2,4.6,0.5,6.6,2.1c2,1.6,3,3.5,3.2,5.9
			c0.1,1.9-0.2,3.4-1,5c-4.1,7.5-7.4,20.1-10.1,37.6C178.4,205.5,177.4,218.7,178.1,228.2z M241.9,211.8
			c-6.2,10.4-14.4,15.6-24.5,15.6c-1.8,0-3.6-0.2-5.6-0.6c-7.4-1.6-12.9-5.5-16.6-12.1c-3.3-5.7-5-12.6-5-20.6
			c0-10.7,2.7-20.5,8.1-29.3c6.3-10.4,14.5-15.6,24.5-15.6c1.8,0,3.6,0.2,5.6,0.6c7.3,1.6,12.9,5.5,16.6,12.1c3.3,5.6,5,12.4,5,20.5
			C250.1,193.1,247.4,202.9,241.9,211.8z M307.1,211.8c-6.2,10.4-14.4,15.6-24.5,15.6c-1.8,0-3.6-0.2-5.6-0.6
			c-7.4-1.6-12.9-5.5-16.7-12.1c-3.3-5.7-5-12.6-5-20.6c0-10.7,2.7-20.5,8.1-29.3c6.3-10.4,14.5-15.6,24.5-15.6
			c1.8,0,3.6,0.2,5.6,0.6c7.4,1.6,12.9,5.5,16.6,12.1c3.3,5.6,5.1,12.4,5,20.5C315.2,193.1,312.5,202.9,307.1,211.8z"/>
	</g>
	<path class="st0" d="M200,0H0v400h200h200V0H200z M367.7,367.7H200H32.3V32.3H200h167.7V367.7z"/>
</g>
</svg>
