<?xml version="1.0" encoding="utf-8"?>
<!-- Generator: Adobe Illustrator 25.0.0, SVG Export Plug-In . SVG Version: 6.00 Build 0)  -->
<svg version="1.1" id="Layer_1" xmlns="http://www.w3.org/2000/svg" xmlns:xlink="http://www.w3.org/1999/xlink" x="0px" y="0px"
	 viewBox="0 0 400 400" style="enable-background:new 0 0 400 400;" xml:space="preserve">
<style type="text/css">
	.st0{fill:#985C8D;}
	.st1{fill:#FFFFFF;}
</style>
<g>
	<g>
		<path class="st0" d="M95.8,123.8h208.4c13.2,0,23.9,10.7,23.9,23.9v79.5c0,13.2-10.7,23.9-23.9,23.9h-74.7l10.3,25.1l-45.1-25.1
			H95.9c-13.2,0-23.9-10.7-23.9-23.9v-79.5C71.9,134.6,82.6,123.8,95.8,123.8z"/>
		<path class="st1" d="M86.6,145.6c1.5-2,3.6-3,6.6-3.2c5.3-0.4,8.3,2.1,9.1,7.5c3.2,21.8,6.8,40.2,10.5,55.3l22.8-43.4
			c2.1-4,4.7-6,7.8-6.2c4.6-0.3,7.4,2.6,8.5,8.7c2.6,13.8,5.9,25.6,9.9,35.6c2.7-26.4,7.3-45.5,13.7-57.2c1.6-2.9,3.8-4.4,6.9-4.6
			c2.4-0.2,4.6,0.5,6.6,2.1c2,1.6,3,3.5,3.2,5.9c0.1,1.9-0.2,3.4-1,5c-4.1,7.5-7.4,20.1-10.1,37.6c-2.6,17-3.5,30.2-2.9,39.6
			c0.2,2.6-0.2,4.9-1.2,6.9c-1.2,2.3-3.1,3.5-5.5,3.7c-2.7,0.2-5.5-1-8.2-3.8c-9.7-9.9-17.4-24.7-23-44.3c-6.8,13.3-11.8,23.3-15,30
			c-6.1,11.8-11.3,17.8-15.7,18.1c-2.8,0.2-5.2-2.2-7.3-7.2c-5.3-13.6-11-40-17.2-79C84.5,149.8,85.1,147.4,86.6,145.6L86.6,145.6z
			 M310.2,161.9c-3.7-6.6-9.3-10.5-16.6-12.1c-2-0.4-3.9-0.6-5.6-0.6c-10,0-18.1,5.2-24.5,15.6c-5.4,8.8-8.1,18.6-8.1,29.3
			c0,8,1.7,14.9,5,20.6c3.7,6.6,9.3,10.5,16.6,12.1c2,0.4,3.9,0.6,5.6,0.6c10.1,0,18.2-5.2,24.5-15.6c5.4-8.9,8.1-18.7,8.1-29.4
			C315.3,174.3,313.5,167.5,310.2,161.9z M297.1,190.7c-1.5,6.9-4.1,12-7.9,15.4c-3,2.7-5.8,3.9-8.4,3.3c-2.5-0.5-4.6-2.7-6.1-6.8
			c-1.2-3.2-1.9-6.5-1.9-9.5c0-2.6,0.2-5.2,0.7-7.6c0.9-4.3,2.7-8.4,5.5-12.4c3.4-5.1,7.1-7.2,10.8-6.5c2.5,0.5,4.6,2.7,6.1,6.8
			c1.2,3.2,1.9,6.5,1.9,9.5C297.8,185.7,297.6,188.3,297.1,190.7L297.1,190.7z M245.1,161.9c-3.7-6.6-9.4-10.5-16.6-12.1
			c-2-0.4-3.9-0.6-5.6-0.6c-10,0-18.1,5.2-24.5,15.6c-5.4,8.8-8.1,18.6-8.1,29.3c0,8,1.7,14.9,5,20.6c3.7,6.6,9.3,10.5,16.6,12.1
			c2,0.4,3.9,0.6,5.6,0.6c10.1,0,18.2-5.2,24.5-15.6c5.4-8.9,8.1-18.7,8.1-29.4C250.1,174.3,248.4,167.5,245.1,161.9L245.1,161.9z
			 M231.9,190.7c-1.5,6.9-4.1,12-7.9,15.4c-3,2.7-5.8,3.9-8.4,3.3c-2.5-0.5-4.6-2.7-6.1-6.8c-1.2-3.2-1.9-6.5-1.9-9.5
			c0-2.6,0.2-5.2,0.7-7.6c0.9-4.3,2.7-8.4,5.5-12.4c3.4-5.1,7.1-7.2,10.8-6.5c2.5,0.5,4.6,2.7,6.1,6.8c1.2,3.2,1.9,6.5,1.9,9.5
			C232.7,185.7,232.4,188.3,231.9,190.7L231.9,190.7z"/>
	</g>
	<path class="st0" d="M200,0H0v400h200h200V0H200z M367.7,367.7H200H32.3V32.3H200h167.7V367.7z"/>
</g>
</svg>
