<?xml version="1.0" encoding="utf-8"?>
<!-- Generator: Adobe Illustrator 25.0.0, SVG Export Plug-In . SVG Version: 6.00 Build 0)  -->
<svg version="1.1" id="Layer_1" xmlns="http://www.w3.org/2000/svg" xmlns:xlink="http://www.w3.org/1999/xlink" x="0px" y="0px"
	 viewBox="0 0 400 400" style="enable-background:new 0 0 400 400;" xml:space="preserve">
<style type="text/css">
	.st0{fill:#E7001F;}
	.st1{fill:#FF0436;}
	.st2{fill:#FFFFFF;}
</style>
<g>
	<g>
		<polygon class="st0" points="200,0 200,32.3 367.7,32.3 367.7,367.7 200,367.7 200,400 400,400 400,0 		"/>
		<polygon class="st1" points="32.3,367.7 32.3,32.3 200,32.3 200,0 0,0 0,400 200,400 200,367.7 		"/>
	</g>
	<g>
		<path class="st1" d="M104.7,285.2c31.6,3.5,63.5,3.5,95.3,3.5c31.8,0,63.8,0,95.3-3.5c13.3-1.5,24.4-11.5,27.5-25
			c4.4-19.3,4.5-40.3,4.5-60.2s0-40.9-4.4-60.2c-3.1-13.5-14.2-23.5-27.5-25c-31.6-3.5-63.5-3.5-95.3-3.5c-31.8,0-63.8,0-95.3,3.5
			c-13.3,1.5-24.4,11.5-27.5,25c-4.4,19.3-4.5,40.3-4.5,60.2s0,40.9,4.4,60.2C80.3,273.7,91.3,283.7,104.7,285.2z"/>
		<path class="st2" d="M169.5,157.9c27,14.1,53.8,28,80.9,42.2c-27.1,14-53.9,27.9-80.9,42V157.9L169.5,157.9z"/>
	</g>
</g>
</svg>
