<?xml version="1.0" encoding="utf-8"?>
<!-- Generator: Adobe Illustrator 25.0.0, SVG Export Plug-In . SVG Version: 6.00 Build 0)  -->
<svg version="1.1" id="Layer_1" xmlns="http://www.w3.org/2000/svg" xmlns:xlink="http://www.w3.org/1999/xlink" x="0px" y="0px"
	 viewBox="0 0 400 400" style="enable-background:new 0 0 400 400;" xml:space="preserve">
<style type="text/css">
	.st0{fill:#1B1B1B;}
</style>
<g>
	<path class="st0" d="M200,0H0v400h200h200V0H200z M367.68,367.68H200H32.32V32.32H200h167.68V367.68z"/>
	<path class="st0" d="M281.89,292.92c13.67,0,24.67-2,33.5-6.33c1.17-0.83,1.67-1.67,1.67-3.33v-20.83c0-1.5-0.83-1.67-2-1.17
		c-8.83,3.83-17.33,5.17-27.17,5.17c-25.21,0-35.89-15.02-36.32-37.33h43.66c14.67,0,24.5-0.67,27.83-1.17
		c1.33-0.33,1.83-0.83,2.17-2.17c0.83-3.17,1.33-9.67,1.33-17.67c0-24.83-12.67-55.33-49-55.33c-35.83,0-56.17,32.17-56.17,71.5
		C221.39,260.42,237.89,292.92,281.89,292.92z M276.39,177.08c17.33,0,21.67,16.67,21.67,25.67c0,0.83-0.33,1.67-0.33,2.83
		c-0.83,0.33-3.83,0.33-12.33,0.33h-33.5C253.56,191.08,260.39,177.08,276.39,177.08z"/>
	<path class="st0" d="M158.89,107.08h-35c-0.83,0-1.33,0.5-1.33,1.67c-0.33,8.33-0.83,10.67-1.67,13.67l-47.33,165.5
		c-0.33,2,0,2.5,1.67,2.5h24.5c1.67,0,2.17-0.5,2.5-1.83l13.17-49.83v0h53.5l13.67,50c0.33,1.17,1.17,1.67,2.5,1.67h27.5
		c1.33,0,1.67-0.83,1.33-2.17l-53-179.5C160.56,107.42,160.06,107.08,158.89,107.08z M122.22,211.75c6.83-25.83,16-58.83,19.5-78.33
		h0.33c4.17,19.5,15.5,59.83,20.17,78.33H122.22z"/>
</g>
</svg>
