<?xml version="1.0" encoding="utf-8"?>
<!-- Generator: Adobe Illustrator 25.0.0, SVG Export Plug-In . SVG Version: 6.00 Build 0)  -->
<svg version="1.1" id="Layer_1" xmlns="http://www.w3.org/2000/svg" xmlns:xlink="http://www.w3.org/1999/xlink" x="0px" y="0px"
	 viewBox="0 0 400 400" style="enable-background:new 0 0 400 400;" xml:space="preserve">
<style type="text/css">
	.st0{fill:#00005B;}
	.st1{fill:#9797FD;}
</style>
<g>
	<g>
		<polygon class="st0" points="200,0 200,32.32 367.68,32.32 367.68,367.68 200,367.68 200,400 400,400 400,0 		"/>
		<polygon class="st1" points="32.32,367.68 32.32,32.32 200,32.32 200,0 0,0 0,400 200,400 200,367.68 		"/>
	</g>
	<g>
		<path class="st1" d="M277.56,152.75c-35.83,0-56.17,32.17-56.17,71.5c0,36.17,16.5,68.67,60.5,68.67c13.67,0,24.67-2,33.5-6.33
			c1.17-0.83,1.67-1.67,1.67-3.33v-20.83c0-1.5-0.83-1.67-2-1.17c-8.83,3.83-17.33,5.17-27.17,5.17
			c-25.21,0-35.89-15.02-36.32-37.33h43.66c14.67,0,24.5-0.67,27.83-1.17c1.33-0.33,1.83-0.83,2.17-2.17
			c0.83-3.17,1.33-9.67,1.33-17.67C326.56,183.25,313.89,152.75,277.56,152.75z M297.72,205.58c-0.83,0.33-3.83,0.33-12.33,0.33
			h-33.5c1.67-14.83,8.5-28.83,24.5-28.83c17.33,0,21.67,16.67,21.67,25.67C298.06,203.58,297.72,204.42,297.72,205.58z"/>
		<path class="st1" d="M160.89,108.75c-0.33-1.33-0.83-1.67-2-1.67h-35c-0.83,0-1.33,0.5-1.33,1.67
			c-0.33,8.33-0.83,10.67-1.67,13.67l-47.33,165.5c-0.33,2,0,2.5,1.67,2.5h24.5c1.67,0,2.17-0.5,2.5-1.83l13.17-49.83v0h53.5
			l13.67,50c0.33,1.17,1.17,1.67,2.5,1.67h27.5c1.33,0,1.67-0.83,1.33-2.17L160.89,108.75z M122.22,211.75
			c6.83-25.83,16-58.83,19.5-78.33h0.33c4.17,19.5,15.5,59.83,20.17,78.33H122.22z"/>
	</g>
</g>
</svg>
