<?xml version="1.0" encoding="utf-8"?>
<!-- Generator: Adobe Illustrator 25.0.0, SVG Export Plug-In . SVG Version: 6.00 Build 0)  -->
<svg version="1.1" id="Layer_1" xmlns="http://www.w3.org/2000/svg" xmlns:xlink="http://www.w3.org/1999/xlink" x="0px" y="0px"
	 viewBox="0 0 400 400" style="enable-background:new 0 0 400 400;" xml:space="preserve">
<style type="text/css">
	.st0{fill:#FF9900;}
</style>
<g>
	<path class="st0" d="M200,0H0v400h200h200V0H200z M367.68,367.68H200H32.32V32.32H200h167.68V367.68z"/>
	<path class="st0" d="M294.64,158.67h-26.17c-1.5,0-2,0.67-2,2h0.17V292c0,1.33,0.5,2.17,2.17,2.17h25.83c1.67,0,2-0.67,2-2v-131.5
		C296.64,159.17,295.97,158.67,294.64,158.67z"/>
	<path class="st0" d="M281.31,139.83c10.17,0,17.33-6,17.33-17c0-10.17-6.83-17-17-17c-9.5,0-17,6.33-17,17
		C264.64,133.83,271.64,139.83,281.31,139.83z"/>
	<path class="st0" d="M186.81,110.5h-35c-0.83,0-1.33,0.5-1.33,1.67c-0.33,8.17-0.83,10.83-1.67,13.83l-47.33,165.67
		c-0.33,2,0,2.5,1.67,2.5h24.5c1.67,0,2.17-0.33,2.5-1.67l13.17-50h53.33l13.67,50.17c0.33,1.17,1.17,1.5,2.5,1.5h27.67
		c1.33,0,1.67-0.83,1.33-2.17l-53-179.83C188.47,110.83,187.97,110.5,186.81,110.5z M150.14,215.5c7-25.83,15.83-58.83,19.33-78.33
		h0.33c4.17,19.5,15.17,59.83,19.83,78.33H150.14z"/>
</g>
</svg>
