<?xml version="1.0" encoding="utf-8"?>
<!-- Generator: Adobe Illustrator 25.0.0, SVG Export Plug-In . SVG Version: 6.00 Build 0)  -->
<svg version="1.1" id="Layer_1" xmlns="http://www.w3.org/2000/svg" xmlns:xlink="http://www.w3.org/1999/xlink" x="0px" y="0px"
	 viewBox="0 0 400 400" style="enable-background:new 0 0 400 400;" xml:space="preserve">
<style type="text/css">
	.st0{fill:#EB4B4D;}
	.st1{fill:#CCCCCC;}
	.st2{fill:#fff;}
</style>
<g>
	<g>
		<path class="st0" d="M13.1,142.8c0-17.6,11.3-27.8,24.7-27.8c6.8,0,12.2,3.2,15.6,6.8l-5.6,6.8c-2.7-2.6-5.8-4.5-9.8-4.5
			C30,124.1,24,131,24,142.4C24,154,29.4,161,37.9,161c4.5,0,8.1-2.2,11-5.3l5.6,6.6c-4.4,5.1-10.1,7.8-17,7.8
			C24,170.2,13.1,160.5,13.1,142.8z"/>
		<path class="st0" d="M61.4,145.2v-29.3H72v30.2c0,11.1,3.8,14.8,10.1,14.8c6.3,0,10.4-3.7,10.4-14.8v-30.2h10.2v29.3
			c0,17.7-7.6,25-20.6,25C69.1,170.2,61.4,162.9,61.4,145.2z"/>
		<path class="st0" d="M115.5,115.9h17.6c10.9,0,19.3,3.2,19.3,13.1c0,4.9-2.7,9.9-7.3,11.5v0.4c5.8,1.4,10,5.4,10,12.6
			c0,10.7-8.9,15.7-20.6,15.7h-19V115.9z M132.3,137.6c6.8,0,9.7-2.7,9.7-7c0-4.7-3.2-6.5-9.6-6.5h-6.3v13.5H132.3z M133.5,161
			c7.3,0,11.2-2.6,11.2-8.1c0-5.2-3.9-7.3-11.2-7.3h-7.4V161H133.5z"/>
		<path class="st0" d="M164.5,115.9h32.7v8.8h-22v12.3h18.7v8.9h-18.7v14.2h22.8v8.9h-33.5V115.9z"/>
		<path class="st0" d="M237.7,169.2L226.8,149h-7.4v20.1h-10.6v-53.2h18.6c11.2,0,20,3.9,20,16.1c0,8-4,12.9-10.1,15.3l12.4,21.8
			H237.7z M219.4,140.6h6.9c6.8,0,10.6-2.9,10.6-8.6c0-5.8-3.7-7.7-10.6-7.7h-6.9V140.6z"/>
		<path class="st0" d="M255.1,142.3c0-17.3,9.7-27.4,23.8-27.4c14.1,0,23.8,10.1,23.8,27.4c0,17.3-9.7,27.8-23.8,27.8
			C264.8,170.2,255.1,159.6,255.1,142.3z M291.9,142.3c0-11.4-5-18.3-13-18.3s-13,6.8-13,18.3c0,11.4,5,18.6,13,18.6
			S291.9,153.7,291.9,142.3z"/>
		<path class="st0" d="M313.2,115.9h10.6v44.3h21.6v8.9h-32.2V115.9z"/>
		<path class="st0" d="M354.7,115.9h10.6v44.3h21.6v8.9h-32.2V115.9z"/>
	</g>
	<g>
		<path class="st1" d="M112.6,191.8c0-5,1.4-9.1,3.8-13l1.8,0.8c-2.2,3.7-3.2,7.9-3.2,12.2c0,4.3,1,8.5,3.2,12.2l-1.8,0.8
			C114,200.9,112.6,196.8,112.6,191.8z"/>
		<path class="st1" d="M119.9,181.1h3l1.7,9.7l1,6h0.1c0.4-2,0.8-4,1.3-6l2.4-9.7h2.6l2.4,9.7c0.4,2,0.8,4,1.3,6h0.1
			c0.3-2,0.6-4,0.9-6l1.8-9.7h2.8l-3.7,18.7h-3.6l-2.5-10.4c-0.3-1.5-0.6-2.9-0.9-4.3h-0.1c-0.3,1.4-0.6,2.8-0.9,4.3l-2.5,10.4h-3.5
			L119.9,181.1z"/>
		<path class="st1" d="M143.2,192.8c0-4.7,3.1-7.4,6.6-7.4c3.4,0,6.6,2.7,6.6,7.4c0,4.6-3.1,7.3-6.6,7.3
			C146.3,200,143.2,197.4,143.2,192.8z M153.4,192.8c0-3-1.4-4.9-3.6-4.9c-2.2,0-3.5,2-3.5,4.9c0,2.9,1.4,4.9,3.5,4.9
			C152,197.7,153.4,195.7,153.4,192.8z"/>
		<path class="st1" d="M159.8,185.8h2.4l0.2,2.5h0.1c1-1.8,2.5-2.9,4-2.9c0.7,0,1.1,0.1,1.6,0.3l-0.5,2.5c-0.5-0.2-0.8-0.2-1.4-0.2
			c-1.1,0-2.5,0.8-3.4,3v8.7h-2.9V185.8z"/>
		<path class="st1" d="M170.1,179.5h2.8v13h0.1l5.5-6.8h3.2l-4.7,5.7l5.3,8.3h-3.2l-3.8-6.3l-2.4,2.7v3.6h-2.8V179.5z"/>
		<path class="st1" d="M184.3,181.4c0-1,0.8-1.7,1.9-1.7c1.1,0,1.9,0.7,1.9,1.7c0,1-0.8,1.7-1.9,1.7
			C185.1,183.2,184.3,182.4,184.3,181.4z M184.7,185.8h2.9v13.9h-2.9V185.8z"/>
		<path class="st1" d="M192,185.8h2.4l0.2,1.9h0.1c1.3-1.2,2.7-2.3,4.6-2.3c3,0,4.3,2,4.3,5.5v8.8h-2.9v-8.4c0-2.4-0.7-3.4-2.4-3.4
			c-1.3,0-2.2,0.7-3.4,1.9v9.9H192V185.8z"/>
		<path class="st1" d="M206.8,202.3c0-1.2,0.7-2.3,2-3v-0.1c-0.7-0.4-1.3-1.2-1.3-2.3c0-1.1,0.8-2,1.5-2.6v-0.1
			c-0.9-0.7-1.8-2.1-1.8-3.7c0-3.2,2.5-5,5.4-5c0.8,0,1.5,0.2,2,0.4h4.9v2.2H217c0.5,0.6,0.9,1.5,0.9,2.6c0,3-2.3,4.8-5.2,4.8
			c-0.6,0-1.3-0.2-2-0.4c-0.5,0.4-0.8,0.8-0.8,1.5c0,0.8,0.6,1.4,2.3,1.4h2.6c3.3,0,5,1,5,3.4c0,2.7-2.8,4.9-7.3,4.9
			C209.2,206,206.8,204.7,206.8,202.3z M217.1,201.6c0-1.2-0.9-1.5-2.6-1.5h-2.1c-0.7,0-1.3-0.1-1.9-0.2c-0.8,0.6-1.2,1.3-1.2,2
			c0,1.4,1.4,2.2,3.7,2.2C215.5,204.1,217.1,202.9,217.1,201.6z M215.3,190.4c0-1.9-1.2-3-2.6-3s-2.6,1.1-2.6,3c0,1.9,1.2,3,2.6,3
			S215.3,192.3,215.3,190.4z"/>
		<path class="st1" d="M232.2,183.5h-5.5v-2.5h13.9v2.5h-5.5v16.2h-2.9V183.5z"/>
		<path class="st1" d="M243.2,181.4c0-1,0.8-1.7,1.9-1.7c1.1,0,1.9,0.7,1.9,1.7c0,1-0.8,1.7-1.9,1.7
			C244,183.2,243.2,182.4,243.2,181.4z M243.6,185.8h2.9v13.9h-2.9V185.8z"/>
		<path class="st1" d="M251.4,195.2v-7h-2v-2.2l2.2-0.2l0.3-3.9h2.5v3.9h3.6v2.3h-3.6v7.1c0,1.7,0.6,2.5,2,2.5
			c0.5,0,1.1-0.2,1.5-0.3l0.5,2.2c-0.8,0.3-1.7,0.5-2.7,0.5C252.5,200,251.4,198.1,251.4,195.2z"/>
		<path class="st1" d="M261,196.4v-16.9h2.9v17.1c0,0.8,0.4,1.1,0.7,1.1c0.1,0,0.2,0,0.5-0.1l0.4,2.2c-0.4,0.1-0.9,0.2-1.6,0.2
			C261.7,200,261,198.7,261,196.4z"/>
		<path class="st1" d="M267.5,192.8c0-4.5,3.1-7.4,6.4-7.4c3.7,0,5.7,2.7,5.7,6.6c0,0.6-0.1,1.1-0.1,1.5h-9.1
			c0.2,2.7,1.9,4.3,4.3,4.3c1.2,0,2.3-0.4,3.3-1l1,1.9c-1.3,0.9-2.9,1.5-4.7,1.5C270.5,200,267.5,197.4,267.5,192.8z M277.1,191.5
			c0-2.4-1.1-3.8-3.1-3.8c-1.7,0-3.3,1.3-3.6,3.8H277.1z"/>
		<path class="st1" d="M281.8,203.9c2.2-3.6,3.2-7.9,3.2-12.2c0-4.2-1-8.5-3.2-12.2l1.8-0.8c2.4,3.8,3.8,8,3.8,13
			c0,5-1.4,9.1-3.8,13L281.8,203.9z"/>
	</g>
	<g>
		<path class="st2" d="M57.2,240.1H63l12,21.2l3.8,7.7H79c-0.3-3.7-0.7-8.1-0.7-12v-16.9h5.4v36.2h-5.8l-12-21.3l-3.8-7.6h-0.2
			c0.3,3.7,0.7,7.9,0.7,11.8v17.1h-5.4V240.1z"/>
		<path class="st2" d="M109.9,265.9H97.4l-3.1,10.3h-5.8l12-36.2h6.6l12,36.2h-6L109.9,265.9z M108.6,261.4l-1.4-4.9
			c-1.2-3.9-2.3-8-3.4-12h-0.2c-1,4.1-2.2,8.1-3.3,12l-1.5,4.9H108.6z"/>
		<path class="st2" d="M127.8,244.8h-10.6v-4.8h27v4.8h-10.7v31.4h-5.7V244.8z"/>
		<path class="st2" d="M150.4,240.1h5.7v36.2h-5.7V240.1z"/>
		<path class="st2" d="M160.8,240.1h6l5.4,18.7c1.2,4.1,2,7.7,3.3,11.8h0.2c1.2-4.2,2.1-7.7,3.3-11.8l5.4-18.7h5.8l-11.3,36.2h-6.7
			L160.8,240.1z"/>
		<path class="st2" d="M194.8,240.1h21.4v4.8h-15.7v10.1h13.3v4.8h-13.3v11.7h16.2v4.8h-21.9V240.1z"/>
		<path class="st2" d="M233.8,237h3.9l-13.7,48.1h-3.9L233.8,237z"/>
		<path class="st2" d="M239.8,240.1h5.9l3.4,18.8l1.9,11.6h0.2c0.8-3.9,1.6-7.8,2.5-11.6l4.7-18.8h5l4.7,18.8
			c0.8,3.8,1.6,7.7,2.5,11.6h0.2c0.6-3.9,1.2-7.8,1.8-11.6l3.4-18.8h5.5l-7.1,36.2h-7l-4.9-20.1c-0.6-2.9-1.2-5.6-1.7-8.3h-0.2
			c-0.5,2.8-1.1,5.5-1.7,8.3l-4.8,20.1h-6.9L239.8,240.1z"/>
		<path class="st2" d="M287.4,240.1h21.4v4.8h-15.7v10.1h13.3v4.8h-13.3v11.7h16.2v4.8h-21.9V240.1z"/>
		<path class="st2" d="M316.9,240.1h11.2c7.4,0,12.8,2.4,12.8,8.9c0,3.4-1.9,6.7-5.2,7.8v0.2c4.1,0.9,7.1,3.7,7.1,8.6
			c0,7.2-5.8,10.6-13.9,10.6h-12.1V240.1z M327.5,255.2c5.5,0,7.8-2.1,7.8-5.5c0-3.8-2.6-5.2-7.7-5.2h-5v10.7H327.5z M328.3,271.8
			c5.7,0,8.9-2,8.9-6.4c0-4.1-3.1-5.8-8.9-5.8h-5.8v12.3H328.3z"/>
	</g>
</g>
</svg>
