<?xml version="1.0" encoding="utf-8"?>
<!-- Generator: Adobe Illustrator 25.0.0, SVG Export Plug-In . SVG Version: 6.00 Build 0)  -->
<svg version="1.1" id="Layer_1" xmlns="http://www.w3.org/2000/svg" xmlns:xlink="http://www.w3.org/1999/xlink" x="0px" y="0px"
	 viewBox="0 0 400 400" style="enable-background:new 0 0 400 400;" xml:space="preserve">
<style type="text/css">
	.st0{fill:#FFFFFF;}
	.st1{fill:#00A0E8;}
</style>
<g>
	<g>
		<path class="st0" d="M80.6,47.2c0.3,0.1,0.5,0,0.8-0.3c0.3-0.2,0.4-0.4,0.5-0.7c0.1-0.3,0-0.5-0.1-0.8c-4.7-4.2-4.1-8.2,1.7-11.9
			c0.2-0.3,0.3-0.6,0.2-0.8c0-0.3-0.1-0.6-0.3-0.8c-0.3-0.2-0.6-0.3-0.9-0.3c-0.3,0-0.5,0.1-0.7,0.3c-6.6,4.8-7.3,9.9-2,15.1
			C80,47.1,80.3,47.2,80.6,47.2z"/>
		<path class="st0" d="M161.1,122.2c0.1,0,0.1,0,0.2,0c0.1-0.1,0.1-0.1,0.2-0.2c0-0.1,0-0.1,0.1-0.2c0-0.1,0-0.1,0-0.2
			c-0.6-0.4-0.8-1-0.8-1.7l-0.2-4.1c-0.2-0.3-0.3-0.3-0.5-0.1l0,4.4C160.1,120.9,160.4,121.6,161.1,122.2z"/>
		<path class="st0" d="M84.2,135.9c-1.7,0-3.1,0.3-4.3,1.1c-1.3,0.9-2.1,2-2.5,3.3c-0.4,1.1-0.5,2.3-0.3,3.5
			c0.2,1.2,0.6,2.3,1.3,3.2c0.8,1.1,1.8,1.9,3.1,2.5l59-0.4c1.8-0.8,3-2,3.8-3.6c0.8-1.8,0.8-3.7,0.2-5.5c-0.4-1-1-2-1.8-2.8
			c-0.7-0.6-1.6-1.1-2.7-1.4c-0.9-0.2-1.8-0.2-2.6-0.2c-0.1,0-0.2,0-0.3,0c-1,0-2.1-0.2-3.1-0.4c-1-0.3-1.9-0.8-2.8-1.5
			c-0.6-0.6-1.1-1.4-1.4-2.4c-0.3-0.9-0.6-2-0.7-3.2c-0.1-0.6-0.2-1.3-0.2-2.1l-0.1-2.2l-0.2-28c-0.7-0.4-1.4-0.7-2.1-0.6
			c-1.8,0-3.1,1-3.9,3.1c-0.2,0.9-0.6,1.7-1.4,2.2c-0.7,0.6-1.6,0.9-2.6,0.9c-1.9,0-3.3-1-4-3.1c0-0.9-0.4-1.6-1.3-2.2
			c-0.8-0.4-1.6-0.4-2.4,0c-0.8,0.6-1.2,1.4-1.2,2.2c0.1,1.3-0.4,2.3-1.5,3.1c-1.2,0.7-2.4,0.7-3.6,0c-1.1-0.7-1.6-1.7-1.5-3l0-6.7
			c-0.5-1.6-1.4-2.4-2.8-2.4c-0.7,0-1.3,0.2-1.8,0.7c-0.5,0.4-0.8,1-1,1.7c-0.8,1.4-1.9,2.1-3.5,2.1c-0.5,0-1-0.1-1.6-0.3l0.2,30.6
			c0,2.4-0.1,4.4-0.4,5.9c-0.4,1.8-1,3.1-1.9,4c-0.9,0.8-1.9,1.4-3,1.6C86.4,135.8,85.3,135.9,84.2,135.9z"/>
		<path class="st0" d="M118.4,100.1c0.1,0.1,0.3,0.1,0.6,0.1c0.3,0,0.5,0,0.7-0.1c0.3,0,0.5-0.1,0.6-0.2c0.2-0.1,0.2-0.2,0.1-0.3
			c-0.1-0.1-0.4-0.2-0.9-0.2c-0.4,0-0.9-0.1-1.5-0.2c-0.5-0.1-1-0.4-1.4-0.7c-0.5-0.4-0.8-1.1-0.9-2l-0.1,0c0-0.1,0-0.1-0.1-0.1
			c-0.1,0-0.2,0-0.2,0.1c-0.1,0.1-0.1,0.1-0.2,0.2c0,0.8,0.3,1.5,0.8,2.2C116.6,99.6,117.4,100,118.4,100.1z"/>
		<path class="st0" d="M105.2,100.3c0.1,0,0.2,0,0.3,0c0.1,0,0.1-0.1,0.2-0.2c0.1-0.1,0.1-0.1,0.1-0.2c0-0.1,0-0.1-0.1-0.2
			c-0.5-0.5-0.8-1.2-0.8-1.8l-0.3-4.2c-0.1-0.3-0.2-0.4-0.4-0.1l0,4.5C104.2,99.1,104.6,99.8,105.2,100.3z"/>
		<path class="st0" d="M157.4,134.8c3.6,5.1,8.7,8.8,15.3,11.2c4,1.4,8.5,2.2,13.6,2.4c5.1,0.2,10-0.5,14.7-2
			c4.8-1.5,8.7-4,11.7-7.6c1.6-1.8,2.5-3.9,2.7-6.3c-0.2-2.4-1.2-4.1-3-5.2c-1.7-1-3.6-1.3-5.5-0.9c-1.9,0.5-3.4,1.9-4.3,4.1
			c-1.9,5.1-5.5,7.7-10.7,7.8c-2.8,0-5-0.6-6.6-1.8c-1.7-1.3-2.9-2.9-3.8-4.9c-0.9-2-1.5-4.1-1.9-6.5c-0.3-2.4-0.6-4.7-0.7-6.9
			c-0.9-0.3-1.8-0.3-2.6,0.2c-0.8,0.4-1.4,1.1-1.6,2c-0.3,1.3-0.9,2-1.9,2.3c-1,0.3-1.9,0.2-2.7-0.2c-0.9-0.4-1.4-1.1-1.5-2.1
			c-0.2-1-0.6-1.7-1.3-1.9c-0.6-0.2-1.2-0.2-1.8,0.2c-0.6,0.4-0.9,1-0.9,1.7c0,1.2-0.4,2-1.2,2.5c-0.9,0.4-1.8,0.4-2.7-0.1
			c-0.7-0.5-1-1.2-1.1-2c-0.1-0.8-0.1-1.8-0.1-2.8c0.1-0.9,0.1-1.9,0.1-3c-0.2-0.5-0.4-1-0.8-1.3c-0.4-0.4-0.9-0.6-1.4-0.6
			c-0.6,0-1,0.2-1.5,0.6c-0.4,0.3-0.6,0.8-0.7,1.3c-0.2,0.6-0.7,1-1.3,1.4c-0.7,0.3-1.4,0.4-2.2,0.3
			C151.7,123.7,153.8,129.7,157.4,134.8z"/>
		<path class="st0" d="M171.3,121.8c0.2,0,0.4,0,0.4,0c0.5,0,1-0.3,1.4-0.8c0.4-0.4,0.7-1,0.9-1.6l-0.1-0.1l-0.1,0
			c0,0.1,0,0.1-0.1,0.1c-0.2,0.6-0.5,1-0.8,1.2c-0.3,0.3-0.6,0.4-0.9,0.5c-0.3,0.1-0.5,0.1-0.7,0c-0.2,0-0.4,0-0.4,0.1
			c-0.1,0.1-0.1,0.2,0,0.3C171,121.7,171.1,121.7,171.3,121.8z"/>
		<path class="st0" d="M317.1,120.9c0.2,0,0.4,0,0.6,0c0.2,0,0.4-0.1,0.5-0.2c0.1-0.1,0.1-0.2,0-0.4c-0.1-0.1-0.3-0.1-0.6-0.1
			c-0.3,0.1-0.6,0.1-1,0c-0.4-0.1-0.8-0.3-1.2-0.6c-0.4-0.4-0.8-0.9-1.1-1.7l0-0.1l-0.1,0c-0.1,0-0.1,0-0.1,0c0,0,0,0.1,0,0.1
			c0.2,0.8,0.6,1.5,1.2,2.1C315.9,120.6,316.5,120.9,317.1,120.9z"/>
		<path class="st0" d="M379.9,121.7c-0.3,0.1-0.6,0-1,0c-0.4-0.1-0.7-0.3-1-0.6c-0.3-0.3-0.6-0.9-0.7-1.6c0-0.1-0.1-0.1-0.2-0.1
			l-0.1,0.1c-0.1,0-0.1,0-0.2,0.1c0.1,0.8,0.3,1.5,0.8,2.1c0.5,0.6,1,0.9,1.6,0.9c0.1,0,0.3,0,0.5,0c0.2,0,0.5-0.1,0.6-0.2
			c0.2-0.1,0.2-0.2,0.1-0.4c-0.1-0.1-0.1-0.1-0.2-0.1C380.2,121.7,380.1,121.7,379.9,121.7z"/>
		<path class="st0" d="M327.2,120.8c0.1,0.1,0.1,0.1,0.2,0.1c0.1,0,0.1,0,0.2,0c0.6-0.5,0.9-1.1,0.9-1.9l0-3.9
			c-0.2-0.3-0.3-0.2-0.4,0.1l-0.2,3.6c0,0.6-0.2,1.1-0.6,1.6c-0.1,0.1-0.1,0.1-0.1,0.1C327.1,120.7,327.1,120.7,327.2,120.8
			L327.2,120.8z"/>
		<path class="st0" d="M375,35.8c0.4,0.3,0.8,0.7,1.2,1.1c2.7,2.9,4.6,6.3,5.6,10.3c1,4,1.6,7.3,1.9,10c0.1,1.1,0.2,1.9,0.3,2.5
			c0.1,0.5,0.3,0.7,0.4,0.6c1.9-13.9-0.6-22-7.6-24.4c-1-0.3-1.7-0.5-2.1-0.6c-0.4-0.1-0.5-0.1-0.5,0
			C374.5,35.3,374.7,35.5,375,35.8z"/>
		<path class="st0" d="M321.9,145.2c4,2.8,9.4,4.1,16,4.1c4.7,0,8.8-1.1,12.2-3.1c3.4-2.1,6.5-4.9,9.4-8.4c0.5-0.6,1.1-0.8,1.7-0.7
			c0.6,0.1,1.1,0.5,1.4,1.1c1.6,4,4.4,6.6,8.2,7.8c3.9,1.2,7.6,0.6,11.2-1.7c2-1.5,3.5-3.5,4.5-5.9l-0.1-19.6
			c-0.9-0.3-1.8-0.2-2.6,0.2c-0.8,0.4-1.3,1-1.5,1.8c-0.4,1.2-1,2-1.9,2.2c-0.9,0.3-1.7,0.2-2.6-0.2c-0.8-0.4-1.3-1.1-1.5-2
			c-0.1-0.9-0.5-1.5-1.1-1.7c-0.6-0.2-1.2-0.1-1.7,0.2c-0.5,0.3-0.8,0.8-0.8,1.5c0,1.2-0.4,2-1.2,2.5c-0.8,0.4-1.6,0.4-2.5-0.1
			c-0.6-0.4-1-1.1-1.1-1.8c-0.1-0.8-0.2-1.7-0.1-2.7c0.1-0.9,0.1-1.9,0.1-2.8c-0.1-0.5-0.4-1-1-1.4c-0.6-0.4-1.1-0.4-1.8-0.3
			c-0.6,0.2-1.1,0.7-1.4,1.7c-0.2,0.6-0.6,1-1.2,1.3c-0.7,0.3-1.4,0.4-2.1,0.3c0,3.1-0.4,6.5-1.2,10c-0.8,3.6-2.3,6.3-4.7,8.3
			c-2.2,1.7-4.8,2.2-7.5,1.6c-2.8-0.7-5.1-2.8-6.9-6.3c-1.7-4.8-2.6-10.1-2.6-15.8c-0.8,0.2-1.6,0.2-2.3-0.1
			c-0.7-0.3-1.2-0.8-1.3-1.4c-0.4-1-0.9-1.6-1.6-1.7c-0.7-0.2-1.3-0.1-1.9,0.3c-0.6,0.4-0.9,0.8-0.9,1.5l0,5.3
			c0,1.3-0.4,2.1-1.3,2.6c-0.9,0.4-1.7,0.5-2.6,0c-0.9-0.4-1.3-1.3-1.2-2.6c0-0.7-0.3-1.3-0.9-1.6c-0.6-0.4-1.2-0.4-1.9-0.2
			c-0.6,0.2-1,0.8-1.2,1.8c-0.2,0.9-0.7,1.6-1.5,2.1c-0.9,0.5-1.7,0.6-2.7,0.3c-0.9-0.3-1.6-1.1-2-2.3c-0.3-0.9-0.8-1.5-1.7-2
			c-0.9-0.4-1.8-0.5-2.7-0.1c0.3,6.2,1.3,11.7,3.3,16.5C314.9,138.6,317.9,142.4,321.9,145.2z"/>
		<path class="st0" d="M233.8,122.4c0.4,0.6,1,0.9,1.6,0.9c0.1,0,0.3,0,0.5,0c0.2,0,0.4-0.1,0.6-0.2c0.1-0.1,0.1-0.2,0-0.4
			c-0.1-0.1-0.1-0.1-0.2-0.1c-0.1,0-0.2,0-0.4,0c-0.3,0.1-0.6,0-0.9,0c-0.4-0.1-0.7-0.3-1-0.6c-0.3-0.3-0.5-0.9-0.7-1.6l0-0.1
			l-0.1,0l-0.1,0l-0.1,0.1l0,0.1C233.1,121.1,233.4,121.8,233.8,122.4z"/>
		<path class="st0" d="M238.1,138.5c3.4,3.1,7.3,5.4,11.8,6.9c4.6,1.6,9.8,2.3,15.6,2.3c5.1,0,9.7-0.6,13.6-1.7
			c3.9-1.1,7.2-2.6,10-4.7c1.5-1.1,2.8-2.3,3.9-3.7c1.1-1.3,2.2-2.8,3-4.4c0.5-1.7,0.4-3.3-0.4-4.8c-0.7-1.5-1.9-2.5-3.7-3.2
			c-1.6-0.6-3.2-0.6-4.8,0c-1.5,0.6-2.6,1.7-3.4,3.2c-0.5,1.1-1,2.1-1.6,3c-0.7,0.9-1.4,1.8-2.1,2.5c-1.4,1.3-3,2.3-4.8,2.9
			c-1.8,0.6-3.7,0.9-5.7,0.9c-2.5,0-4.7-0.4-6.6-1.3c-2-0.9-3.7-2.2-5.1-3.9c-1.3-1.8-2.4-3.9-3.1-6.3c-0.6-2.3-0.9-4.9-1-7.9
			c-0.2,0-0.3,0-0.4,0c-0.1,0-0.2,0-0.4,0c-1.1,0-1.9-0.5-2.5-1.6c-0.1-0.5-0.4-0.9-0.8-1.2c-0.4-0.3-0.8-0.5-1.3-0.5
			c-1,0-1.6,0.6-2,1.7l0,4.9c0,0.4-0.1,0.9-0.3,1.3c-0.2,0.4-0.5,0.7-0.9,1c-0.8,0.6-1.6,0.6-2.5,0c-0.4-0.2-0.7-0.5-0.9-0.9
			c-0.2-0.4-0.3-0.8-0.3-1.3c0-0.7-0.3-1.2-0.9-1.6c-0.6-0.3-1.2-0.3-1.8,0c-0.6,0.3-0.9,0.9-0.8,1.6c-0.5,1.5-1.5,2.3-2.9,2.3
			c-1.4,0-2.4-0.8-3-2.3c-0.5-1.4-1.4-2.1-2.8-2.1c-0.3,0-0.7,0.1-1.1,0.2c0.4,2.8,1.1,5.3,2.1,7.7
			C232.3,131.7,234.8,135.4,238.1,138.5z"/>
		<path class="st0" d="M194.3,80.5c0.6,0.3,1.4,0.6,2.5,1.1c2.5,0.9,5.6,2.3,9.1,4.2c3.5,1.9,6.4,4.5,8.6,7.8c0.3,0.5,0.5,1,0.8,1.5
			c0.2,0.4,0.3,0.7,0.4,0.8c0.1,0.1,0.2,0,0.2-0.4c0-0.3-0.1-1-0.2-2.1c-0.6-7.3-7.8-11.8-21.7-13.4C193.6,80,193.7,80.2,194.3,80.5
			z"/>
		<path class="st0" d="M244.9,123.2c0.1,0,0.1,0,0.2,0c0.6-0.5,0.9-1.1,0.9-1.9l0-3.9c-0.1-0.2-0.1-0.2-0.2-0.2
			c-0.1,0-0.2,0.1-0.2,0.2l-0.2,3.7c0,0.6-0.2,1.1-0.6,1.6c-0.1,0.1-0.1,0.1-0.1,0.2c0,0.1,0,0.1,0.1,0.2
			C244.8,123.1,244.8,123.2,244.9,123.2z"/>
		<path class="st0" d="M279.2,84.3c0.4,0.2,0.9,0.4,1.4,0.6c3.5,1.8,6.3,4.4,8.6,7.8c2.2,3.3,3.9,6.2,5,8.7c0.6,1.1,1,1.9,1.3,2.4
			c0.3,0.5,0.5,0.6,0.6,0.4c-2.8-13.7-7.9-20.5-15.2-20.5c-1.2,0-1.9,0-2.3,0.1c-0.4,0-0.5,0.1-0.3,0.2
			C278.5,84,278.8,84.1,279.2,84.3z"/>
		<path class="st1" d="M78.3,49.1c1.7,0.5,3.3,0.8,5,1c1.9,0.2,3.2,0.6,4,1c0.3,0.3,0.6,1,0.8,2.1c0.3,1.3,0.4,3,0.4,5.1l0.5,65.7
			c0,2.1-0.1,3.9-0.4,5.2c-0.2,1-0.5,1.7-0.8,2.1c-0.5,0.4-1.1,0.6-1.7,0.8c-0.7,0.1-1.4,0.2-2.1,0.2c-2.1,0-4.3,0.6-6.3,1.8
			c-1.9,1.4-3.1,3.1-3.8,5.1c-0.6,1.8-0.7,3.5-0.5,5.3c0.3,1.8,0.9,3.4,1.9,4.9c1.2,1.7,2.9,3,5.1,3.8l0.7,0.1l59.5-0.4l0.7-0.1
			c2.9-1.2,4.9-3,6.1-5.6c1.2-2.8,1.4-5.6,0.4-8.4c-0.6-1.6-1.5-3-2.8-4.2c-1.2-1.1-2.6-1.9-4.3-2.3c-1.2-0.3-2.3-0.4-3.3-0.4
			c-0.8,0-1.5,0-2.1-0.2c-0.7-0.1-1.2-0.3-1.7-0.7c-0.2-0.2-0.3-0.5-0.5-1c-0.2-0.6-0.4-1.4-0.5-2.4l-0.2-1.8l-0.1-2.1L131.9,58
			c0-2.1,0.1-3.8,0.5-5.1c0.2-1,0.5-1.7,0.7-2.1c0.7-0.5,1.8-0.8,3.4-1l0.1,0c0.1,0,0.2,0,0.4-0.1c2.4-0.2,4.7-0.9,6.9-2.2
			c2.1-1.2,3.4-4,3.9-8.2l0-0.1c0-2.3-0.7-4.4-2.1-6.3c-1.2-1.8-2.9-3.1-5.1-3.9l-0.7-0.1l-59.5,0.4l-0.7,0.1
			c-2.1,0.8-3.9,2.2-5.2,4c-1.3,1.9-2,4.1-1.9,6.4c0,2.9,0.6,5.1,1.7,6.5C75.3,47.6,76.6,48.5,78.3,49.1z M115.3,96.5
			c0-0.1,0.1-0.1,0.2-0.1c0.1,0,0.1,0,0.1,0.1l0.1,0c0.1,0.9,0.4,1.5,0.9,2c0.4,0.4,0.9,0.6,1.4,0.7c0.6,0.2,1,0.2,1.5,0.2
			c0.5,0,0.8,0,0.9,0.2c0.1,0.2,0.1,0.3-0.1,0.3c-0.1,0.1-0.3,0.2-0.6,0.2c-0.2,0.1-0.5,0.1-0.7,0.1c-0.3,0-0.5,0-0.6-0.1
			c-1-0.1-1.8-0.5-2.4-1.2c-0.6-0.7-0.8-1.5-0.8-2.2C115.2,96.6,115.2,96.5,115.3,96.5z M104.6,93.7l0.3,4.2c0,0.7,0.3,1.3,0.8,1.8
			c0.1,0.1,0.1,0.1,0.1,0.2c0,0.1,0,0.1-0.1,0.2c-0.1,0.1-0.1,0.2-0.2,0.2c-0.1,0-0.2,0-0.3,0c-0.6-0.5-0.9-1.2-0.9-2.1l0-4.5
			C104.4,93.4,104.5,93.4,104.6,93.7z M92.3,129.9c0.3-1.5,0.4-3.5,0.4-5.9l-0.2-30.6c0.6,0.2,1.1,0.3,1.6,0.3
			c1.5,0,2.7-0.7,3.5-2.1c0.2-0.7,0.5-1.3,1-1.7c0.5-0.4,1.2-0.7,1.8-0.7c1.4,0,2.4,0.8,2.8,2.4l0,6.7c0,1.3,0.5,2.3,1.5,3
			c1.2,0.7,2.3,0.7,3.6,0c1.1-0.7,1.6-1.7,1.5-3.1c0-0.9,0.4-1.6,1.2-2.2c0.8-0.4,1.6-0.5,2.4,0c0.8,0.6,1.2,1.3,1.3,2.2
			c0.7,2.1,2.1,3.1,4,3.1c1,0,1.8-0.3,2.6-0.9c0.8-0.6,1.2-1.3,1.4-2.2c0.8-2,2.1-3.1,3.9-3.1c0.7,0,1.4,0.2,2.1,0.6l0.2,28l0.1,2.2
			c0,0.8,0.1,1.5,0.2,2.1c0.1,1.3,0.3,2.3,0.7,3.2c0.3,1,0.8,1.8,1.4,2.4c0.9,0.8,1.8,1.3,2.8,1.5c1,0.2,2,0.3,3.1,0.4
			c0.1,0,0.2,0,0.3,0c0.9,0,1.8,0.1,2.6,0.2c1,0.3,1.9,0.8,2.7,1.4c0.8,0.8,1.4,1.8,1.8,2.8c0.6,1.9,0.5,3.7-0.2,5.5
			c-0.8,1.6-2,2.8-3.8,3.6l-59,0.4c-1.3-0.5-2.3-1.4-3.1-2.5c-0.7-0.9-1.1-2-1.3-3.2c-0.2-1.2-0.1-2.4,0.3-3.5
			c0.4-1.3,1.3-2.4,2.5-3.3c1.2-0.8,2.6-1.1,4.3-1.1c1.2,0,2.3-0.2,3.3-0.4c1-0.2,2-0.8,3-1.6C91.3,133.1,91.9,131.7,92.3,129.9z
			 M81.8,31.7c0.2-0.2,0.5-0.3,0.7-0.3c0.3,0,0.6,0.1,0.9,0.3c0.2,0.2,0.3,0.5,0.3,0.8c0.1,0.3,0,0.6-0.2,0.8
			c-5.9,3.7-6.4,7.7-1.7,11.9c0.1,0.3,0.1,0.5,0.1,0.8c-0.1,0.3-0.2,0.6-0.5,0.7c-0.3,0.2-0.5,0.3-0.8,0.3c-0.3,0-0.6-0.1-0.8-0.3
			C74.5,41.6,75.2,36.6,81.8,31.7z"/>
		<path class="st1" d="M153.6,135.5c4,6.4,10,11.1,17.9,13.9c6.3,2.2,13.3,3,21,2.4c7.7-0.6,14.2-3,19.6-7.3l3.4-3.4
			c1-1.3,1.9-2.7,2.5-4.1c1.4-3.2,1.2-6.3-0.5-9.2c-1.6-2.6-3.7-4.2-6.3-4.8c-2.5-0.6-5-0.3-7.3,0.9c-2.4,1.1-4,3-4.9,5.6
			c-1.6,3.5-3.9,5.3-7.1,5.3c-3.1,0.1-5.5-1.4-7.2-4.3c-1.5-3.5-2.4-8.1-2.6-13.9c-0.2-5.8,0-10.5,0.6-14.3c0.4-3.4,1.3-6.1,2.7-8
			c1.4-1.9,3.9-2.9,7.3-2.9c2.6,0,4.6,0.8,6.1,2.6c1.5,1.8,2.6,3.9,3.2,6.3l0.5,0.7c1.8,1.8,4,2.8,6.4,3c3.9,0.1,6.9-1.2,9-3.9
			c2.1-2.8,2.6-5.9,1.6-9.3c-2.2-5.7-6.2-9.8-11.9-12.3c-5.7-2.5-11.9-3.8-18.6-3.8c-6.7,0-12.5,0.9-17.6,2.7c-8,2.9-14,7.6-18.1,14
			c-4,6.4-5.9,13.8-5.9,22.2C147.5,121.7,149.5,129.1,153.6,135.5z M193.9,79.9c13.9,1.6,21.1,6.1,21.7,13.4
			c0.1,1.1,0.2,1.8,0.2,2.1c0,0.4-0.1,0.5-0.2,0.4c-0.1-0.2-0.3-0.4-0.4-0.8c-0.2-0.4-0.5-0.9-0.8-1.5c-2.2-3.3-5-5.9-8.6-7.8
			c-3.5-1.9-6.6-3.3-9.1-4.2c-1.1-0.4-1.9-0.8-2.5-1.1C193.7,80.2,193.6,80,193.9,79.9z M170.9,121.3c0.1-0.1,0.2-0.1,0.4-0.1
			c0.2,0.1,0.5,0.1,0.7,0c0.3-0.1,0.6-0.2,0.9-0.5c0.3-0.2,0.6-0.6,0.8-1.2c0.1,0,0.1,0,0.1-0.1l0.1,0l0.1,0.1
			c-0.2,0.6-0.5,1.1-0.9,1.6c-0.4,0.5-0.9,0.7-1.4,0.8c-0.1,0-0.2,0-0.4,0c-0.2-0.1-0.3-0.1-0.4-0.2
			C170.8,121.5,170.8,121.4,170.9,121.3z M160.5,115.7l0.2,4.1c0,0.7,0.3,1.3,0.8,1.7c0,0.1,0,0.2,0,0.2c-0.1,0.1-0.1,0.1-0.1,0.2
			c-0.1,0.1-0.1,0.1-0.2,0.2c-0.1,0-0.1,0-0.2,0c-0.7-0.5-1.1-1.3-1.1-2.1l0-4.4C160.2,115.4,160.3,115.5,160.5,115.7z M153.4,116.5
			c0.7-0.4,1.1-0.9,1.3-1.4c0.1-0.6,0.4-1,0.7-1.3c0.4-0.4,0.9-0.6,1.5-0.6c0.5,0,1,0.2,1.4,0.6c0.4,0.3,0.7,0.8,0.8,1.3
			c0.1,1,0,2-0.1,3c0,1,0,2,0.1,2.8c0.1,0.8,0.4,1.5,1.1,2c0.9,0.5,1.8,0.5,2.7,0.1c0.8-0.4,1.2-1.3,1.2-2.5c0-0.8,0.3-1.3,0.9-1.7
			c0.6-0.3,1.2-0.4,1.8-0.2c0.7,0.2,1.1,0.8,1.3,1.9c0.1,0.9,0.6,1.6,1.5,2.1c0.8,0.4,1.7,0.5,2.7,0.2c0.9-0.3,1.6-1.1,1.9-2.3
			c0.3-0.9,0.8-1.5,1.6-2c0.8-0.4,1.7-0.5,2.6-0.2c0.1,2.3,0.4,4.6,0.7,6.9c0.4,2.4,1.1,4.5,1.9,6.5c0.9,2,2.2,3.7,3.8,4.9
			c1.7,1.2,3.9,1.8,6.6,1.8c5.2,0,8.8-2.6,10.7-7.8c1-2.2,2.4-3.6,4.3-4.1c2-0.5,3.8-0.2,5.5,0.9c1.8,1.1,2.8,2.8,3,5.2
			c-0.1,2.4-1,4.5-2.7,6.3c-3,3.6-6.9,6.1-11.7,7.6c-4.7,1.5-9.6,2.2-14.7,2c-5.1-0.2-9.6-1-13.6-2.4c-6.6-2.4-11.7-6.1-15.3-11.2
			c-3.7-5.1-5.7-11.1-6.2-18C152,116.9,152.8,116.9,153.4,116.5z"/>
		<path class="st1" d="M235.7,141.1c3.7,3.4,8.1,5.9,13,7.7c5,1.7,10.6,2.5,16.9,2.4c5.4,0,10.2-0.6,14.5-1.8
			c4.3-1.1,8-2.9,11.3-5.2c1.6-1.3,3.1-2.7,4.5-4.2c1.4-1.6,2.5-3.3,3.5-5.2l0.2-0.3c0.8-2.7,0.5-5.2-0.6-7.6
			c-1.2-2.4-3-4.1-5.6-5.2c-2.6-0.9-5-0.8-7.3,0.1c-2.4,1-4.2,2.7-5.4,5.1l-0.1,0.1c-0.3,0.8-0.7,1.6-1.2,2.3
			c-0.5,0.7-1,1.4-1.6,1.9c-1,0.9-2.2,1.6-3.5,2.1c-1.3,0.5-2.8,0.8-4.5,0.8c-2,0-3.7-0.3-5.2-1c-1.4-0.7-2.7-1.6-3.7-2.9
			c-1.1-1.3-1.9-3-2.4-5c-0.5-1.9-0.8-4.2-1-6.8l35.5-0.2l0.3,0c2.5-0.5,4.6-1.7,6.3-3.4c1.7-1.7,2.7-3.8,3.1-6.4l0-0.4
			c-0.5-5-1.5-9.5-3.1-13.4c-1.7-4-3.9-7.5-6.7-10.4c-3.4-3.5-7.4-6.1-12.2-7.8c-4.7-1.7-10.1-2.5-16-2.4c-6.2,0-11.7,0.9-16.6,2.7
			c-4.9,1.8-9.2,4.4-12.8,7.9c-3.7,3.6-6.5,7.8-8.3,12.5c-1.8,4.7-2.7,9.9-2.6,15.7c0,5.9,1,11.3,2.8,15.9
			C229.2,133.5,232,137.6,235.7,141.1z M278.7,83.7c0.4,0,1.1,0,2.3-0.1c7.3-0.1,12.3,6.8,15.2,20.5c-0.1,0.3-0.3,0.2-0.6-0.4
			c-0.3-0.5-0.7-1.3-1.3-2.4c-1.1-2.5-2.8-5.4-5-8.7c-2.2-3.3-5.1-5.9-8.6-7.8c-0.5-0.2-1-0.4-1.4-0.6c-0.4-0.2-0.7-0.3-0.9-0.4
			C278.2,83.8,278.3,83.8,278.7,83.7z M258.1,98c0.3-1.7,0.9-3.1,1.6-4.2c0.8-1.1,1.6-1.9,2.6-2.4c1-0.5,2.3-0.8,3.6-0.8
			c1.4,0,2.7,0.2,3.8,0.6c1,0.5,1.9,1.3,2.7,2.2c0.8,1,1.4,2.3,1.8,3.9c0.4,1.4,0.6,3,0.6,4.8l-17.3,0.1
			C257.6,100.6,257.8,99.2,258.1,98z M244.7,122.7c0.4-0.4,0.6-1,0.6-1.6l0.2-3.7c0.1-0.1,0.1-0.2,0.2-0.2c0.1,0,0.2,0,0.2,0.2
			l0,3.9c0,0.8-0.3,1.4-0.9,1.9c-0.1,0-0.1,0-0.2,0c-0.1,0-0.1-0.1-0.2-0.1c-0.1-0.1-0.1-0.1-0.1-0.2
			C244.6,122.8,244.7,122.8,244.7,122.7z M233.1,120.2L233.1,120.2l0.2,0l0,0.1c0.2,0.8,0.4,1.3,0.7,1.6c0.3,0.3,0.6,0.5,1,0.6
			c0.4,0.1,0.7,0.1,0.9,0c0.2,0,0.3,0,0.4,0c0.1,0,0.2,0.1,0.2,0.1c0.1,0.2,0.1,0.3,0,0.4c-0.1,0.1-0.3,0.1-0.6,0.2
			c-0.2,0-0.4,0-0.5,0c-0.7,0-1.2-0.3-1.6-0.9c-0.4-0.6-0.7-1.3-0.7-2.1L233.1,120.2L233.1,120.2z M229.7,119.6
			c1.4,0,2.3,0.7,2.8,2.1c0.6,1.5,1.6,2.3,3,2.3c1.4,0,2.3-0.8,2.9-2.3c-0.1-0.7,0.2-1.2,0.8-1.6c0.7-0.3,1.3-0.3,1.8,0
			c0.6,0.4,0.9,0.9,0.9,1.6c0,0.4,0.1,0.9,0.3,1.3c0.2,0.4,0.5,0.7,0.9,0.9c0.8,0.5,1.7,0.5,2.5,0c0.4-0.2,0.7-0.5,0.9-1
			c0.2-0.4,0.3-0.8,0.3-1.3l0-4.9c0.3-1.2,1-1.7,2-1.7c0.5,0,0.9,0.2,1.3,0.5c0.4,0.3,0.6,0.7,0.8,1.2c0.6,1,1.4,1.6,2.5,1.6
			c0.2,0,0.3,0,0.4,0c0.1,0,0.2,0,0.4,0c0,3,0.3,5.6,1,7.9c0.7,2.5,1.8,4.6,3.1,6.3c1.4,1.8,3.2,3.1,5.1,3.9
			c1.9,0.9,4.1,1.3,6.6,1.3c2,0,3.9-0.3,5.7-0.9c1.8-0.7,3.4-1.6,4.8-2.9c0.8-0.7,1.5-1.6,2.1-2.5c0.6-0.9,1.1-1.9,1.6-3
			c0.8-1.5,1.9-2.5,3.4-3.2c1.6-0.6,3.2-0.6,4.8,0c1.7,0.6,2.9,1.7,3.7,3.2c0.7,1.5,0.8,3.1,0.4,4.8c-0.9,1.6-1.9,3.1-3,4.4
			c-1.1,1.4-2.5,2.6-3.9,3.7c-2.8,2.1-6.1,3.6-10,4.7c-4,1.1-8.5,1.7-13.6,1.7c-5.8,0-11-0.7-15.6-2.3c-4.5-1.6-8.4-3.9-11.8-6.9
			c-3.3-3.1-5.8-6.7-7.4-11c-1-2.4-1.7-4.9-2.1-7.7C229,119.7,229.3,119.6,229.7,119.6z"/>
		<path class="st1" d="M369.7,122.4c0.1,0.1,0.1,0.1,0.2,0c0.1,0,0.1-0.1,0.1-0.1c0.1-0.1,0.1-0.1,0.1-0.2c0-0.1,0-0.1-0.1-0.2
			c-0.4-0.5-0.6-1.1-0.6-1.6l-0.2-3.6c-0.2-0.3-0.3-0.4-0.5-0.2l0,3.9C368.8,121.4,369.1,122,369.7,122.4z"/>
		<path class="st1" d="M319.2,147.7c4.6,3.5,10.9,5.2,18.7,5.1c4.7,0,8.9-1,12.4-2.8c3.6-1.8,6.9-4.5,10-7.8
			c2.6,4.1,6.2,6.6,10.7,7.6c4.5,1,8.8,0.1,12.9-2.6c1.3-1,2.7-2.4,4-4.1c1.4-1.7,2-3.2,2-4.4l-0.5-95.5l0-0.2
			c-0.7-4.1-2.6-7.4-5.6-10c-3.3-2.7-6.9-4-10.8-4c-3.9,0-7.4,1.3-10.5,3.7c-3.1,2.4-5.1,5.9-5.9,10.4l0.1,38.8
			c-0.2-0.2-0.4-0.3-0.6-0.5c-0.4-0.4-0.9-0.7-1.2-1c-4.5-3.5-9.6-5.5-15.3-6.1c-5.6-0.6-11,0.4-16,2.8c-4.4,2.3-7.9,5.4-10.5,9.4
			c-2.6,4-4.5,8.4-5.5,13.3c-1.1,4.9-1.6,9.7-1.5,14.6c0,7.2,1.1,13.7,3.1,19.5C311.2,139.6,314.6,144.2,319.2,147.7z M374.9,35.2
			c0.4,0.1,1.1,0.3,2.1,0.6c7,2.4,9.5,10.5,7.6,24.4c-0.2,0.2-0.3,0-0.4-0.6c-0.1-0.5-0.2-1.4-0.3-2.5c-0.2-2.7-0.9-6-1.9-10
			c-1-4-2.9-7.4-5.6-10.3c-0.4-0.5-0.9-0.9-1.2-1.1c-0.3-0.3-0.5-0.5-0.6-0.6C374.3,35.1,374.5,35.1,374.9,35.2z M380.4,122.2
			c-0.2,0.1-0.4,0.1-0.6,0.2c-0.2,0-0.4,0-0.5,0c-0.6,0-1.1-0.3-1.6-0.9c-0.5-0.6-0.7-1.3-0.8-2.1c0.1-0.1,0.1-0.1,0.2-0.1l0.1-0.1
			c0.1,0,0.2,0,0.2,0.1c0.1,0.8,0.3,1.3,0.7,1.6c0.3,0.3,0.7,0.5,1,0.6c0.4,0.1,0.7,0.1,1,0c0.2,0,0.3,0,0.4,0
			c0.1,0,0.2,0.1,0.2,0.1C380.6,122,380.6,122.2,380.4,122.2z M369.2,116.8l0.2,3.6c0,0.5,0.2,1,0.6,1.6c0.1,0.1,0.1,0.1,0.1,0.2
			c0,0.1,0,0.1-0.1,0.2c0,0.1,0,0.1-0.1,0.1c-0.1,0-0.2,0-0.2,0c-0.6-0.4-0.9-1.1-0.9-1.9l0-3.9C368.9,116.4,369,116.5,369.2,116.8z
			 M343.1,97.6c1.4-2.9,3.3-4.4,5.7-4.4c2.4,0,4.3,1.4,5.7,4.3l1.6,6.4c0.5,2.8,0.7,6,0.7,9.7c0,1.8-0.1,4-0.2,6.6
			c-0.2,2.6-0.6,5.1-1.3,7.4c-0.7,2.3-1.7,4.1-3.1,5.3c-1.5,1.1-3.1,1.3-4.7,0.8c-1.6-0.5-3-1.9-4-4.2c-1.5-3.9-2.3-9.2-2.4-16
			C340.9,107,341.6,101.6,343.1,97.6z M327.2,120.5c0.4-0.4,0.6-1,0.6-1.6l0.2-3.6c0.1-0.3,0.2-0.4,0.4-0.1l0,3.9
			c0,0.8-0.3,1.4-0.9,1.9c-0.1,0-0.1,0-0.2,0c-0.1,0-0.1-0.1-0.2-0.1l0-0.1c-0.1-0.1-0.1-0.1-0.1-0.1
			C327.1,120.6,327.1,120.6,327.2,120.5z M314.2,117.8c0,0,0.1,0,0.1,0l0.1,0l0,0.1c0.3,0.8,0.7,1.3,1.1,1.7
			c0.4,0.4,0.8,0.6,1.2,0.6c0.4,0.1,0.7,0.1,1,0c0.3,0,0.5,0,0.6,0.1c0.1,0.2,0.1,0.3,0,0.4c-0.1,0.1-0.3,0.2-0.5,0.2
			c-0.2,0-0.4,0-0.6,0c-0.6,0-1.2-0.3-1.8-0.9c-0.6-0.6-1-1.3-1.2-2.1C314.1,117.9,314.1,117.9,314.2,117.8z M312.4,117.3
			c0.9,0.4,1.4,1.1,1.7,2c0.4,1.3,1.1,2,2,2.3c0.9,0.3,1.8,0.2,2.7-0.3c0.8-0.5,1.4-1.2,1.5-2.1c0.2-1,0.6-1.6,1.2-1.8
			c0.6-0.2,1.3-0.2,1.9,0.2c0.6,0.4,0.9,0.9,0.9,1.6c0,1.3,0.4,2.1,1.2,2.6c0.9,0.4,1.7,0.4,2.6,0c0.9-0.4,1.3-1.3,1.3-2.6l0-5.3
			c0-0.6,0.4-1.1,0.9-1.5c0.6-0.4,1.2-0.5,1.9-0.3c0.7,0.2,1.2,0.7,1.6,1.7c0.2,0.6,0.6,1.1,1.3,1.4c0.7,0.3,1.5,0.4,2.3,0.1
			c0,5.8,0.8,11.1,2.6,15.8c1.8,3.5,4.1,5.6,6.9,6.3c2.8,0.7,5.3,0.1,7.5-1.6c2.4-2,3.9-4.8,4.7-8.3c0.8-3.6,1.2-6.9,1.2-10
			c0.8,0.2,1.5,0.1,2.1-0.3c0.7-0.3,1.1-0.8,1.2-1.3c0.3-0.9,0.8-1.5,1.4-1.7c0.6-0.2,1.2-0.1,1.8,0.3c0.6,0.4,0.9,0.8,1,1.4
			c0.1,0.9,0,1.9-0.1,2.8c0,1,0,1.9,0.1,2.7c0.1,0.8,0.5,1.4,1.1,1.8c0.8,0.5,1.7,0.5,2.5,0.1c0.8-0.4,1.2-1.3,1.2-2.5
			c0-0.7,0.3-1.2,0.8-1.5c0.5-0.3,1.1-0.4,1.7-0.2c0.6,0.2,1,0.8,1.1,1.7c0.2,0.9,0.7,1.6,1.5,2c0.8,0.4,1.7,0.5,2.6,0.2
			c0.9-0.3,1.5-1,1.9-2.2c0.2-0.8,0.7-1.4,1.5-1.8c0.8-0.4,1.6-0.5,2.6-0.2l0.1,19.6c-1,2.4-2.5,4.4-4.5,5.9
			c-3.6,2.3-7.4,2.9-11.2,1.7c-3.9-1.2-6.6-3.8-8.2-7.8c-0.3-0.7-0.7-1-1.4-1.1c-0.6-0.1-1.2,0.1-1.7,0.7c-2.9,3.5-6,6.3-9.4,8.4
			c-3.4,2.1-7.4,3.1-12.2,3.1c-6.6,0-11.9-1.3-16-4.1c-4-2.8-7-6.6-8.9-11.4c-1.9-4.8-3-10.3-3.3-16.5
			C310.7,116.9,311.6,116.9,312.4,117.3z"/>
	</g>
	<g>
		<path class="st0" d="M15.5,75.9c0.3,0.2,0.6,0.3,0.9,0.3c0.3,0.1,0.7,0,0.9-0.2c0.6-0.4,0.8-0.9,0.8-1.5l0.2-19.7
			c0.2-3.8,1.5-6.9,4-9.4c2.5-2.5,5.6-3.9,9.4-4.2c0.9-0.5,1.4-1.1,1.4-2c0-0.5-0.1-0.9-0.4-1.2c-0.2-0.3-0.5-0.6-0.9-0.8
			c-10.2,1-15.8,6.9-16.7,17.7l0,19.3C14.8,74.9,14.9,75.5,15.5,75.9z"/>
		<path class="st0" d="M196.7,209.3C196.7,209.3,196.7,209.4,196.7,209.3c0.1,0.1,0.1,0.2,0.2,0.2l0.1,0c0.6-0.5,0.9-1.1,0.9-2l0-4
			c-0.2-0.3-0.3-0.3-0.4,0.1l-0.2,3.9c0.1,0.5-0.1,1-0.6,1.5c-0.1,0.1-0.1,0.1,0,0.2C196.6,209.2,196.6,209.3,196.7,209.3z"/>
		<path class="st0" d="M113.1,199.4c-0.1-1-0.2-2-0.3-2.9c0-0.1,0-0.2,0-0.3c0-0.1,0-0.2,0-0.3c-0.7-2.6-2.3-4.3-4.7-5.1
			c-2.4-0.8-4.8-0.7-7.2,0.1c-2.3,0.9-3.7,2.6-4.2,5.1l-0.1,1.7c0.2,6-0.4,11-1.9,15.1c-1.5,4.1-5.5,6.4-12.1,7.1
			c-3.5,0.3-7.4,0.4-11.5,0.5c-4.1,0.1-7.7,0.1-10.9,0.2c-0.8,0-1.5,0-2.2,0c-0.2-0.1-0.5-0.1-0.8-0.1c-0.8,0.1-1.6,0-2.5-0.2
			c-0.8-0.2-1.2-0.8-1.2-1.8L52.8,98.2c-1.3,0.5-2.4,0.5-3.5,0c-1.1-0.4-1.8-1.1-2.2-2C46.7,94.8,46,94,45,93.8
			c-0.9-0.2-1.8-0.1-2.6,0.4c-0.8,0.5-1.2,1.1-1.4,2l0.1,7.4c0,1.7-0.6,2.9-1.8,3.4c-1.2,0.6-2.4,0.6-3.5,0
			c-1.2-0.6-1.8-1.7-1.8-3.4c0-1.1-0.4-1.8-1.2-2.3c-0.9-0.5-1.7-0.6-2.7-0.2c-0.9,0.3-1.4,1.2-1.6,2.6c-0.2,1.3-0.8,2.2-2,2.8
			c-1.2,0.6-2.4,0.8-3.8,0.4c-1.3-0.4-2.3-1.4-2.8-3.1c-0.3-1.3-1-2.2-2.2-2.7c-1.1-0.6-2.3-0.7-3.7-0.3l0.7,118.6
			c0,5.3,2,9.8,5.8,13.6c3.8,3.8,8.4,5.7,13.7,5.6l53.1-0.4c6.6-0.4,11.8-2.6,15.6-6.5c3.9-3.9,6.6-8.7,8.1-14.4
			c1.5-5.8,2.1-11.5,1.9-17.2C113.1,199.8,113.1,199.6,113.1,199.4z"/>
		<path class="st0" d="M23.8,104.5c-0.9,0-1.8-0.6-2.7-1.7l-0.1,0c0-0.1,0-0.1-0.1-0.1l-0.1,0.1c-0.1,0.1-0.1,0.1-0.2,0.2l0,0.1
			c0.5,0.9,1.1,1.5,2,2c0.9,0.5,1.8,0.5,2.7,0.2c0.1-0.1,0.3-0.1,0.5-0.2c0.3-0.1,0.5-0.2,0.7-0.3c0.2-0.1,0.4-0.3,0.4-0.4
			c0.1-0.1,0.1-0.2-0.2-0.3c-0.2-0.1-0.5,0-0.9,0.2C25.4,104.5,24.6,104.6,23.8,104.5z"/>
		<path class="st0" d="M146.3,234c6.1,2.2,12.7,3.3,20,3.3c5.7,0,11.1-0.8,16.3-2.3c5.2-1.5,9.8-4.1,14-7.6
			c6.6-6.2,10.1-13.9,10.5-23.2l-2.9-1.9c-0.4-1.1-1-1.7-1.7-1.9c-0.7-0.2-1.4,0-2.1,0.4c-0.6,0.4-1,0.9-1,1.5l0,5.7
			c0,1.4-0.5,2.3-1.4,2.7c-0.9,0.5-1.8,0.5-2.7,0c-0.9-0.5-1.4-1.4-1.4-2.7c0-0.8-0.3-1.4-1-1.8c-0.7-0.3-1.4-0.4-2.1-0.2
			c-0.7,0.2-1.1,0.9-1.3,2c-0.2,1-0.7,1.8-1.6,2.3c-0.9,0.5-1.9,0.6-2.9,0.3c-1-0.3-1.7-1.2-2.2-2.6c-0.2-0.9-0.7-1.5-1.5-2
			c-0.7-0.5-1.6-0.6-2.6-0.5c0,2.6-0.2,5.2-0.5,8c-0.4,2.7-1,5.1-1.9,7.1c-2,4.2-5.3,6.4-10.1,6.4c-2.9,0-5.2-0.6-6.9-1.9
			c-1.7-1.3-3-3-3.9-5.1c-0.9-2-1.5-4.3-1.8-6.8c-0.3-2.5-0.5-4.9-0.6-7.3c-0.9-0.3-1.8-0.3-2.7,0.2c-0.8,0.5-1.3,1.2-1.5,2.1
			c-0.4,1.3-1.1,2.1-2.1,2.4c-1,0.3-1.9,0.3-2.8-0.2c-0.9-0.5-1.4-1.2-1.6-2.1c-0.2-1-0.6-1.6-1.3-1.9c-0.6-0.3-1.3-0.2-1.9,0.2
			c-0.6,0.3-0.9,0.9-0.9,1.7c0.1,1.3-0.4,2.2-1.3,2.7c-0.9,0.5-1.8,0.4-2.7-0.1c-0.7-0.5-1.2-1.1-1.3-2c-0.1-0.9-0.1-1.9,0-3
			c0-1,0-2,0-3c-0.1-0.6-0.4-1-0.8-1.4c-0.5-0.3-1-0.5-1.5-0.5c-0.6,0-1.1,0.2-1.5,0.5c-0.3,0.3-0.6,0.8-0.8,1.3
			c-0.3,0.6-0.6,1.1-1.1,1.5c-0.5,0.4-1.2,0.5-2.2,0.4c0.6,7.6,2.8,13.8,6.5,18.6C135.4,228.2,140.3,231.8,146.3,234z"/>
		<path class="st0" d="M186,209.3c0.2,0,0.4,0,0.6,0c0.3-0.1,0.5-0.1,0.7-0.3c0.2-0.1,0.2-0.2,0.1-0.4c-0.1-0.1-0.2-0.1-0.5-0.1
			c-0.3,0.1-0.7,0.1-1,0c-0.4-0.1-0.8-0.2-1.1-0.6c-0.3-0.3-0.6-0.9-0.7-1.8l-0.1,0l0-0.1l-0.1,0c-0.1,0-0.1,0-0.2,0.1
			c-0.1,0-0.1,0-0.1,0.1c0.1,0.8,0.3,1.5,0.8,2.1C184.8,209,185.3,209.3,186,209.3z"/>
		<path class="st0" d="M128,195.9c0.9,0,1.5-0.5,1.8-1.6c1.3-12.4,8.2-21.5,20.5-27.3c0.2-0.2,0.2-0.4,0.2-0.7
			c-0.1-0.1-0.1-0.1-0.3-0.3c-0.1-0.1-0.3-0.1-0.4,0c-14.2,5-22,14.4-23.5,28.2c0.1,0.5,0.3,0.8,0.6,1.1
			C127.3,195.8,127.6,195.9,128,195.9z"/>
		<path class="st0" d="M134.8,204c-0.2-0.3-0.3-0.4-0.5-0.1l0,4c0,0.9,0.3,1.5,1,2c0.1,0,0.1,0,0.2,0c0.1-0.1,0.1-0.1,0.2-0.2
			c0.1-0.1,0.1-0.1,0.1-0.2c0-0.1,0-0.1-0.1-0.2c-0.4-0.5-0.6-1-0.6-1.5L134.8,204z"/>
		<path class="st0" d="M146.4,208.8c-0.3,0.1-0.7,0.1-0.9,0c-0.3,0-0.5,0-0.6,0.1c-0.1,0.2-0.1,0.4,0.1,0.4c0.2,0.1,0.4,0.2,0.6,0.3
			c0.3,0,0.5,0,0.6,0c0.6,0,1.2-0.3,1.6-1c0.5-0.6,0.7-1.3,0.8-2.1c0-0.1,0-0.1-0.1-0.1l-0.1-0.1l-0.1,0l0,0.1
			c-0.2,0.9-0.4,1.5-0.8,1.8C147.2,208.6,146.8,208.8,146.4,208.8z"/>
		<path class="st0" d="M38.6,105.9c0.1,0.1,0.1,0.1,0.3,0c0.6-0.5,0.9-1.2,0.9-2.1l0-4.7c-0.2-0.3-0.3-0.3-0.4,0.1l-0.2,4.4
			c0,0.7-0.2,1.3-0.8,1.9c-0.1,0.1-0.1,0.1-0.1,0.2c0,0.1,0,0.1,0.1,0.2C38.4,105.8,38.5,105.9,38.6,105.9z"/>
		<path class="st0" d="M376.1,207.5L376.1,207.5L376.1,207.5c0.1,0.1,0.2,0.1,0.3,0.1c0.6-0.5,0.9-1.2,0.9-2l0-4
			c-0.2-0.2-0.3-0.2-0.4,0.1l-0.2,3.9c0.1,0.6-0.1,1.1-0.6,1.5c-0.1,0.1-0.1,0.1-0.1,0.2C376,207.3,376,207.4,376.1,207.5
			C376,207.5,376.1,207.5,376.1,207.5z"/>
		<path class="st0" d="M364.3,206.5c0.5,0.6,1,0.9,1.6,0.9c0.1,0,0.3,0,0.6,0c0.3-0.1,0.5-0.1,0.7-0.2c0.2-0.1,0.2-0.3,0.1-0.4
			c-0.1-0.1-0.1-0.1-0.3-0.2c-0.1,0-0.2,0-0.3,0c-0.3,0.1-0.6,0-1-0.1c-0.3-0.1-0.7-0.3-1-0.6c-0.3-0.3-0.6-0.9-0.8-1.8l-0.1,0
			c0-0.1,0-0.1-0.1-0.1l0,0.1l-0.1,0l0,0.1l-0.1,0.1C363.6,205.1,363.9,205.8,364.3,206.5z"/>
		<path class="st0" d="M325.1,207.9c0.1,0.1,0.1,0.1,0.2,0.1c0.1,0.1,0.1,0.1,0.2,0.1c0.6-0.5,0.9-1.2,0.9-2l0-4.1
			c-0.1-0.1-0.2-0.1-0.3-0.1c-0.1,0-0.2,0.1-0.3,0.3l-0.1,3.8c0,0.6-0.2,1.2-0.7,1.6c-0.1,0.1-0.1,0.1,0,0.2
			C325.1,207.8,325.1,207.9,325.1,207.9z"/>
		<path class="st0" d="M310.2,191.5c0.2-0.6,0.5-1.4,0.8-2.6c0.6-2.7,1.7-6.1,3.4-9.9c1.6-3.9,3.9-7.1,7.1-9.7
			c0.5-0.3,0.9-0.6,1.3-0.9c0.5-0.3,0.7-0.5,0.9-0.6c0.1-0.1,0-0.1-0.4-0.1c-0.4,0-1.2,0.1-2.3,0.4c-7.4,1.5-11.1,9.5-11.1,23.9
			C309.9,192.3,310.1,192.1,310.2,191.5z"/>
		<path class="st0" d="M345.2,258.6c-3.8,0.5-7.4,0.3-11-0.5c-6.3-1.4-10.8-4.3-13.2-8.7c-1.7-1.9-3.3-3-5-3.5
			c-3-0.7-5.4,0.3-7.3,2.8c-1.7,2.8-2.1,5.9-1,9.5c1,3.5,3.1,6.7,6.1,9.6c3,2.8,6.7,4.6,10.9,5.3l30.4-0.2c6.6,0,12.3-0.8,16.9-2.3
			c4.7-1.6,8.2-4.3,10.7-8.2c2.5-3.8,3.7-9.3,3.6-16.4l-0.3-43.9c-0.8,0.2-1.5,0.1-2.2-0.2c-0.7-0.3-1.1-0.8-1.4-1.4
			c-0.4-1-0.9-1.5-1.6-1.7c-0.6-0.2-1.2-0.1-1.8,0.3c-0.6,0.3-0.9,0.8-1,1.5l0,5.2c0.1,1.3-0.3,2.1-1.2,2.5c-0.9,0.4-1.7,0.4-2.6,0
			c-0.8-0.4-1.2-1.2-1.3-2.5c0-0.7-0.2-1.3-0.9-1.6c-0.6-0.3-1.2-0.4-1.8-0.2c-0.6,0.2-1,0.8-1.1,1.8c-0.2,1-0.7,1.7-1.5,2.1
			c-0.9,0.5-1.8,0.6-2.7,0.3c-0.9-0.3-1.6-1-2-2.3c-0.2-0.8-0.7-1.4-1.5-1.9c-0.7-0.4-1.6-0.5-2.5-0.3c0,3.3-0.5,6.8-1.3,10.4
			c-0.8,3.6-2.4,6.4-4.8,8.4c-2.3,1.8-4.9,2.3-7.9,1.6c-2.9-0.7-5.2-2.9-7-6.5c-1.7-4.6-2.7-9.6-2.8-15c-0.9,0.2-1.7,0.2-2.4-0.2
			c-0.7-0.3-1.1-0.8-1.4-1.4c-0.3-1-0.9-1.6-1.6-1.8c-0.7-0.2-1.3-0.1-1.9,0.3c-0.6,0.4-1,0.9-1,1.5l0,5.5c0,1.3-0.4,2.2-1.4,2.7
			c-0.9,0.4-1.8,0.4-2.7,0c-0.9-0.5-1.3-1.3-1.3-2.6c-0.1-0.7-0.4-1.3-1-1.7c-0.6-0.3-1.3-0.4-2-0.2c-0.6,0.2-1,0.9-1.2,1.9
			c-0.1,1-0.6,1.7-1.5,2.1c-0.9,0.5-1.8,0.6-2.8,0.3c-1-0.3-1.7-1.1-2.1-2.4c-0.2-0.9-0.8-1.6-1.6-2c-0.9-0.5-1.9-0.5-2.9-0.2
			c0.3,6.3,1.7,12.2,4.1,17.6c2.4,5.3,6.5,9.3,12.3,12c2.7,1.1,5.8,1.8,9.3,2.1c3.4,0.3,6.7,0.1,9.7-0.6c5.9-1.6,10.7-4.9,14.6-9.8
			c0.7-0.7,1.4-0.9,2.2-0.5c0.8,0.3,1.2,0.8,1.2,1.7l0.1,15.2c0,2.8-0.4,5.2-1.4,7.2c-0.9,2-2.2,3.7-3.8,5.1
			C352.2,256.7,348.9,258.1,345.2,258.6z"/>
		<path class="st0" d="M314.3,207.4c-0.3-0.1-0.7-0.3-1-0.6c-0.3-0.3-0.6-0.9-0.8-1.7c0-0.1,0-0.1-0.1-0.1l-0.1,0l-0.1,0l0,0.1
			l0,0.1c0,0.7,0.2,1.5,0.7,2.1c0.5,0.6,1,0.9,1.7,0.9c0.1,0,0.3,0,0.5-0.1c0.2,0,0.4-0.1,0.6-0.2c0.2-0.1,0.2-0.3,0.1-0.4
			c-0.1-0.1-0.2-0.1-0.5-0.1C315,207.6,314.7,207.5,314.3,207.4z"/>
		<path class="st0" d="M282.2,165.3c4.5,1.1,7.5,4,9,8.7c0.1,0.1,0.1,0.1,0.2,0.1l0.1,0c0.1,0,0.1,0,0.2-0.1l0-0.1
			c-1.2-5.5-4.3-8.8-9.3-9.9c-0.2,0-0.3,0.1-0.4,0.2c-0.1,0.1-0.2,0.2-0.2,0.3c0,0.2,0,0.3,0.1,0.4
			C281.9,165.2,282,165.2,282.2,165.3z"/>
		<path class="st0" d="M289.6,205.5L289.6,205.5l-0.2,0c-0.2,0.8-0.4,1.4-0.7,1.7c-0.3,0.3-0.7,0.6-1,0.7c-0.4,0.1-0.7,0.1-1,0.1
			c-0.2,0-0.3,0-0.4,0c-0.1,0-0.1,0-0.2,0.1c-0.1,0.2-0.1,0.4,0.1,0.5c0.2,0.1,0.4,0.1,0.6,0.2c0.3,0,0.5,0,0.5,0
			c0.7-0.1,1.3-0.4,1.7-1c0.5-0.6,0.7-1.3,0.8-2.1L289.6,205.5L289.6,205.5L289.6,205.5z"/>
		<path class="st0" d="M277.9,208.9c0.1,0,0.1,0,0.2,0c0.1-0.1,0.2-0.1,0.3-0.2l0-0.1l0-0.1c0-0.1,0-0.1,0-0.2
			c-0.5-0.5-0.7-1-0.7-1.5l-0.3-3.8c-0.1-0.3-0.3-0.4-0.4-0.1l0,4C277,207.8,277.3,208.4,277.9,208.9z"/>
		<path class="st0" d="M274,233.9c2.3,1.5,4.9,2.3,7.8,2.3c2.9,0,5.4-0.8,7.8-2.4c2.3-1.4,4-3.4,5.1-5.9l-0.2-22.3
			c-0.3-0.2-0.7-0.3-1-0.2c-0.7,0-1.3,0.2-1.8,0.6c-0.6,0.5-0.9,1-1.1,1.6c-0.2,0.7-0.5,1.3-1,1.7c-0.6,0.5-1.2,0.7-1.9,0.7
			c-0.7,0-1.4-0.2-2-0.7c-0.5-0.4-0.9-1-1-1.7c0-0.6-0.3-1.2-1-1.6c-0.6-0.3-1.2-0.3-1.9,0c-0.6,0.5-0.8,1-0.8,1.6
			c0.1,1-0.3,1.8-1.2,2.4c-0.3,0.2-0.7,0.3-1.2,0.4c-0.5,0-0.9-0.1-1.4-0.3c-0.9-0.6-1.2-1.4-1-2.4l0-5c-0.1-0.5-0.4-0.9-0.8-1.3
			c-0.4-0.3-0.9-0.5-1.4-0.5c-0.6,0-1,0.2-1.4,0.5c-0.4,0.3-0.7,0.8-0.8,1.3c-0.6,1-1.4,1.5-2.6,1.6c-0.1,0-0.2,0-0.3,0
			c-0.1,0-0.2,0-0.3-0.1l0.2,23.9C270.1,230.5,271.8,232.5,274,233.9z"/>
		<path class="st0" d="M219.4,191.8c0.1-0.6,0.1-1.5,0.2-2.7c0.1-2.7,0.6-6.2,1.4-10.4c0.8-4.1,2.5-7.7,5.1-10.9
			c0.5-0.5,0.9-0.9,1.3-1.3c0.3-0.3,0.5-0.5,0.6-0.6c0.1-0.1-0.1-0.1-0.5,0c-0.4,0.1-1.1,0.4-2.1,0.9c-7.1,2.8-9.2,11.4-6.4,25.5
			C219.1,192.6,219.3,192.4,219.4,191.8z"/>
		<path class="st0" d="M223.3,208.2c0.4,0.6,0.9,1,1.6,1c0.1,0,0.3,0,0.6,0c0.2-0.1,0.4-0.1,0.6-0.2c0.2-0.1,0.2-0.3,0.1-0.5
			c-0.1-0.1-0.1-0.1-0.3-0.1c-0.1,0-0.2,0-0.3,0c-0.3,0-0.7,0-1-0.1c-0.3-0.1-0.7-0.3-1-0.7c-0.3-0.3-0.6-0.9-0.8-1.7l-0.1,0l-0.1,0
			l0,0.1l-0.1,0C222.6,206.9,222.9,207.7,223.3,208.2z"/>
		<path class="st0" d="M234.1,209c0.1,0.1,0.1,0.1,0.2,0.2c0.1,0,0.1,0,0.2,0c0.6-0.5,0.9-1.1,0.9-2l0-4c-0.1-0.1-0.2-0.2-0.3-0.2
			c-0.1,0-0.1,0.1-0.3,0.3l-0.1,3.8c0,0.5-0.2,1-0.7,1.5c0,0.1,0,0.1,0,0.2C234,208.9,234.1,208.9,234.1,209z"/>
		<path class="st0" d="M243.3,204.5c-1.1,0-1.9-0.5-2.6-1.5c-0.1-0.5-0.4-0.9-0.8-1.3c-0.3-0.3-0.8-0.5-1.3-0.5
			c-0.5,0-1,0.2-1.4,0.5c-0.4,0.3-0.7,0.8-0.8,1.3l0,5c0.1,1-0.3,1.8-1.1,2.4c-0.4,0.2-0.8,0.3-1.3,0.4c-0.5,0-0.9-0.1-1.3-0.3
			c-0.9-0.6-1.2-1.4-1.1-2.4c0-0.6-0.3-1.2-1-1.6c-0.6-0.3-1.2-0.3-1.9,0c-0.6,0.5-0.9,1-0.9,1.6c-0.1,0.7-0.4,1.3-1,1.7
			c-0.5,0.5-1.1,0.7-1.9,0.7c-0.7,0-1.3-0.2-1.9-0.7c-0.5-0.4-0.9-1-1-1.7c-0.2-0.6-0.6-1.2-1.1-1.6c-0.5-0.4-1.1-0.6-1.8-0.6
			c-0.5,0-0.8,0.1-1.1,0.3l0.2,22.3c1.2,2.4,3,4.4,5.3,5.8c2.3,1.5,4.9,2.3,7.7,2.3c2.9,0,5.4-0.8,7.8-2.4c2.2-1.4,3.9-3.4,5.1-5.9
			l-0.2-23.9C243.8,204.5,243.6,204.5,243.3,204.5z"/>
		<path class="st1" d="M116.5,194.9c-1.7-4.7-4.8-7.5-9.2-8.3c-4.4-0.8-8.2,0.3-11.4,3.2c-0.8,0.9-1.5,1.8-2.1,2.9
			c-0.6,1-0.9,1.9-0.9,2.7l-0.1,2.1c0,0.1,0,0.3,0,0.4c0,0.1,0,0.3,0,0.4c0.2,5.2-0.3,9.4-1.5,12.3c-1.1,3-4.2,4.7-9.2,5.1
			l-24.8,0.7l-1-162c0-3.2-0.6-6.2-1.9-9c-1.3-2.8-3-5.3-5.1-7.4c-3.8-3.6-7.9-5.8-12.4-6.4c-4.5-0.7-8.8-0.1-12.9,1.6
			c-4.2,1.8-7.6,4.6-10.2,8.3c-2.7,3.7-4,8.1-3.9,13.2l1,164.5c0,6.3,2.3,11.8,6.9,16.3c4.6,4.5,10.1,6.8,16.5,6.7l53.1-0.4
			c8-0.4,14.2-3.1,18.8-8c4.5-4.9,7.5-10.9,9.1-18c1.5-7,1.9-14,1.1-20.8L116.5,194.9z M38.3,105.4c0.5-0.6,0.8-1.2,0.8-1.9l0.2-4.4
			c0.1-0.3,0.3-0.4,0.4-0.1l0,4.7c0,0.9-0.3,1.6-0.9,2.1c-0.1,0.1-0.2,0.1-0.3,0c-0.1,0-0.1-0.1-0.3-0.2c-0.1-0.1-0.1-0.1-0.1-0.2
			C38.2,105.5,38.3,105.4,38.3,105.4z M14.9,54.9c1-10.7,6.5-16.6,16.7-17.7c0.4,0.2,0.7,0.4,0.9,0.8c0.3,0.3,0.4,0.7,0.4,1.2
			c0,0.9-0.4,1.5-1.4,2c-3.8,0.3-6.9,1.6-9.4,4.2c-2.5,2.5-3.8,5.7-4,9.4L18,74.5c0.1,0.6-0.2,1.1-0.8,1.5c-0.3,0.2-0.6,0.2-0.9,0.2
			c-0.3-0.1-0.6-0.2-0.9-0.3c-0.5-0.4-0.7-0.9-0.5-1.6L14.9,54.9z M27,104.3c-0.1,0.2-0.2,0.3-0.4,0.4c-0.2,0.1-0.4,0.2-0.7,0.3
			c-0.2,0.1-0.4,0.1-0.5,0.2c-1,0.3-1.9,0.2-2.7-0.2c-0.9-0.5-1.5-1.1-2-2l0-0.1c0.1-0.1,0.1-0.1,0.2-0.2l0.1-0.1
			c0.1,0,0.1,0,0.1,0.1l0.1,0c0.9,1.1,1.8,1.7,2.7,1.7c0.9,0,1.6-0.1,2.2-0.4c0.4-0.2,0.7-0.2,0.9-0.2
			C27.1,104.1,27.1,104.2,27,104.3z M111.2,217.2c-1.6,5.7-4.3,10.5-8.1,14.4c-3.8,4-9,6.1-15.6,6.5l-53.1,0.4
			c-5.3,0-9.9-1.8-13.7-5.6c-3.8-3.7-5.8-8.3-5.8-13.6l-0.7-118.6c1.4-0.4,2.6-0.3,3.7,0.3c1.1,0.6,1.9,1.5,2.2,2.7
			c0.6,1.7,1.5,2.8,2.8,3.1c1.3,0.4,2.6,0.3,3.8-0.4c1.2-0.6,1.9-1.6,2-2.8c0.2-1.4,0.8-2.3,1.6-2.6c0.9-0.3,1.8-0.3,2.7,0.2
			c0.8,0.5,1.2,1.2,1.2,2.3c0,1.7,0.6,2.8,1.8,3.4c1.1,0.6,2.3,0.6,3.5,0c1.2-0.6,1.8-1.7,1.8-3.4l-0.1-7.4c0.1-0.9,0.6-1.5,1.4-2
			c0.8-0.5,1.6-0.7,2.6-0.4c1,0.2,1.7,1,2.2,2.4c0.3,0.9,1.1,1.6,2.2,2c1.1,0.5,2.3,0.5,3.5,0l0.7,120.3c0,1,0.4,1.6,1.2,1.8
			c0.9,0.2,1.7,0.2,2.5,0.2c0.3,0,0.5,0,0.8,0.1c0.7,0,1.4,0,2.2,0c3.1,0,6.8-0.1,10.9-0.2c4.2-0.1,8-0.3,11.5-0.5
			c6.6-0.7,10.6-3,12.1-7.1c1.5-4.1,2.2-9.1,1.9-15.1l0.1-1.7c0.5-2.5,1.9-4.1,4.2-5.1c2.4-0.9,4.8-0.9,7.2-0.1
			c2.4,0.8,4,2.5,4.7,5.1c0,0.1,0,0.2,0,0.3c0,0.1,0,0.2,0,0.3c0.1,0.9,0.2,1.9,0.3,2.9c0,0.2,0,0.4,0,0.6
			C113.3,205.7,112.7,211.5,111.2,217.2z"/>
		<path class="st1" d="M143.2,236.8c6.8,2.9,14.5,4.3,23,4.3c6.1,0,12-0.9,17.6-2.6c5.6-1.6,10.7-4.4,15.2-8.3
			c1.8-1.4,3.5-3.4,5.2-5.8c1.6-2.5,2.9-4.8,3.9-7c2-4.9,2.9-10.4,2.9-16.5c-0.1-8.9-2.1-16.3-6.1-22.2c-4-5.9-9.5-10.3-16.3-13.2
			c-6.8-2.9-14.5-4.3-23-4.3c-6.1,0-12,0.9-17.6,2.5c-5.6,1.6-10.6,4.4-15,8.4c-8,7.5-11.9,17.3-11.9,29.4
			c0.1,8.9,2.1,16.3,6.1,22.2C131.1,229.5,136.5,233.9,143.2,236.8z M196.6,208.9c0.5-0.5,0.6-1,0.6-1.5l0.2-3.9
			c0.1-0.3,0.3-0.4,0.4-0.1l0,4c0,0.9-0.3,1.5-0.9,2l-0.1,0c-0.1,0-0.1,0-0.1-0.1c-0.1,0-0.1,0-0.1-0.1c-0.1,0-0.1-0.1-0.1-0.2
			C196.5,209,196.5,209,196.6,208.9z M183.6,206.2c0.1-0.1,0.1-0.1,0.2-0.1l0.1,0l0,0.1l0.1,0c0.1,0.9,0.4,1.5,0.7,1.8
			c0.3,0.3,0.7,0.5,1.1,0.6c0.3,0.1,0.7,0.1,1,0c0.3,0,0.5,0,0.5,0.1c0.1,0.2,0.1,0.4-0.1,0.4c-0.2,0.1-0.4,0.2-0.7,0.3
			c-0.2,0-0.4,0-0.6,0c-0.6,0-1.2-0.3-1.6-0.9C183.9,207.8,183.6,207.1,183.6,206.2C183.5,206.2,183.6,206.2,183.6,206.2z
			 M156.9,194c0.4-4.8,1.1-8.5,2.1-10.9c1.3-2.5,3.1-3.8,5.3-4.1c2.2-0.4,4.2-0.1,5.8,0.9c1.7,1.1,2.8,3,3.5,5.5
			c0.8,2.6,1.2,5.3,1.4,8.2c0.1,3,0.2,5.5,0.2,7.5c0,2.9-0.1,6-0.4,9.6c-0.3,3.5-0.9,6.4-1.8,8.6c-1.6,2.9-3.9,4.3-7,4.2
			c-3,0-5.3-1.4-6.9-4c-1-2.5-1.8-6.2-2.2-11C156.6,203.7,156.5,198.8,156.9,194z M149.8,166.1c0.2-0.1,0.3-0.1,0.4,0
			c0.1,0.1,0.2,0.2,0.3,0.3c0.1,0.3,0,0.5-0.2,0.7c-12.3,5.8-19.2,14.9-20.5,27.3c-0.3,1-0.9,1.5-1.8,1.6c-0.4,0-0.8-0.1-1.1-0.4
			c-0.3-0.3-0.5-0.6-0.6-1.1C127.8,180.5,135.6,171.1,149.8,166.1z M148.3,206.4L148.3,206.4l0.2,0.1c0.1,0,0.1,0,0.1,0.1
			c-0.1,0.8-0.3,1.5-0.8,2.1c-0.5,0.6-1,0.9-1.6,1c-0.1,0-0.3,0-0.6,0c-0.2-0.1-0.4-0.1-0.6-0.3c-0.2-0.1-0.2-0.2-0.1-0.4
			c0.1-0.1,0.3-0.1,0.6-0.1c0.3,0.1,0.6,0.1,0.9,0c0.4-0.1,0.8-0.3,1.1-0.6C147.9,207.9,148.1,207.3,148.3,206.4L148.3,206.4z
			 M135.7,209.5c0,0.1,0,0.1-0.1,0.2c-0.1,0.1-0.1,0.1-0.2,0.2c-0.1,0-0.1,0-0.2,0c-0.6-0.5-0.9-1.1-1-2l0-4
			c0.2-0.3,0.3-0.3,0.5,0.1l0.2,3.8c0,0.5,0.2,1,0.6,1.5C135.6,209.4,135.7,209.5,135.7,209.5z M125,204.8c1,0.2,1.8,0,2.2-0.4
			c0.5-0.4,0.8-0.9,1.1-1.5c0.3-0.5,0.6-0.9,0.8-1.3c0.3-0.3,0.8-0.5,1.5-0.5c0.6,0,1.1,0.2,1.5,0.5c0.4,0.3,0.7,0.8,0.8,1.4
			c0.1,1,0.1,2,0,3c-0.1,1.1-0.1,2.1,0,3c0.1,0.9,0.6,1.6,1.3,2c0.9,0.5,1.8,0.5,2.7,0.1c0.9-0.5,1.3-1.3,1.3-2.7
			c0-0.8,0.3-1.4,0.9-1.7c0.6-0.4,1.3-0.5,1.9-0.2c0.7,0.2,1.1,0.8,1.3,1.9c0.2,1,0.7,1.7,1.6,2.1c0.9,0.5,1.9,0.6,2.8,0.2
			c1-0.3,1.7-1.1,2.1-2.4c0.2-0.9,0.7-1.6,1.5-2.1c0.9-0.5,1.7-0.5,2.7-0.2c0.1,2.4,0.3,4.8,0.6,7.3c0.4,2.5,1,4.8,1.8,6.8
			c0.9,2.1,2.2,3.8,3.9,5.1c1.7,1.3,4,1.9,6.9,1.9c4.7,0,8.1-2.2,10.1-6.4c0.9-2,1.5-4.4,1.9-7.1c0.3-2.7,0.5-5.4,0.5-8
			c1-0.1,1.8,0,2.6,0.5c0.7,0.5,1.2,1.1,1.5,2c0.4,1.4,1.1,2.2,2.2,2.6c1,0.3,2,0.2,2.9-0.3c0.9-0.5,1.4-1.3,1.6-2.3
			c0.2-1.1,0.6-1.7,1.3-2c0.7-0.2,1.4-0.2,2.1,0.2c0.6,0.4,0.9,1,1,1.8c0,1.4,0.5,2.3,1.4,2.7c0.9,0.5,1.8,0.4,2.7,0
			c1-0.5,1.4-1.4,1.4-2.7l0-5.7c0.1-0.6,0.4-1.1,1-1.5c0.6-0.4,1.3-0.5,2.1-0.4c0.7,0.2,1.3,0.8,1.7,1.9l2.9,1.9
			c-0.4,9.2-3.9,17-10.5,23.2c-4.1,3.6-8.8,6.1-14,7.6c-5.2,1.5-10.6,2.2-16.3,2.3c-7.2,0.1-13.9-1-20-3.3
			c-6-2.2-10.9-5.8-14.7-10.6C127.8,218.6,125.6,212.4,125,204.8z"/>
		<path class="st1" d="M256.9,178.6c1.5,0,2.8,0.2,3.9,0.7c1,0.6,1.7,1.3,2.3,2.2c0.6,1,1.1,2.2,1.3,3.6c0.2,1.4,0.4,2.9,0.4,4.4
			l0.3,39.1c0,0.2,0.1,0.5,0.2,0.8c1.6,3.2,3.8,5.8,6.7,7.7c3,1.9,6.3,2.9,9.9,2.8c3.5,0,6.8-1,9.8-3c2.9-1.8,5.1-4.4,6.6-7.7
			c0.1-0.2,0.2-0.5,0.2-0.9l-0.3-39.9c0-5.2-0.6-9.8-1.5-13.6c-1.1-3.9-2.7-7-4.8-9.3c-4.1-4-9.5-6.2-16.2-6.6
			c-7.6-0.3-14.3,0.9-20,3.7l-0.2,0.1c-2.3,1.2-4.5,2.8-6.6,4.7c-0.9,0.9-1.8,1.8-2.7,2.8c-1.6-2.6-3.7-4.7-6.2-6.3
			c-2.9-1.7-6.1-2.6-9.5-2.6c-3.4,0-6.5,0.9-9.4,2.7c-2.8,1.7-5,4.1-6.5,7.1c-0.2,0.3-0.3,0.7-0.3,1l0.5,56.8
			c-0.1,0.1-0.1,0.2,0,0.3c0,0.2,0,0.3,0.1,0.4c1.6,3.2,3.8,5.8,6.8,7.7c3,1.9,6.2,2.9,9.8,2.8c3.5,0,6.8-1,9.8-3
			c2.8-1.8,5-4.4,6.6-7.7c0.1-0.2,0.2-0.5,0.2-0.9l-0.3-36.7c0-2.1,0.2-4,0.6-5.7c0.4-1.7,1.1-3.1,1.9-4.3c0.8-1.1,1.7-2,2.8-2.5
			C254.2,178.9,255.5,178.6,256.9,178.6z M281.9,164.3c0.1-0.1,0.3-0.2,0.4-0.2c5,1.1,8.1,4.4,9.3,9.9l0,0.1
			c-0.1,0.1-0.1,0.1-0.2,0.1l-0.1,0c-0.1,0-0.1,0-0.2-0.1c-1.6-4.8-4.6-7.7-9-8.7c-0.1-0.1-0.2-0.1-0.3-0.3
			c-0.1-0.1-0.1-0.3-0.1-0.4C281.7,164.4,281.8,164.3,281.9,164.3z M289.8,205.6c-0.1,0.9-0.3,1.6-0.8,2.1c-0.5,0.6-1,1-1.7,1
			c-0.1,0-0.2,0-0.5,0c-0.2-0.1-0.4-0.1-0.6-0.2c-0.2-0.1-0.2-0.3-0.1-0.5c0.1-0.1,0.1-0.1,0.2-0.1c0.1,0,0.3,0,0.4,0
			c0.3,0,0.6,0,1-0.1c0.3-0.1,0.7-0.3,1-0.7c0.3-0.3,0.5-0.9,0.7-1.7l0.1,0l0.1,0L289.8,205.6L289.8,205.6L289.8,205.6z M277.4,203
			l0.3,3.8c-0.1,0.5,0.2,1,0.7,1.5c0,0.1,0,0.1,0,0.2l0,0.1l0,0.1c-0.1,0.1-0.1,0.1-0.3,0.2c-0.1,0-0.1,0-0.2,0
			c-0.6-0.5-0.9-1.1-1-2l0-4C277.1,202.6,277.3,202.6,277.4,203z M269,204.3c0.1,0,0.2,0,0.3,0c1.1,0,2-0.5,2.6-1.6
			c0.1-0.5,0.4-0.9,0.8-1.3c0.3-0.3,0.8-0.5,1.4-0.5c0.5,0,1,0.2,1.4,0.5c0.4,0.3,0.7,0.8,0.8,1.3l0,5c-0.2,1,0.2,1.8,1,2.4
			c0.5,0.2,0.9,0.3,1.4,0.3c0.5,0,0.9-0.1,1.2-0.4c0.9-0.6,1.2-1.4,1.2-2.4c0-0.6,0.3-1.2,0.8-1.6c0.7-0.3,1.3-0.4,1.9,0
			c0.6,0.5,0.9,1,1,1.6c0.2,0.7,0.5,1.3,1,1.7c0.6,0.5,1.2,0.7,2,0.7c0.7,0,1.3-0.2,1.9-0.7c0.5-0.4,0.8-1,1-1.7
			c0.2-0.6,0.5-1.2,1.1-1.6c0.5-0.4,1.1-0.6,1.8-0.6c0.3,0,0.7,0.1,1,0.2l0.2,22.3c-1.1,2.5-2.8,4.4-5.1,5.9
			c-2.3,1.6-4.9,2.3-7.8,2.4c-2.9,0-5.5-0.7-7.8-2.3c-2.2-1.4-3.9-3.3-5.1-5.8l-0.2-23.9C268.8,204.3,268.9,204.3,269,204.3z
			 M234.7,207.1l0.1-3.8c0.1-0.2,0.2-0.3,0.3-0.3c0.1,0,0.1,0.1,0.3,0.2l0,4c0,0.9-0.3,1.5-0.9,2c-0.1,0-0.1,0-0.2,0
			c-0.1-0.1-0.1-0.1-0.2-0.2c-0.1-0.1-0.1-0.1-0.1-0.2c0-0.1,0-0.1,0-0.2C234.5,208.1,234.7,207.6,234.7,207.1z M225.4,166.8
			c1-0.5,1.7-0.8,2.1-0.9c0.4-0.1,0.6-0.1,0.5,0c-0.1,0.1-0.3,0.3-0.6,0.6c-0.4,0.3-0.8,0.8-1.3,1.3c-2.7,3.2-4.4,6.8-5.1,10.9
			c-0.8,4.2-1.3,7.6-1.4,10.4c-0.1,1.2-0.2,2.1-0.2,2.7c-0.1,0.6-0.3,0.7-0.4,0.5C216.2,178.2,218.3,169.6,225.4,166.8z M222.6,206
			L222.6,206l0.2,0c0.2,0.8,0.4,1.4,0.8,1.7c0.3,0.3,0.7,0.6,1,0.7c0.3,0.1,0.7,0.1,1,0.1c0.1,0,0.2,0,0.3,0c0.1,0,0.2,0,0.3,0.1
			c0.1,0.2,0.1,0.4-0.1,0.5c-0.2,0.1-0.4,0.1-0.6,0.2c-0.3,0-0.5,0-0.6,0c-0.7-0.1-1.2-0.4-1.6-1C222.9,207.7,222.6,206.9,222.6,206
			L222.6,206L222.6,206z M239.1,234.1c-2.3,1.6-4.9,2.3-7.8,2.4c-2.9,0-5.4-0.7-7.7-2.3c-2.3-1.4-4-3.3-5.3-5.8l-0.2-22.3
			c0.3-0.2,0.7-0.3,1.1-0.3c0.7,0,1.3,0.2,1.8,0.6c0.5,0.5,0.9,1,1.1,1.6c0.2,0.7,0.5,1.3,1,1.7c0.6,0.5,1.2,0.7,1.9,0.7
			c0.7,0,1.4-0.2,1.9-0.7c0.6-0.4,0.9-1,1-1.7c0-0.6,0.3-1.2,0.9-1.6c0.7-0.3,1.3-0.4,1.9,0c0.6,0.5,0.9,1,1,1.6
			c-0.1,1,0.3,1.8,1.1,2.4c0.4,0.2,0.8,0.3,1.3,0.3c0.5,0,0.9-0.1,1.3-0.4c0.8-0.6,1.2-1.4,1.1-2.4l0-5c0.1-0.5,0.4-0.9,0.8-1.3
			c0.4-0.3,0.9-0.5,1.4-0.5c0.5,0,0.9,0.2,1.3,0.5c0.4,0.3,0.7,0.8,0.8,1.3c0.6,1,1.5,1.5,2.6,1.5c0.3,0,0.5,0,0.7-0.1l0.2,23.9
			C243,230.7,241.3,232.7,239.1,234.1z"/>
		<path class="st1" d="M352.7,251.5c-2.8,2.2-6.3,3.4-10.3,3.6c-4,0.2-7.8-0.4-11.2-1.8c-3.5-1.3-5.8-3.2-6.9-5.5
			c-0.1-0.2-0.2-0.4-0.3-0.6c-3-3.3-6.2-5.1-9.6-5.2c-3.5-0.1-6.4,1.4-8.8,4.6c-2.4,3.7-3,7.7-1.8,12.1c1.2,4.4,3.7,8.4,7.3,11.8
			c3.7,3.5,8.1,5.6,13.1,6.4l30.9-0.1c7.2-0.1,13.5-1,18.7-2.9c5.3-1.9,9.3-5.1,12.2-9.5c2.8-4.5,4.1-10.6,4.1-18.3l-0.5-75.2
			c0-0.2,0-0.4-0.1-0.6c-0.1-0.1-0.1-0.1-0.1-0.2c-2-4.7-5.1-7.9-9.2-9.7c-4.2-1.8-8.4-2.1-12.8-0.9c-4.4,1.2-7.9,3.9-10.6,8.3
			l-0.5-0.4l-4.3-3.8c-4.6-3-9.7-4.7-15.3-5.1c-5.5-0.4-10.7,0.5-15.5,2.8c-4.6,2.4-8.3,5.6-11,9.7c-2.7,4.1-4.6,8.7-5.8,13.7
			c-1.1,5-1.6,10.1-1.6,15.1c0.1,7.5,1.1,14.2,3.2,20.3c2.2,6.1,5.6,10.9,10.5,14.5c4.8,3.6,11.3,5.3,19.5,5.3
			c4.1,0,7.8-0.7,11.1-2.1c3.4-1.4,6.5-3.5,9.5-6.3l0.1,10.7c0,2.2-0.3,4-1,5.6C354.9,249.2,354,250.5,352.7,251.5z M376,207.1
			c0.5-0.5,0.6-1,0.6-1.5l0.2-3.9c0.1-0.3,0.3-0.3,0.4-0.1l0,4c0,0.8-0.3,1.5-0.9,2c-0.1,0-0.1,0-0.2,0l-0.1,0l0-0.1
			c-0.1,0-0.1,0-0.1-0.1c-0.1-0.1-0.1-0.1-0.1-0.2C376,207.2,376,207.1,376,207.1z M363.6,204.2L363.6,204.2L363.6,204.2
			c0.1-0.1,0.2-0.1,0.2,0l0.1,0c0.2,0.9,0.4,1.5,0.8,1.8c0.3,0.3,0.7,0.5,1,0.6c0.4,0.1,0.7,0.1,1,0.1c0.2,0,0.3,0,0.3,0
			c0.1,0.1,0.2,0.1,0.3,0.2c0.1,0.2,0.1,0.3-0.1,0.4c-0.2,0.1-0.4,0.1-0.7,0.2c-0.3,0-0.5,0-0.6,0c-0.6,0-1.2-0.3-1.6-0.9
			c-0.5-0.6-0.7-1.3-0.8-2.1L363.6,204.2L363.6,204.2z M341.2,182.8c1.5-3,3.4-4.6,5.9-4.6c2.5,0,4.4,1.5,5.9,4.4l1.8,6.7
			c0.4,2.8,0.6,6.2,0.7,10.2c0,1.9-0.1,4.2-0.3,6.9c-0.2,2.7-0.6,5.2-1.3,7.6c-0.7,2.5-1.7,4.3-3.2,5.5c-1.6,1.1-3.2,1.4-4.9,0.9
			c-1.7-0.6-3.2-2-4.3-4.3c-1.6-4.1-2.4-9.7-2.4-16.7C339,192.4,339.7,186.8,341.2,182.8z M325.1,207.6c0.5-0.5,0.7-1,0.7-1.6
			l0.1-3.8c0.1-0.2,0.1-0.3,0.3-0.3c0.1-0.1,0.1,0,0.3,0.1l0,4.1c0,0.8-0.3,1.5-0.9,2c-0.1,0-0.1,0-0.2-0.1c-0.1,0-0.1,0-0.2-0.1
			c-0.1-0.1-0.1-0.1-0.1-0.2C325,207.7,325,207.7,325.1,207.6z M320.8,168.1c1.1-0.2,1.9-0.4,2.3-0.4c0.4-0.1,0.5,0,0.4,0.1
			c-0.1,0.1-0.4,0.3-0.9,0.6c-0.4,0.2-0.8,0.5-1.3,0.9c-3.2,2.6-5.5,5.8-7.1,9.7c-1.6,3.9-2.7,7.2-3.4,9.9c-0.3,1.1-0.5,2-0.8,2.6
			c-0.2,0.6-0.3,0.7-0.5,0.5C309.7,177.6,313.4,169.6,320.8,168.1z M315.7,208c-0.2,0.1-0.4,0.2-0.6,0.2c-0.2,0.1-0.4,0.1-0.5,0.1
			c-0.7,0-1.3-0.3-1.7-0.9c-0.5-0.7-0.7-1.4-0.7-2.1l0-0.1l0-0.1l0.1,0l0.1,0c0.1,0,0.1,0,0.1,0.1c0.2,0.8,0.4,1.4,0.8,1.7
			c0.3,0.3,0.7,0.5,1,0.6c0.4,0.1,0.7,0.1,1,0.1c0.3,0,0.5,0,0.5,0.1C315.9,207.8,315.9,207.9,315.7,208z M359,249.3
			c1-2,1.4-4.4,1.4-7.2l-0.1-15.2c0-0.9-0.4-1.4-1.2-1.7c-0.8-0.3-1.5-0.2-2.2,0.5c-3.9,4.9-8.8,8.1-14.6,9.8
			c-3.1,0.7-6.3,0.9-9.7,0.6c-3.4-0.3-6.5-1-9.3-2.1c-5.8-2.6-9.9-6.6-12.3-12c-2.4-5.4-3.8-11.3-4.1-17.6c1-0.3,2-0.3,2.9,0.2
			c0.9,0.5,1.4,1.1,1.6,2c0.4,1.3,1.1,2.1,2.1,2.4c1,0.3,1.9,0.2,2.8-0.3c0.9-0.5,1.4-1.2,1.5-2.1c0.2-1,0.6-1.7,1.2-1.9
			c0.7-0.2,1.3-0.2,2,0.2c0.6,0.4,0.9,1,1,1.7c0,1.3,0.4,2.2,1.3,2.6c0.9,0.4,1.7,0.4,2.7,0c0.9-0.5,1.4-1.3,1.4-2.7l0-5.5
			c0.1-0.6,0.4-1.1,1-1.5c0.6-0.4,1.2-0.5,1.9-0.3c0.7,0.2,1.3,0.8,1.6,1.8c0.2,0.6,0.7,1.1,1.4,1.4c0.7,0.3,1.5,0.4,2.4,0.2
			c0.1,5.5,1,10.5,2.8,15c1.7,3.6,4.1,5.7,7,6.5c2.9,0.7,5.5,0.2,7.9-1.6c2.4-2,4-4.8,4.8-8.4c0.8-3.6,1.3-7.1,1.3-10.4
			c0.9-0.2,1.7-0.1,2.5,0.3c0.7,0.5,1.2,1.1,1.5,1.9c0.4,1.3,1.1,2,2,2.3c1,0.3,1.9,0.2,2.7-0.3c0.9-0.4,1.4-1.1,1.5-2.1
			c0.1-1,0.5-1.6,1.1-1.8c0.6-0.2,1.2-0.2,1.8,0.2c0.6,0.3,0.9,0.9,0.9,1.6c0.1,1.3,0.5,2.1,1.3,2.5c0.9,0.4,1.7,0.4,2.6,0
			c0.9-0.4,1.2-1.2,1.2-2.5l0-5.2c0.1-0.6,0.4-1.1,1-1.5c0.6-0.3,1.2-0.4,1.8-0.3c0.7,0.2,1.2,0.7,1.6,1.7c0.2,0.6,0.7,1,1.4,1.4
			c0.7,0.3,1.4,0.4,2.2,0.2l0.3,43.9c0,7.1-1.2,12.5-3.6,16.4c-2.5,3.9-6.1,6.6-10.7,8.2c-4.7,1.5-10.3,2.3-16.9,2.3l-30.4,0.2
			c-4.2-0.7-7.9-2.5-10.9-5.3c-3-2.9-5.1-6.1-6.1-9.6c-1.1-3.6-0.7-6.8,1-9.5c1.8-2.5,4.2-3.5,7.3-2.8c1.7,0.4,3.3,1.6,5,3.5
			c2.5,4.4,6.9,7.3,13.2,8.7c3.6,0.8,7.3,1,11,0.5c3.7-0.5,7-2,10-4.3C356.8,253,358.1,251.3,359,249.3z"/>
	</g>
	<g>
		<path class="st0" d="M89.8,258.5c1.7,0.3,3.8,0.9,6.1,1.8c2.3,0.9,4.6,2.5,6.8,4.9c2.2,2.3,4.1,5.8,5.6,10.4
			c0.2,0.4,0.5,0.7,0.9,0.6c0.4,0,0.8-0.2,1-0.7c-0.8-4.4-2.8-8.6-5.9-12.5c-3.1-3.9-6.7-6.5-10.8-7.7c-0.6-0.2-1.4-0.3-2.4-0.5
			c-1-0.2-2-0.2-3-0.2c-1,0-1.7,0.2-2.1,0.5c-0.4,0.4-0.3,1,0.3,1.9C86.8,257.8,88,258.2,89.8,258.5z"/>
		<path class="st0" d="M82.2,317.2c0.2,0,0.4,0,0.6,0c0.2-0.1,0.4-0.1,0.5-0.2c0.3-0.1,0.6-0.4,0.9-0.7c0.2-0.4,0.4-0.8,0.4-1.3
			c0-0.1,0-0.1,0-0.1c0,0-0.1,0-0.1,0c-0.1,0-0.2,0-0.2,0.1c-0.2,0.6-0.4,1-0.8,1.2c-0.4,0.2-0.7,0.4-0.9,0.5
			c-0.2,0.1-0.4,0.1-0.4,0.2C81.9,317.1,82,317.2,82.2,317.2z"/>
		<path class="st0" d="M94,318.6c0-0.1,0-0.2-0.1-0.2c-0.1-0.1-0.1-0.1-0.2-0.1c-0.2,0.1-0.3,0.1-0.3,0.2c-0.4,1.4-0.4,2.8-0.1,4.2
			c0.3,1.4,1,2.5,2,3.1c0.2,0.1,0.5,0.3,0.9,0.4c0.4,0.2,0.7,0.3,1,0.3c0.3,0,0.4-0.2,0.4-0.7c-0.1-0.2-0.3-0.5-0.8-0.7
			c-0.5-0.2-1-0.6-1.5-1c-0.5-0.5-0.9-1.1-1.2-2C93.8,321.2,93.8,320.1,94,318.6z"/>
		<path class="st0" d="M154.8,334.5c-0.1,0.1-0.2,0.1-0.3,0.1c-1,0-1.8-0.5-2.4-1.5c-0.1-0.5-0.4-0.9-0.7-1.2
			c-0.4-0.3-0.8-0.4-1.2-0.4c-1,0-1.7,0.6-2,1.6l0,4.7c0.1,0.9-0.2,1.7-1,2.2c-0.8,0.4-1.7,0.4-2.5,0c-0.8-0.5-1.1-1.3-1-2.2
			c0-0.6-0.3-1.1-0.8-1.5c-0.7-0.4-1.3-0.4-1.8,0c-0.6,0.4-0.9,0.9-0.9,1.5c-0.5,1.5-1.4,2.3-2.8,2.3c-1.4,0-2.3-0.7-2.8-2.3
			c-0.2-0.6-0.5-1.1-1-1.5c-0.5-0.4-1.1-0.6-1.7-0.6c-0.3,0-0.7,0.1-1.1,0.2l0.1,17.6c0,3.3,1.3,6.2,3.7,8.6
			c2.4,2.4,5.2,3.6,8.6,3.5c3.3,0,6.1-1.2,8.6-3.7c2.3-2.4,3.5-5.3,3.5-8.6l-0.1-18.9C155,334.5,154.9,334.5,154.8,334.5z"/>
		<path class="st0" d="M224,340c0.1,0.4,0.3,0.7,0.6,0.9c0.2,0.2,0.5,0.2,0.6,0c0.1-0.1,0.1-0.2,0.1-0.3c0-0.1-0.1-0.2-0.2-0.2
			c-0.1-0.2-0.2-0.4-0.4-0.6c-0.1-0.2-0.2-0.5-0.2-1l-0.3-4.1c-0.1-0.4-0.3-0.4-0.5-0.1l0,4.3C223.8,339.3,223.8,339.6,224,340z"/>
		<path class="st0" d="M260.8,339.1c0.1,0,0.1,0,0.2,0c0.1-0.1,0.1-0.1,0.2-0.2c0-0.1,0-0.1,0.1-0.2c0-0.1,0-0.1,0-0.2
			c-0.6-0.4-0.8-1-0.8-1.7l-0.2-4.1c-0.2-0.3-0.3-0.3-0.5-0.1l0,4.3C259.7,337.9,260.1,338.6,260.8,339.1z"/>
		<path class="st0" d="M146.3,339.3c0.1,0,0.1,0,0.2,0c0.6-0.4,0.9-1.1,0.9-2l0-3.8c-0.2-0.2-0.4-0.2-0.5,0.1l-0.2,3.7
			c0.1,0.5-0.1,1-0.6,1.6c-0.1,0.1-0.1,0.1,0,0.2c0,0.1,0.1,0.1,0.1,0.2C146.2,339.2,146.3,339.3,146.3,339.3z"/>
		<path class="st0" d="M131.5,276.6c0.1-0.6,0.2-1.4,0.3-2.6c0-2.7,0.4-6,1.2-9.9c0.8-3.9,2.4-7.4,5-10.5c0.4-0.4,0.8-0.8,1.1-1.1
			c0.3-0.3,0.5-0.5,0.6-0.7c0.1-0.1-0.1-0.1-0.4,0c-0.4,0.1-1,0.4-2,0.8c-6.7,2.7-8.8,10.9-6.1,24.5
			C131.3,277.4,131.4,277.2,131.5,276.6z"/>
		<path class="st0" d="M352.1,342.1c0.2,0.2,0.3,0.2,0.5,0.2c0.9-0.8,1.4-1.7,1.4-2.9l0-5.9c-0.3-0.4-0.5-0.3-0.7,0.1l-0.3,5.6
			c0,0.9-0.3,1.6-1,2.3c-0.1,0.1-0.1,0.2,0,0.3C352,341.9,352.1,342,352.1,342.1z"/>
		<path class="st0" d="M138.1,338.6c-0.3,0.1-0.6,0-0.9,0c-0.4-0.1-0.7-0.3-1-0.6c-0.3-0.3-0.6-0.9-0.7-1.6l0-0.1l-0.1,0l-0.1,0.1
			l-0.1,0.1c0,0.8,0.2,1.4,0.7,2c0.4,0.6,1,0.9,1.6,1c0.1,0,0.3,0,0.5,0c0.2,0,0.4-0.1,0.6-0.2c0.2-0.1,0.2-0.2,0.1-0.4
			c-0.1-0.1-0.1-0.1-0.2-0.1C138.3,338.6,138.2,338.6,138.1,338.6z"/>
		<path class="st0" d="M278.8,342c-0.3-2.3-0.6-4.6-0.7-6.9c-0.9-0.3-1.8-0.3-2.6,0.2c-0.8,0.4-1.4,1.1-1.6,2
			c-0.3,1.3-0.9,2-1.9,2.3c-1,0.3-1.9,0.2-2.7-0.2c-0.9-0.4-1.4-1.1-1.5-2c-0.2-1-0.6-1.7-1.2-1.9c-0.6-0.2-1.2-0.2-1.8,0.2
			c-0.6,0.4-0.9,1-0.9,1.7c0,1.2-0.4,2-1.2,2.5c-0.9,0.4-1.8,0.4-2.7-0.1c-0.7-0.5-1-1.1-1.1-2c-0.1-0.8-0.1-1.7-0.1-2.8
			c0.1-0.9,0.1-1.9,0.1-2.9c-0.2-0.5-0.4-1-0.8-1.3c-0.4-0.4-0.9-0.6-1.4-0.6c-0.5,0-1,0.2-1.5,0.6c-0.4,0.3-0.6,0.8-0.7,1.3
			c-0.2,0.5-0.6,1-1.3,1.4c-0.7,0.3-1.4,0.4-2.2,0.3c0.5,6.9,2.5,12.8,6.2,17.9c3.6,5,8.6,8.7,15.1,11.1c3.9,1.4,8.4,2.2,13.4,2.4
			c5,0.2,9.9-0.5,14.5-2c4.7-1.4,8.6-4,11.6-7.5c1.6-1.8,2.5-3.9,2.7-6.2c-0.2-2.3-1.2-4-3-5.1c-1.7-1-3.5-1.3-5.5-0.9
			c-1.9,0.5-3.3,1.8-4.3,4c-1.9,5.1-5.4,7.6-10.6,7.7c-2.7,0-4.9-0.6-6.6-1.8c-1.6-1.2-2.9-2.9-3.8-4.9
			C279.8,346.5,279.2,344.3,278.8,342z"/>
		<path class="st0" d="M381.2,309.2c0.1,0.2,0.2,0.2,0.4,0.2c0.2,0,0.3-0.1,0.4-0.2c2.5-4.2,2.3-8.5-0.6-12.9c-0.1,0-0.1,0-0.1-0.1
			l-0.1,0c-0.1,0-0.1,0-0.1,0.1l-0.1,0c0,0.1,0,0.1,0,0.2c2.2,4.3,2.2,8.3-0.1,12c-0.1,0.1-0.1,0.2-0.1,0.4
			C381,309.1,381.1,309.2,381.2,309.2z"/>
		<path class="st0" d="M171,321.6c0.3-0.5,0.7-1.3,1.2-2.3c1.1-2.5,2.7-5.4,4.8-8.7c2.2-3.4,4.9-6,8.4-7.9c0.5-0.2,1-0.4,1.5-0.6
			c0.4-0.2,0.7-0.3,0.9-0.4c0.1-0.1,0-0.1-0.3-0.2c-0.4-0.1-1.1-0.1-2.2-0.1c-7.3,0.1-12.2,6.9-14.8,20.5
			C170.5,322.2,170.7,322.1,171,321.6z"/>
		<path class="st0" d="M270.8,338.7c0.2,0,0.4,0,0.4,0c0.5,0,1-0.3,1.4-0.7c0.4-0.4,0.7-1,0.9-1.6l-0.1-0.1l-0.1,0
			c0,0.1,0,0.1-0.1,0.1c-0.2,0.6-0.5,1-0.8,1.2c-0.3,0.3-0.6,0.4-0.9,0.5c-0.3,0.1-0.5,0.1-0.7,0c-0.2,0-0.4,0-0.4,0.1
			c-0.1,0.1-0.1,0.2,0,0.3C270.5,338.6,270.7,338.6,270.8,338.7z"/>
		<path class="st0" d="M293.6,297.8c0.5,0.3,1.4,0.6,2.5,1c2.5,0.9,5.5,2.3,9,4.2c3.5,1.9,6.3,4.5,8.5,7.7c0.3,0.5,0.5,1,0.7,1.5
			c0.2,0.4,0.3,0.7,0.4,0.8c0.1,0.1,0.2,0,0.2-0.4c0-0.3-0.1-1-0.2-2.1c-0.6-7.2-7.8-11.7-21.5-13.3
			C292.9,297.4,293.1,297.6,293.6,297.8z"/>
		<path class="st0" d="M185.6,339.2c-0.2-0.1-0.4-0.1-0.7-0.2c-0.2-0.1-0.4-0.3-0.7-0.6c-0.2-0.3-0.4-0.7-0.4-1.3l-0.1,0
			c0-0.1,0-0.1-0.1-0.1c-0.1,0-0.1,0.1-0.1,0.4c0,0.2,0.1,0.5,0.3,0.8c0.1,0.3,0.3,0.6,0.5,0.9c0.2,0.3,0.5,0.5,0.7,0.6
			c0.1,0.1,0.2,0.1,0.3,0.1c0.2,0,0.3,0,0.4,0c0.1-0.1,0.1-0.2,0.1-0.3c0-0.1,0-0.1-0.1-0.1C185.7,339.2,185.6,339.2,185.6,339.2z"
			/>
		<path class="st0" d="M175.3,337.2l-0.2-4.1c-0.2-0.3-0.3-0.4-0.5-0.1l0,4.3c0,0.3,0.1,0.7,0.3,1.1c0.2,0.4,0.3,0.7,0.5,0.9
			c0.2,0.2,0.4,0.2,0.6,0c0.1-0.1,0.1-0.2,0-0.3c0-0.1-0.1-0.2-0.2-0.3c-0.1-0.1-0.2-0.3-0.3-0.5
			C175.5,337.9,175.4,337.6,175.3,337.2z"/>
		<path class="st0" d="M238,337.5c-0.7,0.4-1.2,1-1.5,1.8c-0.3,1.1-0.9,1.9-1.7,2.1c-0.8,0.3-1.7,0.2-2.5-0.2
			c-0.8-0.4-1.2-1-1.4-1.9c-0.1-0.9-0.5-1.4-1.1-1.6c-0.6-0.2-1.2-0.2-1.7,0.2c-0.5,0.3-0.8,0.8-0.8,1.5c0.1,1.1-0.3,1.9-1,2.3
			c-0.8,0.4-1.5,0.4-2.3,0c-0.8-0.4-1.2-1.1-1.2-2.3l0-4.7c-0.1-0.5-0.4-1-0.9-1.3c-0.5-0.3-1.1-0.4-1.7-0.3
			c-0.6,0.1-1.1,0.7-1.4,1.6c-0.2,0.5-0.5,0.9-1.1,1.2c-0.6,0.3-1.2,0.4-1.9,0.3c-0.3,6.1-1.2,10.7-2.5,13.9c-2.1,4.3-5,6.4-8.6,6.5
			c-3.7,0.1-6.6-2.1-8.8-6.4c-1.4-3.3-2.3-8.1-2.6-14.6c-0.9-0.2-1.8,0-2.5,0.4s-1.2,1-1.3,1.8c-0.4,1.3-1.1,2.1-2,2.4
			s-1.8,0.2-2.7-0.2c-0.9-0.5-1.4-1.2-1.6-2.2c-0.2-0.9-0.6-1.5-1.2-1.7c-0.6-0.2-1.2-0.2-1.8,0.2c-0.6,0.4-0.9,0.9-0.9,1.6
			c0,1.3-0.4,2.2-1.2,2.6c-0.8,0.4-1.7,0.4-2.5,0c-0.8-0.4-1.3-1.3-1.3-2.6l0-5.2c-0.1-0.6-0.5-1.1-1-1.4c-0.6-0.4-1.2-0.4-1.9-0.3
			c-0.7,0.2-1.2,0.7-1.5,1.7c-0.2,0.5-0.6,1-1.2,1.4c-0.6,0.4-1.2,0.5-2,0.4c0,5.8,0.9,11.2,2.7,16.2c1.8,5.1,4.5,9.1,8.3,12.2
			s8.9,4.6,15.1,4.8c7.7-0.1,14.5-2.7,20.3-7.9c0.3-0.3,0.7-0.5,1.2-0.5c0.5,0,0.9,0.2,1.3,0.4c3,2.9,6.5,4.6,10.7,5.1
			c2.7,0.4,5.4,0.1,8.1-0.8c2.7-0.9,4.7-2.6,5.9-5.2c0.2-0.7,0.4-1.4,0.5-2.2l-0.1-19.3C239.5,337,238.7,337.1,238,337.5z"/>
		<path class="st0" d="M233.6,340.6c0.1,0,0.2,0,0.3,0c0.1,0,0.2,0,0.2,0c0.3,0,0.6-0.1,0.9-0.3c0.3-0.2,0.5-0.5,0.7-0.7
			c0.2-0.3,0.4-0.5,0.4-0.7c0.1-0.2,0.1-0.3,0-0.3l-0.1,0l-0.1,0c-0.2,0.5-0.5,0.9-0.7,1.1c-0.3,0.2-0.5,0.4-0.8,0.4
			c-0.2,0.1-0.5,0.1-0.7,0.1c-0.2,0-0.4,0-0.4,0.1c-0.1,0.1-0.1,0.2-0.1,0.2C233.4,340.6,233.5,340.6,233.6,340.6z"/>
		<path class="st0" d="M328.4,298.6c0.1-0.5,0.1-1.4,0.1-2.5c0.1-2.7,0.5-6,1.3-9.9c0.7-3.9,2.4-7.4,4.9-10.5
			c0.4-0.4,0.8-0.8,1.1-1.2c0.3-0.3,0.5-0.5,0.6-0.7c0.1-0.1-0.1-0.1-0.5,0c-0.3,0.1-1,0.4-2,0.8c-6.7,2.8-8.7,10.9-6,24.5
			C328.1,299.3,328.3,299.1,328.4,298.6z"/>
		<path class="st0" d="M111.1,316.9l-2.2,1.7c-1.4,0.4-2.7,0.3-3.9-0.4c-1.2-0.7-2-1.9-2.2-3.5l0.1,7.2c0,2.6-0.9,4.3-2.7,5.2
			c-1.8,0.9-3.5,0.9-5.3,0c-1.8-0.9-2.7-2.6-2.8-5.1l0-6.7c0-0.9-0.4-1.5-1.3-2c-0.9-0.5-1.8-0.6-2.8-0.4c-1,0.2-1.8,0.8-2.2,1.9
			c-0.1,0.1-0.1,0.1-0.1,0.2c-0.1,0.3-0.2,0.8-0.4,1.3c-0.2,0.5-0.5,1-1,1.4c-0.5,0.4-1.2,0.6-2.1,0.6c-1.4,0-2.3-0.4-2.7-1.2
			c-0.4-0.8-0.7-1.6-0.8-2.3c-0.1-0.3-0.1-0.5-0.2-0.7c-0.4-1.1-1-1.8-2-2.3c-0.9-0.4-2-0.6-3.1-0.6c-1.1,0-2.1,0.1-3.1,0.4
			c-0.9,0.3-1.6,0.6-1.9,0.9c-0.4,0.4-0.3,0.6,0.3,0.9c3.9,1.2,7.1,3.2,9.5,6.1c2.1,3.3,3.3,7,3.5,11.2c0.2,4.2-0.1,8-1.1,11.3
			c-1.3,3.9-3.4,6.8-6.1,8.5c-2.7,1.7-5.8,2.8-9.3,3.1c-3.5,0.4-7.1,0.5-10.7,0.4c-0.8,0-1.6,0-2.5,0c-0.5,0-0.9-0.2-1.3-0.5
			c-0.4-0.3-0.6-0.8-0.6-1.3l-0.3-38.2c0-0.7,0.3-1.2,1-1.6c-0.9-1.2-1.9-1.9-3-2c-1-0.1-1.9,0.2-2.7,0.8c-0.8,0.6-1.3,1.3-1.5,2.1
			c-0.4,1.6-1.2,2.7-2.5,3c-1.2,0.4-2.4,0.3-3.5-0.3c-1.1-0.6-1.8-1.5-1.9-2.7c-0.2-1.3-0.7-2-1.5-2.3c-0.8-0.3-1.6-0.2-2.4,0.2
			c-0.8,0.4-1.1,1.2-1.1,2.1c0,0.2,0,0.5-0.1,0.7c0.2-0.2,0.4-0.5,0.5-1c0.1-0.1,0.1-0.1,0.2-0.1c0.1,0,0.1,0,0.1,0c0,0,0,0.1,0,0.1
			c-0.1,0.5-0.2,0.9-0.4,1.3c-0.2,0.3-0.5,0.6-0.7,0.7c-0.3,0.6-0.7,1.1-1.3,1.5c-1.1,0.6-2.2,0.6-3.4,0c-0.9-0.6-1.4-1.4-1.5-2.4
			c-0.1-1-0.2-2.2-0.1-3.5c0.1-1.3,0.1-2.6,0-4c-0.1-0.8-0.5-1.4-1.3-1.8c-0.7-0.5-1.5-0.6-2.4-0.4c-0.9,0.2-1.5,1-2,2.2
			c-0.2,0.8-0.8,1.4-1.7,1.9c-0.9,0.5-1.9,0.5-3,0.1l0.2,35.2c0.7,10,5.6,17.2,14.7,21.5c2.1,1,4,1.5,5.7,1.7
			c1.7,0.2,3.6,0.3,5.8,0.2l27-0.2c9.5-0.1,17.7-0.8,24.4-2.1c5.8-1.1,10.8-2.8,14.8-5c4-2.3,7.1-5.4,9.2-9.3
			c2.1-3.9,3.1-9,3.1-15.1c0-3.7-0.6-7.1-1.8-10.3C115.7,322.2,113.8,319.4,111.1,316.9z"/>
		<path class="st0" d="M26.6,315.1c0.1,0.1,0.3,0.1,0.5,0.2c0.2,0.1,0.4,0.2,0.5,0.2s0.2-0.1,0.2-0.3c0-0.1,0-0.1-0.1-0.2
			c-0.1-0.1-0.2-0.1-0.3-0.2c-0.2-0.1-0.5-0.3-0.7-0.5c-0.2-0.2-0.4-0.6-0.6-1.1c-0.1-0.5-0.1-1.1,0-1.9l-0.1-0.2
			c-0.1,0-0.1,0-0.2,0.1c-0.3,0.7-0.3,1.4-0.2,2.2C25.8,314.1,26.1,314.7,26.6,315.1z"/>
		<path class="st0" d="M367.4,334.9c-1.4,0.8-2.6,1-3.8,0.5c-1.2-0.5-2-1.2-2.4-2.1c-0.5-1.4-1.2-2.2-2.1-2.4
			c-0.9-0.2-1.8-0.1-2.6,0.4c-0.8,0.5-1.2,1.2-1.4,2.1l0.1,7.3c0.1,1.8-0.5,3-1.7,3.5c-1.2,0.6-2.4,0.6-3.6,0
			c-1.2-0.6-1.8-1.8-1.8-3.5c0-1-0.3-1.8-1.2-2.3c-0.9-0.5-1.7-0.6-2.6-0.2c-0.9,0.3-1.4,1.2-1.6,2.5c-0.2,1.3-0.9,2.3-2.1,3
			c-1.2,0.7-2.4,0.8-3.8,0.4c-1.3-0.4-2.2-1.5-2.7-3.3c-0.4-1.4-1.4-2.3-2.7-2.8c-1.4-0.5-2.8-0.4-4.2,0.4l0.1,17.3
			c0.7,2.8,2.2,5.1,4.4,6.9c2.4,1.8,5,2.7,7.8,2.7c2.8,0,5.4-0.9,7.8-2.7c2.1-1.7,3.5-3.9,4.4-6.6l-0.1-8c0-0.9,0.3-1.4,1-1.7
			c0.7-0.3,1.4-0.2,2,0.3l17.4,16.1c1.9,1.6,3.9,2.3,6.2,2.2c2.2-0.1,4.2-1,6-2.7c1.6-1.9,2.4-3.9,2.2-6.2c-0.1-2.3-1-4.4-2.7-6.1
			L367.4,334.9z"/>
		<path class="st0" d="M335.4,339.6c0-0.1,0-0.1-0.1-0.2c-0.1,0-0.1,0-0.2,0c-0.1,0-0.1,0-0.2,0.1l-0.1,0.1c-0.1,0-0.1,0-0.1,0.1
			c-0.1,0.9,0.1,1.7,0.8,2.4c0.6,0.7,1.5,1.1,2.6,1c0.1,0,0.3,0,0.7,0c0.3-0.1,0.6-0.1,0.9-0.1c0.3-0.1,0.5-0.1,0.7-0.3
			c0.2-0.1,0.2-0.2,0.1-0.4c-0.1-0.1-0.4-0.1-0.9-0.1c-0.5,0-1.1,0-1.7-0.1c-0.6-0.1-1.1-0.3-1.6-0.7
			C335.7,341.1,335.4,340.5,335.4,339.6z"/>
		<path class="st1" d="M31.2,314.7c0.2-0.4,0.4-0.8,0.4-1.3c0-0.1,0-0.1,0-0.1c0,0-0.1,0-0.1,0c-0.1,0-0.2,0-0.2,0.1
			c-0.1,0.4-0.3,0.7-0.5,1c0,0.4-0.1,0.8-0.3,1.1C30.8,315.3,31,315.1,31.2,314.7z"/>
		<path class="st1" d="M109.3,311.1c-4-2.6-8.7-4.7-14-6.2c4.1-1.8,7.7-4,10.7-6.7c3.1-2.7,5.5-5.8,7.3-9.4
			c1.7-3.6,2.6-7.7,2.6-12.2c0-6.6-1.5-11.9-4.4-15.8c-2.9-4-6.7-7-11.3-9c-4.6-2-9.8-3.4-15.4-4c-5.6-0.6-11.1-0.9-16.6-0.9
			l-32.5,0.2c-4.7,0.3-9,1.6-12.9,4.2c-3.9,2.5-7,5.9-9.4,10c-2.4,4.1-3.5,8.5-3.5,13.3l0.5,68.4c0.5,6.4,1.5,10.7,2.9,12.7
			c4.9,9.2,12.6,14.3,23.1,15.5l30.8-0.2c9.8-0.1,18.1-0.8,25.2-2.1c6.4-1.2,11.8-3.1,16.3-5.7c4.5-2.6,7.9-6.1,10.2-10.6
			c2.3-4.4,3.5-10,3.4-16.8c0-5.8-1.2-10.7-3.5-14.7C116.5,317,113.3,313.7,109.3,311.1z M95.3,324.1c0.5,0.5,1,0.8,1.5,1
			c0.5,0.3,0.8,0.5,0.8,0.7c0.1,0.4-0.1,0.7-0.4,0.7c-0.3,0-0.6-0.1-1-0.3c-0.4-0.2-0.7-0.3-0.9-0.4c-1-0.6-1.7-1.7-2-3.1
			c-0.3-1.4-0.3-2.8,0.1-4.2c0.1-0.1,0.2-0.1,0.3-0.2c0.1,0,0.1,0,0.2,0.1c0.1,0.1,0.1,0.1,0.1,0.2c-0.3,1.5-0.2,2.6,0.1,3.5
			C94.4,323,94.8,323.6,95.3,324.1z M86,255.3c0.4-0.4,1.1-0.5,2.1-0.5c1,0,2,0.1,3,0.2c1,0.2,1.8,0.3,2.4,0.5
			c4.1,1.2,7.7,3.7,10.8,7.7c3.1,3.9,5,8.1,5.9,12.5c-0.2,0.4-0.5,0.7-1,0.7c-0.4,0-0.7-0.2-0.9-0.6c-1.5-4.6-3.4-8.1-5.6-10.4
			c-2.2-2.3-4.5-3.9-6.8-4.9c-2.3-0.9-4.3-1.5-6.1-1.8c-1.9-0.3-3.1-0.7-3.6-1.3C85.6,256.3,85.5,255.7,86,255.3z M82.4,316.6
			c0.3-0.1,0.6-0.3,0.9-0.5c0.4-0.2,0.6-0.6,0.8-1.2c0.1-0.1,0.1-0.1,0.2-0.1c0.1,0,0.1,0,0.1,0c0,0,0,0.1,0,0.1
			c-0.1,0.5-0.2,0.9-0.4,1.3c-0.2,0.4-0.5,0.6-0.9,0.7c-0.1,0.1-0.3,0.1-0.5,0.2c-0.2,0.1-0.4,0.1-0.6,0c-0.2,0-0.2-0.1-0.2-0.4
			C82,316.8,82.2,316.7,82.4,316.6z M54.5,267.9c3.8-0.1,7.2,0.1,10.2,0.5c3,0.4,5.4,1.5,7.2,3.5c1.8,1.9,2.7,5.2,2.7,9.8
			c0,4.9-0.9,8.4-2.9,10.4c-1.9,2.1-4.5,3.3-7.7,3.8c-3.2,0.5-6.6,0.7-10.4,0.6c-0.1,0-0.2,0-0.3,0l-0.2-28.6
			C53.6,267.9,54.1,267.9,54.5,267.9z M65.2,316.3c3.3,0.4,6.1,1.6,8.5,3.6c1.6,1.6,2.8,3.5,3.5,5.7s1,4.6,1,7
			c0,4.5-0.6,7.9-1.8,10.4c-1.2,2.5-2.9,4.2-5.1,5.3c-2.2,1.1-4.8,1.7-7.8,1.9c-3,0.2-6.3,0.3-9.9,0.4l-0.2-34.7c0.6,0,1.2,0,1.8,0
			C58.7,315.7,62,315.9,65.2,316.3z M25.9,311.1c0.1-0.1,0.1-0.1,0.2-0.1l0.1,0.2c-0.2,0.8-0.2,1.5,0,1.9c0.1,0.5,0.3,0.8,0.6,1.1
			c0.2,0.2,0.5,0.4,0.7,0.5c0.2,0.1,0.3,0.1,0.3,0.2c0.1,0.1,0.1,0.2,0.1,0.2c0.1,0.2,0,0.3-0.2,0.3s-0.3-0.1-0.5-0.2
			c-0.2-0.1-0.3-0.2-0.5-0.2c-0.5-0.4-0.8-0.9-1-1.7C25.5,312.6,25.6,311.9,25.9,311.1z M115.7,350.9c-2.1,3.9-5.2,7.1-9.2,9.3
			c-4,2.3-9,4-14.8,5c-6.7,1.3-14.9,2-24.4,2.1l-27,0.2c-2.2,0-4.2-0.1-5.8-0.2c-1.7-0.2-3.6-0.8-5.7-1.7
			c-9.1-4.3-14-11.5-14.7-21.5l-0.2-35.2c1.1,0.4,2.1,0.3,3-0.1c0.9-0.5,1.5-1.1,1.7-1.9c0.5-1.3,1.2-2,2-2.2
			c0.9-0.2,1.7-0.1,2.4,0.4c0.7,0.5,1.2,1.1,1.3,1.8c0.1,1.4,0.1,2.7,0,4c-0.1,1.3-0.1,2.5,0.1,3.5c0.1,1,0.7,1.8,1.5,2.4
			c1.1,0.6,2.3,0.6,3.4,0c0.6-0.3,1-0.8,1.3-1.5c0,0-0.1,0.1-0.1,0.1c-0.1,0.1-0.3,0.1-0.5,0.2c-0.2,0.1-0.4,0.1-0.6,0
			c-0.2,0-0.2-0.1-0.2-0.4c0.1-0.1,0.2-0.2,0.4-0.2c0.3-0.1,0.6-0.3,0.9-0.5c0.1-0.1,0.2-0.2,0.3-0.3c0-0.2,0.1-0.4,0.1-0.7
			c0-1,0.4-1.7,1.1-2.1c0.8-0.4,1.6-0.5,2.4-0.2c0.8,0.3,1.3,1.1,1.5,2.3c0.2,1.3,0.8,2.2,1.9,2.7c1.1,0.6,2.3,0.7,3.5,0.3
			c1.2-0.4,2-1.4,2.5-3c0.3-0.8,0.8-1.5,1.5-2.1c0.8-0.6,1.7-0.9,2.7-0.8c1,0.1,2,0.7,3,2c-0.7,0.3-1.1,0.9-1,1.6l0.3,38.2
			c0,0.5,0.2,1,0.6,1.3c0.4,0.3,0.8,0.5,1.3,0.5c0.8,0,1.6,0,2.5,0c3.7,0.1,7.2-0.1,10.7-0.4c3.5-0.4,6.6-1.4,9.3-3.1
			c2.7-1.7,4.7-4.5,6.1-8.5c1-3.3,1.4-7.1,1.1-11.3c-0.2-4.2-1.4-8-3.5-11.2c-2.5-2.9-5.6-5-9.5-6.1c-0.5-0.2-0.6-0.5-0.3-0.9
			c0.4-0.4,1-0.7,1.9-0.9c0.9-0.3,1.9-0.4,3.1-0.4c1.1,0,2.1,0.2,3.1,0.6c0.9,0.4,1.6,1.2,2,2.3c0.1,0.2,0.1,0.4,0.2,0.7
			c0.1,0.7,0.3,1.5,0.8,2.3c0.4,0.8,1.3,1.2,2.7,1.2c0.9,0,1.6-0.2,2.1-0.6c0.5-0.4,0.8-0.9,1-1.4c0.2-0.5,0.3-0.9,0.4-1.3
			c0-0.1,0-0.2,0.1-0.2c0.5-1.1,1.2-1.7,2.2-1.9c1-0.2,1.9-0.1,2.8,0.4c0.9,0.5,1.3,1.2,1.3,2l0,6.7c0.1,2.6,1,4.3,2.8,5.1
			c1.8,0.9,3.5,0.8,5.3,0c1.8-0.9,2.7-2.6,2.7-5.2l-0.1-7.2c0.3,1.6,1,2.7,2.2,3.5c1.2,0.7,2.5,0.9,3.9,0.4l2.2-1.7
			c2.7,2.5,4.6,5.3,5.8,8.5c1.2,3.2,1.8,6.6,1.8,10.3C118.8,341.9,117.8,347,115.7,350.9z"/>
		<path class="st1" d="M30.5,314.6c-0.4,0.2-0.7,0.4-0.9,0.5c-0.2,0.1-0.4,0.1-0.4,0.2c-0.1,0.2,0,0.3,0.2,0.4c0.2,0,0.4,0,0.6,0
			c0.2-0.1,0.4-0.1,0.5-0.2c0,0,0.1,0,0.1-0.1c0.1-0.3,0.2-0.7,0.3-1.1C30.7,314.4,30.6,314.5,30.5,314.6z"/>
		<path class="st1" d="M153.7,251.4c-3.1-3-6.8-4.5-11.2-4.5c-4.4,0-8.1,1.6-11.1,4.7c-3.1,3.1-4.6,6.8-4.6,11.2l0.5,90.9
			c0,4.4,1.6,8.1,4.7,11.1c3.1,3,6.8,4.5,11.2,4.5c4.3,0,8-1.6,11.1-4.7c3-3.1,4.5-6.8,4.5-11.1l-0.5-90.9
			C158.3,258.2,156.8,254.5,153.7,251.4z M146.1,338.8c0.4-0.5,0.6-1.1,0.6-1.6l0.2-3.7c0.1-0.3,0.3-0.3,0.5-0.1l0,3.8
			c0,0.9-0.3,1.5-0.9,2c-0.1,0-0.1,0-0.2,0c-0.1,0-0.1-0.1-0.2-0.1c-0.1-0.1-0.1-0.1-0.1-0.2C146,338.9,146,338.9,146.1,338.8z
			 M137.2,252.7c1-0.4,1.6-0.6,2-0.8c0.4-0.1,0.5-0.1,0.4,0c-0.1,0.1-0.3,0.3-0.6,0.7c-0.4,0.3-0.8,0.6-1.1,1.1
			c-2.5,3.1-4.2,6.6-5,10.5c-0.8,3.9-1.2,7.2-1.2,9.9c-0.1,1.1-0.2,2-0.3,2.6c-0.1,0.6-0.2,0.8-0.4,0.5
			C128.4,263.6,130.5,255.4,137.2,252.7z M138.6,339.1c-0.2,0.1-0.4,0.2-0.6,0.2c-0.2,0-0.4,0-0.5,0c-0.7,0-1.2-0.4-1.6-1
			c-0.4-0.6-0.7-1.3-0.7-2l0.1-0.1l0.1-0.1l0.1,0l0,0.1c0.2,0.8,0.4,1.3,0.7,1.6c0.3,0.3,0.7,0.5,1,0.6c0.4,0.1,0.7,0.1,0.9,0
			c0.1,0,0.2,0,0.3,0c0.1,0,0.2,0.1,0.2,0.1C138.8,338.9,138.7,339,138.6,339.1z M151.8,362c-2.4,2.4-5.3,3.6-8.6,3.7
			c-3.4,0-6.3-1.2-8.6-3.5c-2.5-2.4-3.7-5.2-3.7-8.6l-0.1-17.6c0.4-0.1,0.7-0.2,1.1-0.2c0.6,0,1.2,0.2,1.7,0.6
			c0.5,0.4,0.9,0.9,1,1.5c0.5,1.5,1.4,2.3,2.8,2.3c1.4,0,2.3-0.8,2.8-2.3c0-0.6,0.3-1.1,0.9-1.5c0.5-0.4,1.1-0.4,1.8,0
			c0.5,0.4,0.8,0.9,0.8,1.5c-0.1,0.9,0.2,1.7,1,2.2c0.9,0.4,1.7,0.4,2.5,0c0.8-0.5,1.1-1.3,1-2.2l0-4.7c0.3-1.1,1-1.6,2-1.6
			c0.4,0,0.8,0.1,1.2,0.4c0.4,0.3,0.6,0.7,0.7,1.2c0.6,1,1.3,1.5,2.4,1.5c0.1,0,0.2,0,0.3-0.1c0.1,0,0.2,0,0.3,0l0.1,18.9
			C155.3,356.7,154.1,359.6,151.8,362z"/>
		<path class="st1" d="M234.8,294.1c-4.2-1.9-8.4-2-12.7-0.6c-4.3,1.5-7.5,4.6-9.5,9.3c-0.7-0.6-1.5-1.3-2.2-2
			c-6.2-4.8-13.2-6.7-20.8-5.9c-7.6,0.8-13.9,4.4-19,10.7c-3.4,4.8-5.7,10.6-6.9,17.6c-1.2,7-1.2,13.9-0.1,20.8
			c1.1,6.9,3.5,12.7,7.2,17.4c3.7,4.3,8.1,7.1,13.2,8.5c5.1,1.4,10.3,1.5,15.6,0.4c5.3-1.2,10.1-3.5,14.3-6.9
			c3.4,2.8,7.2,4.4,11.5,4.9c3.7,0.5,7.2,0.1,10.5-1.2c3.4-1.3,5.8-3.7,7.3-7.2l0.9-3.4l-0.4-51.7C242,299.5,239,296,234.8,294.1z
			 M233.4,340.3c0.1-0.1,0.2-0.1,0.4-0.1c0.2,0,0.4,0,0.7-0.1c0.2-0.1,0.5-0.2,0.8-0.4c0.3-0.2,0.5-0.6,0.7-1.1l0.1,0l0.1,0
			c0.1,0,0.1,0.1,0,0.3c-0.1,0.2-0.2,0.5-0.4,0.7c-0.2,0.3-0.5,0.5-0.7,0.7c-0.3,0.2-0.6,0.3-0.9,0.3c-0.1,0-0.1,0-0.2,0
			c-0.1,0-0.2,0-0.3,0c-0.1,0-0.2-0.1-0.2-0.1C233.3,340.5,233.3,340.4,233.4,340.3z M224.2,334.7l0.3,4.1c0,0.4,0.1,0.8,0.2,1
			c0.1,0.2,0.3,0.4,0.4,0.6c0.1,0.1,0.2,0.1,0.2,0.2c0,0.1,0,0.2-0.1,0.3c-0.2,0.2-0.4,0.2-0.6,0c-0.2-0.2-0.4-0.5-0.6-0.9
			c-0.1-0.4-0.2-0.8-0.2-1.1l0-4.3C223.9,334.3,224.1,334.3,224.2,334.7z M197.3,323.9c0.4-3,1.2-5.4,2.3-7.4
			c1.1-1.9,2.6-2.9,4.6-2.9c2,0,3.6,0.9,4.8,2.9c1.2,1.9,2,4.4,2.5,7.3c0.5,2.9,0.7,6,0.7,9.3c0,3.3-0.2,6.3-0.6,9.1
			c-0.4,2.8-0.9,4.9-1.5,6.5c-1,2-2.2,3.3-3.6,3.9c-1.6,0.7-3,0.6-4.3-0.2c-1.3-0.8-2.3-2-3-3.7c-0.7-1.5-1.2-3.7-1.7-6.4
			c-0.5-2.8-0.7-5.8-0.8-9C196.6,330,196.8,326.9,197.3,323.9z M185.2,301.4c1.1,0,1.8,0,2.2,0.1c0.4,0.1,0.5,0.1,0.3,0.2
			c-0.1,0.1-0.4,0.2-0.9,0.4c-0.4,0.2-0.9,0.4-1.5,0.6c-3.4,1.9-6.2,4.5-8.4,7.9c-2.2,3.4-3.8,6.3-4.8,8.7c-0.5,1-0.9,1.8-1.2,2.3
			c-0.3,0.5-0.5,0.6-0.6,0.3C173,308.3,177.9,301.5,185.2,301.4z M185.8,339.7c-0.1,0.1-0.2,0.1-0.4,0c-0.2,0-0.3-0.1-0.3-0.1
			c-0.3-0.1-0.5-0.3-0.7-0.6c-0.2-0.3-0.4-0.6-0.5-0.9c-0.1-0.3-0.2-0.6-0.3-0.8c0-0.2,0-0.4,0.1-0.4c0.1,0,0.1,0,0.1,0.1l0.1,0
			c0.1,0.6,0.2,1,0.4,1.3c0.2,0.3,0.4,0.5,0.7,0.6c0.2,0.1,0.4,0.2,0.7,0.2c0.1,0,0.1,0,0.2,0c0.1,0,0.1,0.1,0.1,0.1
			C186,339.5,185.9,339.6,185.8,339.7z M176.1,339c0,0.1,0,0.2,0,0.3c-0.2,0.2-0.4,0.2-0.6,0c-0.2-0.2-0.4-0.5-0.5-0.9
			c-0.2-0.4-0.3-0.8-0.3-1.1l0-4.3c0.2-0.3,0.3-0.2,0.5,0.1l0.2,4.1c0.1,0.4,0.1,0.8,0.3,1c0.1,0.2,0.2,0.4,0.3,0.5
			C176,338.7,176.1,338.8,176.1,339z M240,358.8c-1.2,2.6-3.1,4.4-5.9,5.2c-2.7,0.9-5.5,1.1-8.1,0.8c-4.1-0.5-7.7-2.2-10.7-5.1
			c-0.4-0.3-0.8-0.4-1.3-0.4c-0.5,0-0.9,0.1-1.2,0.5c-5.9,5.2-12.6,7.8-20.3,7.9c-6.3-0.1-11.3-1.7-15.1-4.8s-6.6-7.1-8.3-12.2
			c-1.8-5.1-2.6-10.5-2.7-16.2c0.7,0.1,1.4,0,2-0.4c0.6-0.4,1-0.8,1.2-1.4c0.3-1,0.8-1.6,1.5-1.7c0.7-0.2,1.3-0.1,1.9,0.3
			c0.6,0.4,0.9,0.8,1,1.4l0,5.2c0,1.3,0.4,2.2,1.3,2.6c0.8,0.4,1.7,0.4,2.5,0c0.8-0.4,1.3-1.3,1.2-2.6c0-0.7,0.3-1.2,0.9-1.6
			c0.6-0.4,1.2-0.4,1.8-0.2c0.6,0.2,1,0.8,1.2,1.7c0.2,1,0.7,1.7,1.6,2.2c0.9,0.5,1.8,0.5,2.7,0.2s1.6-1.1,2-2.4
			c0.2-0.8,0.6-1.4,1.3-1.8s1.6-0.6,2.5-0.4c0.4,6.5,1.3,11.4,2.6,14.6c2.2,4.3,5.1,6.4,8.8,6.4c3.6-0.1,6.5-2.2,8.6-6.5
			c1.3-3.2,2.2-7.8,2.5-13.9c0.7,0.1,1.3,0,1.9-0.3c0.6-0.3,1-0.7,1.1-1.2c0.3-0.9,0.8-1.5,1.4-1.6c0.6-0.1,1.2,0,1.7,0.3
			c0.5,0.3,0.8,0.8,0.9,1.3l0,4.7c0,1.1,0.4,1.9,1.2,2.3c0.8,0.4,1.6,0.4,2.3,0c0.8-0.4,1.1-1.2,1-2.3c0-0.7,0.3-1.1,0.8-1.5
			c0.5-0.3,1.1-0.4,1.7-0.2c0.6,0.2,1,0.8,1.1,1.6c0.1,0.9,0.6,1.5,1.4,1.9c0.8,0.4,1.6,0.5,2.5,0.2c0.8-0.3,1.4-1,1.7-2.1
			c0.3-0.8,0.8-1.4,1.5-1.8c0.7-0.4,1.5-0.5,2.3-0.2l0.1,19.3C240.4,357.3,240.2,358.1,240,358.8z"/>
		<path class="st1" d="M284.8,311.5c1.4-1.9,3.8-2.9,7.3-2.9c2.6,0,4.6,0.8,6.1,2.6c1.5,1.8,2.5,3.9,3.2,6.2l0.5,0.7
			c1.8,1.8,3.9,2.8,6.3,3c3.9,0.1,6.8-1.2,8.9-3.9c2.1-2.7,2.6-5.8,1.6-9.2c-2.2-5.7-6.1-9.7-11.8-12.2c-5.6-2.5-11.8-3.8-18.4-3.8
			c-6.6,0-12.4,0.9-17.4,2.7c-7.9,2.9-13.9,7.5-17.9,13.9c-3.9,6.3-5.9,13.7-5.8,22c0.1,8.2,2.1,15.5,6,21.9
			c4,6.4,9.9,10.9,17.8,13.8c6.2,2.1,13.2,2.9,20.8,2.4c7.6-0.6,14.1-3,19.4-7.2l3.3-3.4c1-1.3,1.9-2.7,2.5-4
			c1.3-3.2,1.2-6.2-0.5-9.2c-1.6-2.6-3.7-4.2-6.2-4.8c-2.5-0.6-4.9-0.3-7.2,0.9c-2.3,1.1-4,2.9-4.9,5.5c-1.6,3.4-3.9,5.2-7,5.3
			c-3.1,0.1-5.4-1.4-7.1-4.3c-1.5-3.4-2.3-8-2.6-13.7c-0.1-5.7,0-10.4,0.6-14.1C282.6,316,283.4,313.4,284.8,311.5z M293.2,297.3
			c13.7,1.6,20.9,6,21.5,13.3c0.1,1.1,0.2,1.8,0.2,2.1c0,0.4-0.1,0.5-0.2,0.4c-0.1-0.2-0.3-0.4-0.4-0.8c-0.2-0.4-0.5-0.9-0.7-1.5
			c-2.1-3.3-5-5.8-8.5-7.7c-3.5-1.9-6.5-3.3-9-4.2c-1.1-0.4-1.9-0.8-2.5-1C293.1,297.6,292.9,297.4,293.2,297.3z M270.4,338.2
			c0.1-0.1,0.2-0.1,0.4-0.1c0.2,0.1,0.5,0.1,0.7,0c0.3-0.1,0.6-0.2,0.9-0.5c0.3-0.2,0.6-0.6,0.8-1.2c0.1,0,0.1,0,0.1-0.1l0.1,0
			l0.1,0.1c-0.2,0.6-0.5,1.1-0.9,1.6c-0.4,0.5-0.9,0.7-1.4,0.7c-0.1,0-0.2,0-0.4,0c-0.2-0.1-0.3-0.1-0.4-0.2
			C270.3,338.4,270.3,338.3,270.4,338.2z M260.2,332.7l0.2,4.1c0,0.7,0.3,1.3,0.8,1.7c0,0.1,0,0.2,0,0.2c-0.1,0.1-0.1,0.1-0.1,0.2
			c-0.1,0.1-0.1,0.1-0.2,0.2c-0.1,0-0.1,0-0.2,0c-0.7-0.5-1.1-1.2-1.1-2.1l0-4.3C259.8,332.4,260,332.5,260.2,332.7z M284.5,353.3
			c1.6,1.2,3.8,1.8,6.6,1.8c5.2,0,8.7-2.6,10.6-7.7c1-2.2,2.4-3.5,4.3-4c2-0.4,3.8-0.2,5.5,0.9c1.8,1.1,2.7,2.8,3,5.1
			c-0.1,2.3-1,4.4-2.7,6.2c-3,3.6-6.8,6.1-11.6,7.5c-4.7,1.5-9.5,2.2-14.5,2c-5-0.2-9.5-1-13.4-2.4c-6.5-2.4-11.5-6.1-15.1-11.1
			c-3.6-5-5.7-11-6.2-17.9c0.8,0.2,1.6,0.1,2.2-0.3c0.6-0.4,1.1-0.9,1.3-1.4c0.1-0.5,0.3-1,0.7-1.3c0.4-0.4,0.9-0.6,1.5-0.6
			c0.5,0,1,0.2,1.4,0.6c0.4,0.3,0.7,0.8,0.8,1.3c0.1,1,0,2-0.1,2.9c0,1,0,2,0.1,2.8c0.1,0.8,0.4,1.5,1.1,2c0.9,0.5,1.8,0.5,2.7,0.1
			c0.8-0.4,1.2-1.3,1.2-2.5c0-0.8,0.3-1.3,0.9-1.7c0.6-0.3,1.2-0.4,1.8-0.2c0.7,0.2,1.1,0.8,1.2,1.9c0.1,0.9,0.6,1.6,1.5,2
			c0.8,0.4,1.7,0.5,2.7,0.2c0.9-0.3,1.5-1,1.9-2.3c0.3-0.9,0.8-1.5,1.6-2c0.8-0.4,1.7-0.5,2.6-0.2c0.1,2.2,0.4,4.5,0.7,6.9
			c0.4,2.3,1,4.5,1.9,6.4C281.6,350.5,282.9,352.1,284.5,353.3z"/>
		<path class="st1" d="M367.4,329.9l16.8-19.6c1.9-2.4,2.8-5.1,2.5-7.9c-0.2-2.8-1.5-5.2-3.6-7.2c-2.4-1.9-5-2.8-7.9-2.6
			c-2.9,0.2-5.4,1.4-7.5,3.7l-12.9,15l-0.2-29.8l-0.1-0.5c-1-3.6-2.9-6.5-5.7-8.6c-5.1-3.5-10.3-4.3-15.5-2.3
			c-5.2,1.9-8.6,5.9-10.1,11.8l0.4,74.1l0,0.3c1.5,5.4,4.4,9.1,8.7,11.1c4.4,2,8.9,2.1,13.3,0.4c4.5-1.7,7.6-5.4,9.3-10.9l0-4.6
			l14.4,13.2c2.6,2.3,5.5,3.4,8.8,3.2c3.2-0.2,6-1.5,8.5-3.9c2.3-2.5,3.4-5.4,3.3-8.7c-0.1-3.3-1.4-6.2-3.8-8.6L367.4,329.9z
			 M381,308.5c2.3-3.7,2.3-7.7,0.1-12c0-0.1,0-0.1,0-0.2l0.1,0c0-0.1,0-0.1,0.1-0.1l0.1,0c0,0.1,0,0.1,0.1,0.1
			c2.9,4.4,3.1,8.8,0.6,12.9c-0.1,0.1-0.2,0.2-0.4,0.2c-0.2,0.1-0.3,0-0.4-0.2c-0.1-0.1-0.2-0.2-0.2-0.3
			C380.9,308.7,380.9,308.6,381,308.5z M352,341.6c0.6-0.7,1-1.4,1-2.3l0.3-5.6c0.2-0.4,0.4-0.5,0.7-0.1l0,5.9
			c0,1.1-0.4,2.1-1.4,2.9c-0.2,0-0.3-0.1-0.5-0.2c-0.1-0.1-0.1-0.2-0.1-0.2C352,341.8,352,341.7,352,341.6z M339.5,342.3
			c0.5-0.1,0.8,0,0.9,0.1c0.1,0.2,0.1,0.3-0.1,0.4c-0.2,0.1-0.4,0.2-0.7,0.3c-0.3,0-0.6,0-0.9,0.1c-0.3,0-0.5,0-0.7,0
			c-1.1,0-2-0.3-2.6-1c-0.6-0.7-0.9-1.5-0.8-2.4c0-0.1,0-0.1,0.1-0.1l0.1-0.1c0.1-0.1,0.1-0.1,0.2-0.1c0.1,0,0.1,0,0.2,0
			c0.1,0.1,0.1,0.1,0.1,0.2c0.1,0.9,0.3,1.5,0.8,1.9c0.5,0.4,1,0.6,1.6,0.7C338.5,342.3,339,342.3,339.5,342.3z M334,274.7
			c1-0.4,1.7-0.7,2-0.8c0.4-0.1,0.5-0.1,0.5,0c-0.1,0.2-0.3,0.4-0.6,0.7c-0.4,0.3-0.8,0.7-1.1,1.2c-2.5,3.1-4.2,6.6-4.9,10.5
			c-0.8,3.9-1.2,7.2-1.3,9.9c0,1.1-0.1,2-0.1,2.5c-0.1,0.5-0.2,0.7-0.4,0.6C325.3,285.6,327.3,277.4,334,274.7z M384.2,362.3
			c-1.8,1.7-3.8,2.6-6,2.7c-2.3,0.2-4.4-0.5-6.2-2.2l-17.4-16.1c-0.6-0.5-1.3-0.6-2-0.3c-0.7,0.3-1,0.9-1,1.7l0.1,8
			c-0.9,2.7-2.3,4.9-4.4,6.6c-2.4,1.8-5,2.7-7.8,2.7c-2.8,0-5.4-0.9-7.8-2.7c-2.2-1.8-3.7-4.1-4.4-6.9l-0.1-17.3
			c1.4-0.8,2.8-1,4.2-0.4c1.4,0.5,2.3,1.5,2.7,2.8c0.5,1.8,1.4,2.9,2.7,3.3c1.3,0.4,2.6,0.3,3.8-0.4c1.2-0.7,1.9-1.6,2.1-3
			c0.2-1.4,0.7-2.2,1.6-2.5c0.9-0.3,1.7-0.3,2.6,0.2c0.8,0.5,1.2,1.2,1.2,2.3c0,1.7,0.6,2.9,1.8,3.5c1.2,0.6,2.4,0.6,3.6,0
			c1.2-0.6,1.8-1.7,1.7-3.5l-0.1-7.3c0.2-0.9,0.6-1.6,1.4-2.1c0.8-0.5,1.7-0.6,2.6-0.4c0.9,0.3,1.6,1.1,2.1,2.4
			c0.4,0.9,1.2,1.6,2.4,2.1c1.2,0.5,2.5,0.3,3.8-0.5l16.4,15c1.7,1.7,2.6,3.8,2.7,6.1C386.5,358.3,385.8,360.4,384.2,362.3z"/>
	</g>
</g>
</svg>
