<?xml version="1.0" encoding="utf-8"?>
<!-- Generator: Adobe Illustrator 25.0.0, SVG Export Plug-In . SVG Version: 6.00 Build 0)  -->
<svg version="1.1" id="Layer_1" xmlns="http://www.w3.org/2000/svg" xmlns:xlink="http://www.w3.org/1999/xlink" x="0px" y="0px"
	 viewBox="0 0 400 180" style="enable-background:new 0 0 400 180;" xml:space="preserve">
<style type="text/css">
	.st0{fill:#FFFFFF;}
</style>
<g>
	<path class="st0" d="M8.1,63.3h10.7v23.3H19l17.8-23.3h11.8L32.2,84.4L51.5,117H39.8L25.9,92.8l-7,9.1V117H8.1V63.3z"/>
	<path class="st0" d="M53,89.9c0-17.5,9.8-27.6,24-27.6s24,10.2,24,27.6s-9.8,28-24,28C62.8,118,53,107.3,53,89.9z M90,89.9
		c0-11.5-5.1-18.4-13-18.4s-13,6.9-13,18.4c0,11.4,5.1,18.8,13,18.8S90,101.4,90,89.9z"/>
	<path class="st0" d="M111.5,63.3h18.7c11.2,0,20.1,4,20.1,16.3c0,8-4.1,13-10.2,15.4l12.5,22h-11.9l-11-20.3h-7.5V117h-10.7
		L111.5,63.3L111.5,63.3z M129.2,88.2c6.9,0,10.7-2.9,10.7-8.6c0-5.8-3.8-7.8-10.7-7.8h-6.9v16.4H129.2z"/>
	<path class="st0" d="M170.1,72.3h-15.1v-9h41v9h-15.2V117h-10.7L170.1,72.3L170.1,72.3z"/>
	<path class="st0" d="M199.9,89.9c0-17.5,9.8-27.6,24-27.6s24,10.2,24,27.6s-9.8,28-24,28C209.6,118,199.9,107.3,199.9,89.9z
		 M236.9,89.9c0-11.5-5.1-18.4-13-18.4c-8,0-13,6.9-13,18.4c0,11.4,5.1,18.8,13,18.8C231.8,108.7,236.9,101.4,236.9,89.9z"/>
	<path class="st0" d="M267.7,63.3h12.6l17.2,53.7h-11.2l-3.8-13.8h-17.4l-3.8,13.8h-10.9L267.7,63.3z M267.5,94.9h12.8l-1.6-5.9
		c-1.7-5.6-3.1-11.7-4.6-17.5h-0.4c-1.4,5.9-3,11.9-4.6,17.5L267.5,94.9z"/>
	<path class="st0" d="M302.6,92.8V63.3h10.7v30.5c0,11.2,3.9,14.9,10.1,14.9c6.4,0,10.4-3.8,10.4-14.9V63.3h10.3v29.6
		c0,17.8-7.6,25.1-20.7,25.1C310.4,118,302.6,110.7,302.6,92.8z"/>
	<path class="st0" d="M352.6,110.2l6.2-7.4c3.8,3.6,8.9,5.9,13.6,5.9c5.6,0,8.5-2.4,8.5-6.2c0-4-3.3-5.2-8-7.2l-7.2-3
		c-5.4-2.2-10.9-6.6-10.9-14.4c0-8.8,7.7-15.5,18.5-15.5c6.2,0,12.5,2.5,16.8,6.9l-5.4,6.7c-3.4-2.8-7-4.4-11.4-4.4
		c-4.7,0-7.7,2.1-7.7,5.7c0,3.8,3.8,5.2,8.3,7l7,3c6.5,2.7,10.8,6.8,10.8,14.6c0,8.8-7.3,16.2-19.7,16.2
		C365,118,357.8,115.2,352.6,110.2z"/>
	<g>
		<path class="st0" d="M35.9,36.1v16.2h-3.4v-6.5l-15.1,1L17,43.9l15.5-0.7v-4.4H17.7v-2.7H35.9z"/>
	</g>
	<g>
		<path class="st0" d="M90.4,140.7v2.7H64v-2.7h11.5v-11.8h3.3v11.8H90.4z"/>
	</g>
	<g>
		<path class="st0" d="M184.8,49.1v2.7h-18.6V36.1h18.4v2.7h-15v3.7h14.8v2.7h-14.8v3.9H184.8z"/>
	</g>
	<g>
		<path class="st0" d="M237.1,131.6h-11.6v12.3h-3.3v-12.3h-11.5v-2.7h26.4V131.6z"/>
	</g>
	<g>
		<path class="st0" d="M283.7,44.3c0,4.8-4.1,8.2-9.2,8.2c-5.1,0-9.2-3.4-9.2-8.2c0-4.8,4.1-8.2,9.2-8.2
			C279.6,36.1,283.7,39.5,283.7,44.3z M268.4,44.3c0,3.2,2.6,5.3,6,5.3c3.4,0,6-2.2,6-5.3c0-3.2-2.6-5.3-6-5.3
			C271.1,38.9,268.4,41.1,268.4,44.3z"/>
	</g>
	<g>
		<path class="st0" d="M313.5,140.7v2.7h-26.4v-2.7h11.5v-11.8h3.3v11.8H313.5z"/>
	</g>
	<g>
		<path class="st0" d="M374.4,40.2c0,4.6,3.1,8.2,8.3,9.5l-1.6,2.6c-4-1.1-7-3.5-8.4-6.8c-1.5,3.3-4.4,5.7-8.4,6.8l-1.6-2.6
			c5.2-1.3,8.3-4.9,8.3-9.5v-1.4h-7.5v-2.7h18.4v2.7h-7.6L374.4,40.2L374.4,40.2z"/>
	</g>
	<g>
		<path class="st0" d="M385.7,128.9v2.8h-26.4v-2.8H385.7z"/>
	</g>
</g>
</svg>
