<?xml version="1.0" encoding="utf-8"?>
<!-- Generator: Adobe Illustrator 25.0.1, SVG Export Plug-In . SVG Version: 6.00 Build 0)  -->
<svg version="1.1" id="Layer_1" xmlns="http://www.w3.org/2000/svg" xmlns:xlink="http://www.w3.org/1999/xlink" x="0px" y="0px"
	 viewBox="0 0 400 180" style="enable-background:new 0 0 400 180;" xml:space="preserve">
<style type="text/css">
	.st0{fill:#212121;}
</style>
<g>
	<path class="st0" d="M8.11,63.29h10.72v23.33h0.22L36.8,63.29h11.81L32.23,84.44l19.27,32.53H39.77L25.86,92.85l-7.03,9.06v15.07
		H8.11V63.29z"/>
	<path class="st0" d="M53.02,89.95c0-17.46,9.78-27.6,23.98-27.6c14.2,0,23.98,10.21,23.98,27.6c0,17.39-9.78,28.03-23.98,28.03
		C62.8,117.98,53.02,107.34,53.02,89.95z M90.04,89.95c0-11.52-5.07-18.4-13.04-18.4c-7.97,0-13.04,6.88-13.04,18.4
		c0,11.45,5.07,18.76,13.04,18.76C84.97,108.71,90.04,101.4,90.04,89.95z"/>
	<path class="st0" d="M111.48,63.29h18.69c11.23,0,20.14,3.98,20.14,16.3c0,8.04-4.06,13.04-10.21,15.43l12.53,21.95h-11.95
		l-11.01-20.28h-7.46v20.28h-10.72V63.29z M129.16,88.21c6.88,0,10.72-2.9,10.72-8.62c0-5.8-3.84-7.75-10.72-7.75h-6.95v16.37
		H129.16z"/>
	<path class="st0" d="M170.15,72.27h-15.07v-8.98h41v8.98h-15.21v44.7h-10.72V72.27z"/>
	<path class="st0" d="M199.85,89.95c0-17.46,9.78-27.6,23.98-27.6c14.2,0,23.98,10.21,23.98,27.6c0,17.39-9.78,28.03-23.98,28.03
		C209.63,117.98,199.85,107.34,199.85,89.95z M236.87,89.95c0-11.52-5.07-18.4-13.04-18.4c-7.97,0-13.04,6.88-13.04,18.4
		c0,11.45,5.07,18.76,13.04,18.76C231.8,108.71,236.87,101.4,236.87,89.95z"/>
	<path class="st0" d="M267.73,63.29h12.61l17.24,53.68h-11.23l-3.77-13.76h-17.39l-3.77,13.76h-10.87L267.73,63.29z M267.51,94.87
		h12.75l-1.59-5.87c-1.67-5.58-3.12-11.73-4.64-17.53h-0.36c-1.38,5.87-2.97,11.95-4.56,17.53L267.51,94.87z"/>
	<path class="st0" d="M302.57,92.85V63.29h10.72v30.5c0,11.16,3.91,14.92,10.14,14.92c6.37,0,10.43-3.77,10.43-14.92v-30.5h10.29
		v29.56c0,17.82-7.61,25.14-20.72,25.14C310.39,117.98,302.57,110.67,302.57,92.85z"/>
	<path class="st0" d="M352.62,110.16l6.16-7.39c3.84,3.55,8.91,5.94,13.62,5.94c5.58,0,8.55-2.39,8.55-6.16
		c0-3.98-3.26-5.22-8.04-7.24l-7.17-3.04c-5.43-2.25-10.87-6.59-10.87-14.42c0-8.77,7.68-15.5,18.54-15.5
		c6.23,0,12.46,2.46,16.81,6.88l-5.43,6.74c-3.4-2.82-6.95-4.42-11.37-4.42c-4.71,0-7.68,2.1-7.68,5.65c0,3.84,3.77,5.22,8.33,7.03
		l7.03,2.97c6.52,2.68,10.79,6.81,10.79,14.56c0,8.77-7.32,16.23-19.71,16.23C365.01,117.98,357.84,115.16,352.62,110.16z"/>
	<g>
		<path class="st0" d="M35.88,36.09v16.25H32.5v-6.55l-15.08,1.01L17,43.87l15.5-0.71v-4.38H17.71v-2.69H35.88z"/>
	</g>
	<g>
		<path class="st0" d="M90.36,140.67v2.73h-26.4v-2.73h11.52v-11.77h3.34v11.77H90.36z"/>
	</g>
	<g>
		<path class="st0" d="M184.79,49.09v2.72h-18.65V36.09h18.39v2.69h-15.02v3.66h14.76v2.72h-14.76v3.93H184.79z"/>
	</g>
	<g>
		<path class="st0" d="M237.05,131.62H225.5v12.29h-3.34v-12.29h-11.51v-2.72h26.4V131.62z"/>
	</g>
	<g>
		<path class="st0" d="M283.69,44.26c0,4.77-4.12,8.17-9.21,8.17c-5.12,0-9.24-3.41-9.24-8.17c0-4.77,4.12-8.17,9.24-8.17
			C279.57,36.09,283.69,39.49,283.69,44.26z M268.44,44.26c0,3.15,2.63,5.32,6.03,5.32c3.37,0,6-2.17,6-5.32
			c0-3.18-2.63-5.32-6-5.32C271.07,38.94,268.44,41.08,268.44,44.26z"/>
	</g>
	<g>
		<path class="st0" d="M313.53,140.67v2.73h-26.4v-2.73h11.52v-11.77h3.34v11.77H313.53z"/>
	</g>
	<g>
		<path class="st0" d="M374.35,40.24c0,4.61,3.08,8.21,8.34,9.5l-1.56,2.56c-4.02-1.14-6.97-3.54-8.43-6.84
			c-1.46,3.31-4.44,5.71-8.43,6.84l-1.59-2.56c5.25-1.3,8.34-4.9,8.34-9.5v-1.43h-7.46v-2.72h18.36v2.72h-7.56V40.24z"/>
	</g>
	<g>
		<path class="st0" d="M385.7,128.89v2.76h-26.4v-2.76H385.7z"/>
	</g>
</g>
</svg>
