<?xml version="1.0" encoding="utf-8"?>
<!-- Generator: Adobe Illustrator 25.0.0, SVG Export Plug-In . SVG Version: 6.00 Build 0)  -->
<svg version="1.1" id="Layer_1" xmlns="http://www.w3.org/2000/svg" xmlns:xlink="http://www.w3.org/1999/xlink" x="0px" y="0px"
	 viewBox="0 0 400 400" style="enable-background:new 0 0 400 400;" xml:space="preserve">
<style type="text/css">
	.st0{fill:#FFFFFF;}
</style>
<g>
	<path class="st0" d="M200,0H0v400h200h200V0H200z M367.68,367.68H200H32.32V32.32H200h167.68V367.68z"/>
	<path class="st0" d="M236.42,184.08v106c0,1.5,0.67,2,2,2h26.17c1.5,0,2-0.67,2-2v-105c5.83-2.5,21-3.83,31.5-3.33
		c1.33,0,1.83-0.33,1.83-1.67v-24.17c0-1.33-0.67-1.67-2-1.67c-27,0-50.83,7.33-61,11.5c-1.17,0.5-1.33,0.83-1.33,2.17
		C236.42,177.25,236.42,182.08,236.42,184.08L236.42,184.08z"/>
	<path class="st0" d="M144.75,107.92c-16.5,0-32.17,0.33-42.83,0.83c-1.33,0-1.67,0.83-1.67,2h0h-0.17v179.17c0,1.5,0.67,2,2,2
		h25.67c1.5,0,2-0.67,2-2v-64c4.5,0,6.67,0.33,13,0.33c37.67,0,68.33-18.17,68.33-60.5C211.08,133.25,190.92,107.92,144.75,107.92z
		 M143.25,199.58c-6.67,0-9.67,0-13.5-0.33v-64.33c3-0.17,9.33-0.5,16-0.5c22.33,0,35.33,10.67,35.33,31.83
		C181.08,192.75,162.75,199.58,143.25,199.58z"/>
</g>
</svg>
