<?xml version="1.0" encoding="utf-8"?>
<!-- Generator: Adobe Illustrator 25.0.0, SVG Export Plug-In . SVG Version: 6.00 Build 0)  -->
<svg version="1.1" id="Layer_1" xmlns="http://www.w3.org/2000/svg" xmlns:xlink="http://www.w3.org/1999/xlink" x="0px" y="0px"
	 viewBox="0 0 400 400" style="enable-background:new 0 0 400 400;" xml:space="preserve">
<style type="text/css">
	.st0{fill:#001E36;}
	.st1{fill:#00A8FF;}
</style>
<g>
	<g>
		<polygon class="st0" points="200,0 200,32.32 367.68,32.32 367.68,367.68 200,367.68 200,400 400,400 400,0 		"/>
		<polygon class="st1" points="32.32,367.68 32.32,32.32 200,32.32 200,0 0,0 0,400 200,400 200,367.68 		"/>
	</g>
	<g>
		<path class="st1" d="M270.83,209.67c-17.67-9.17-20.67-13.33-20.67-19.33c0-5.5,4.5-12.17,17.67-12.17c10.83,0,21.67,2.83,29,7.5
			c1.67,0.5,2.5-0.33,2.5-1.67v-22.83c0-1.17-0.33-2.5-1.67-3.33c-5.5-2.5-15.5-4.67-29.83-4.67c-29.17,0-46,17.83-46,39.33
			c0,19.17,9.83,30.67,33.5,42c16.83,8.67,20.67,14,20.67,20c0,7.5-5.5,13-18.67,13c-11,0-23-3-33.5-9.83c-1.17-0.83-2-0.33-2,1.33
			v24.5c0,1.33,0.17,2.17,1.33,2.67c7.17,4.17,19.67,7.17,34.17,7.17c27.5,0,47.83-14.33,47.83-41
			C305.17,234.5,297,222.33,270.83,209.67z"/>
		<path class="st1" d="M141.5,106.67c-16.5,0-32.33,0.33-43,0.83c-1.33,0-3.67,0.83-3.67,2h0v179c0,1.5,0.67,2,2,2h25.5
			c1.5,0,2-0.67,2-2v-64c4.5,0,6.67,0.33,13,0.33c37.67,0,68.33-18.17,68.33-60.5C205.67,132,187.67,106.67,141.5,106.67z
			 M138,198.33c-6.67,0-9.67,0-13.5-0.33v-64.33c3-0.17,9.33-0.5,16-0.5c22.17,0,35.33,10.67,35.33,31.83
			C175.83,191.5,157.5,198.33,138,198.33z"/>
	</g>
</g>
</svg>
