<?xml version="1.0" encoding="utf-8"?>
<!-- Generator: Adobe Illustrator 25.0.0, SVG Export Plug-In . SVG Version: 6.00 Build 0)  -->
<svg version="1.1" id="Layer_1" xmlns="http://www.w3.org/2000/svg" xmlns:xlink="http://www.w3.org/1999/xlink" x="0px" y="0px"
	 viewBox="0 0 400 400" style="enable-background:new 0 0 400 400;" xml:space="preserve">
<style type="text/css">
	.st0{fill:#1B1B1B;}
</style>
<g>
	<path class="st0" d="M200,0H0v400h200h200V0H200z M367.68,367.68H200H32.32V32.32H200h167.68V367.68z"/>
	<path class="st0" d="M87.58,200c0,44.46,25.85,82.94,63.37,101.14L97.31,154.25C91.07,168.23,87.58,183.7,87.58,200z"/>
	<path class="st0" d="M201.99,209.84l-33.74,98.01c10.07,2.95,20.72,4.57,31.77,4.57c13.08,0,25.64-2.28,37.33-6.39
		c-0.3-0.48-0.57-0.96-0.79-1.53L201.99,209.84z"/>
	<path class="st0" d="M106.08,138.25c2.64,0.09,5.12,0.15,7.23,0.15c11.76,0,29.99-1.44,29.99-1.44c6.04-0.34,6.75,8.54,0.68,9.28
		c0,0-6.06,0.7-12.87,1.07l40.95,121.75l24.6-73.77l-17.52-47.97c-6.05-0.37-11.79-1.07-11.79-1.07c-6.05-0.37-5.34-9.62,0.73-9.28
		c0,0,18.55,1.44,29.6,1.44c11.75,0,29.97-1.44,29.97-1.44c6.05-0.34,6.76,8.54,0.7,9.28c0,0-6.06,0.7-12.86,1.07l40.64,120.81
		l11.21-37.46c5.69-14.6,8.55-26.71,8.55-36.33c0-13.9-5-23.54-9.26-31.01c-5.69-9.26-11.03-17.09-11.03-26.36
		c0-10.33,7.82-19.94,18.88-19.94c0.48,0,0.96,0.06,1.44,0.1c-19.99-18.33-46.63-29.54-75.9-29.54
		C160.73,87.58,126.17,107.74,106.08,138.25z"/>
	<path class="st0" d="M256.54,297.16c33.4-19.49,55.88-55.69,55.88-97.16c0-19.56-4.98-37.92-13.76-53.94
		c0.48,3.61,0.77,7.44,0.77,11.58c0,11.39-2.14,24.21-8.56,40.25L256.54,297.16z"/>
</g>
</svg>
