<?xml version="1.0" encoding="utf-8"?>
<!-- Generator: Adobe Illustrator 25.0.0, SVG Export Plug-In . SVG Version: 6.00 Build 0)  -->
<svg version="1.1" id="Layer_1" xmlns="http://www.w3.org/2000/svg" xmlns:xlink="http://www.w3.org/1999/xlink" x="0px" y="0px"
	 viewBox="0 0 400 400" style="enable-background:new 0 0 400 400;" xml:space="preserve">
<style type="text/css">
	.st0{fill:#1B1B1B;}
</style>
<g>
	<path class="st0" d="M322.9,139.8c-3.1-13.5-14.2-23.5-27.5-25c-31.6-3.5-63.5-3.5-95.3-3.5c-31.8,0-63.8,0-95.3,3.5
		c-13.3,1.5-24.4,11.5-27.5,25c-4.4,19.3-4.5,40.3-4.5,60.2c0,19.8,0,40.9,4.4,60.2c3.1,13.5,14.2,23.5,27.5,25
		c31.6,3.5,63.5,3.5,95.3,3.5c31.8,0,63.8,0,95.3-3.5c13.3-1.5,24.4-11.5,27.5-25c4.4-19.3,4.5-40.3,4.5-60.2
		S327.3,159.1,322.9,139.8z M169.5,242.1v-84.2c27,14.1,53.8,28,80.9,42.2C223.4,214.2,196.6,228.1,169.5,242.1z"/>
	<path class="st0" d="M200,0H0v400h200h200V0H200z M367.7,367.7H200H32.3V32.3H200h167.7V367.7z"/>
</g>
</svg>
