<?xml version="1.0" encoding="utf-8"?>
<!-- Generator: Adobe Illustrator 25.0.0, SVG Export Plug-In . SVG Version: 6.00 Build 0)  -->
<svg version="1.1" id="Layer_1" xmlns="http://www.w3.org/2000/svg" xmlns:xlink="http://www.w3.org/1999/xlink" x="0px" y="0px"
	 viewBox="0 0 400 400" style="enable-background:new 0 0 400 400;" xml:space="preserve">
<style type="text/css">
	.st0{fill:#E7001F;}
	.st1{fill:#FF0436;}
	.st2{fill:#FFFFFF;}
</style>
<g>
	<g>
		<polygon class="st0" points="200,0 200,32.32 367.68,32.32 367.68,367.68 200,367.68 200,400 400,400 400,0 		"/>
		<polygon class="st1" points="32.32,367.68 32.32,32.32 200,32.32 200,0 0,0 0,400 200,400 200,367.68 		"/>
	</g>
	<g>
		<path class="st1" d="M104.68,285.19c31.56,3.52,63.5,3.54,95.31,3.52c31.82,0.02,63.76,0,95.31-3.52
			c13.33-1.49,24.4-11.48,27.52-25.02c4.44-19.27,4.45-40.32,4.45-60.17s0.04-40.89-4.4-60.16c-3.12-13.55-14.19-23.53-27.52-25.02
			c-31.56-3.53-63.51-3.54-95.31-3.53c-31.81-0.01-63.76,0-95.33,3.53c-13.31,1.49-24.39,11.47-27.49,25.02
			c-4.44,19.27-4.49,40.31-4.49,60.16s0,40.9,4.44,60.17C80.27,273.71,91.34,283.7,104.68,285.19z"/>
		<path class="st2" d="M159.54,157.91c26.97,14.07,53.77,28.05,80.92,42.21c-27.07,14.03-53.87,27.94-80.92,41.97V157.91
			L159.54,157.91z"/>
	</g>
</g>
</svg>
