<?xml version="1.0" encoding="utf-8"?>
<!-- Generator: Adobe Illustrator 25.0.0, SVG Export Plug-In . SVG Version: 6.00 Build 0)  -->
<svg version="1.1" id="Layer_1" xmlns="http://www.w3.org/2000/svg" xmlns:xlink="http://www.w3.org/1999/xlink" x="0px" y="0px"
	 viewBox="0 0 400 400" style="enable-background:new 0 0 400 400;" xml:space="preserve">
<style type="text/css">
	.st0{fill:#1B1B1B;}
</style>
<g>
	<path class="st0" d="M200,0H0v400h200h200V0H200z M367.68,367.68H200H32.32V32.32H200h167.68V367.68z"/>
	<path class="st0" d="M322.87,139.84c-3.12-13.55-14.19-23.53-27.52-25.02c-31.56-3.53-63.51-3.54-95.31-3.53
		c-31.81-0.01-63.76,0-95.33,3.53c-13.31,1.49-24.39,11.47-27.49,25.02c-4.44,19.27-4.49,40.31-4.49,60.16
		c0,19.85,0,40.9,4.44,60.17c3.1,13.54,14.18,23.53,27.51,25.02c31.56,3.52,63.5,3.54,95.31,3.52c31.82,0.02,63.76,0,95.31-3.52
		c13.33-1.49,24.4-11.48,27.52-25.02c4.44-19.27,4.45-40.32,4.45-60.17S327.31,159.11,322.87,139.84z M159.54,242.09v-84.18l0,0
		c26.97,14.07,53.77,28.05,80.92,42.21C213.39,214.16,186.58,228.06,159.54,242.09z"/>
</g>
</svg>
